<svg width="351" height="162" viewBox="0 0 351 162" fill="none" xmlns="http://www.w3.org/2000/svg">
<path opacity="0.1" d="M0.624279 91L30.1702 25.3424H42.1762L71.8159 91H59.0595L33.6407 31.8144H38.5181L13.193 91H0.624279ZM14.2248 75.805L17.5077 66.2377H52.9628L56.2456 75.805H14.2248ZM80.166 91V25.3424H110.931C118.81 25.3424 124.813 26.9057 128.94 30.0322C133.067 33.0963 135.131 37.2233 135.131 42.4134C135.131 45.9151 134.318 48.9166 132.692 51.4179C131.066 53.8566 128.878 55.7638 126.126 57.1394C123.437 58.4526 120.498 59.1092 117.309 59.1092L118.998 55.7325C122.687 55.7325 126.001 56.4203 128.94 57.796C131.879 59.1092 134.193 61.0476 135.881 63.6114C137.632 66.1752 138.507 69.3643 138.507 73.1787C138.507 78.8064 136.35 83.1836 132.035 86.3102C127.721 89.4367 121.311 91 112.807 91H80.166ZM92.3595 81.4328H112.057C116.622 81.4328 120.123 80.6824 122.562 79.1816C125.001 77.6809 126.22 75.2734 126.22 71.9593C126.22 68.7077 125.001 66.3315 122.562 64.8308C120.123 63.2675 116.622 62.4858 112.057 62.4858H91.4215V53.0124H109.618C113.87 53.0124 117.122 52.262 119.373 50.7613C121.687 49.2605 122.843 47.0094 122.843 44.0079C122.843 40.9439 121.687 38.6615 119.373 37.1608C117.122 35.66 113.87 34.9097 109.618 34.9097H92.3595V81.4328ZM182.286 91.938C177.159 91.938 172.438 91.0938 168.123 89.4055C163.808 87.7171 160.056 85.3722 156.867 82.3707C153.678 79.3067 151.208 75.7424 149.457 71.6779C147.707 67.5509 146.831 63.0486 146.831 58.1712C146.831 53.2938 147.707 48.8228 149.457 44.7583C151.208 40.6313 153.678 37.067 156.867 34.0655C160.056 31.0015 163.808 28.6253 168.123 26.937C172.438 25.2486 177.127 24.4044 182.192 24.4044C187.32 24.4044 192.01 25.2486 196.262 26.937C200.577 28.6253 204.328 31.0015 207.517 34.0655C210.707 37.067 213.177 40.6313 214.927 44.7583C216.678 48.8228 217.554 53.2938 217.554 58.1712C217.554 63.0486 216.678 67.5509 214.927 71.6779C213.177 75.805 210.707 79.3692 207.517 82.3707C204.328 85.3722 200.577 87.7171 196.262 89.4055C192.01 91.0938 187.351 91.938 182.286 91.938ZM182.192 81.2452C185.507 81.2452 188.571 80.6824 191.384 79.5568C194.198 78.4313 196.637 76.8367 198.701 74.7732C200.764 72.6471 202.359 70.2084 203.484 67.4571C204.672 64.6432 205.266 61.5479 205.266 58.1712C205.266 54.7945 204.672 51.7305 203.484 48.9791C202.359 46.1652 200.764 43.7265 198.701 41.663C196.637 39.537 194.198 37.9112 191.384 36.7856C188.571 35.66 185.507 35.0973 182.192 35.0973C178.878 35.0973 175.814 35.66 173 36.7856C170.249 37.9112 167.81 39.537 165.684 41.663C163.621 43.7265 161.995 46.1652 160.807 48.9791C159.681 51.7305 159.118 54.7945 159.118 58.1712C159.118 61.4854 159.681 64.5494 160.807 67.3633C161.995 70.1772 163.621 72.6471 165.684 74.7732C167.748 76.8367 170.186 78.4313 173 79.5568C175.814 80.6824 178.878 81.2452 182.192 81.2452ZM258.711 91.938C249.707 91.938 242.641 89.4055 237.513 84.3404C232.448 79.2754 229.916 71.9593 229.916 62.3921V25.3424H242.109V61.9231C242.109 68.6764 243.548 73.5851 246.424 76.6491C249.363 79.7131 253.49 81.2452 258.805 81.2452C264.12 81.2452 268.216 79.7131 271.092 76.6491C273.969 73.5851 275.407 68.6764 275.407 61.9231V25.3424H287.413V62.3921C287.413 71.9593 284.849 79.2754 279.722 84.3404C274.657 89.4055 267.653 91.938 258.711 91.938ZM316.618 91V35.66H294.857V25.3424H350.573V35.66H328.812V91H316.618Z" fill="#EAEAEA"/>
<circle cx="182" cy="57.9998" r="20.2278" fill="#636E74"/>
<path d="M187.619 58.1874L179.472 62.8913L179.472 53.4835L187.619 58.1874Z" fill="#EEDFA8"/>
<path d="M119.39 129.18C118.244 129.18 117.35 128.94 116.71 128.46C116.084 127.98 115.644 127.333 115.39 126.52C115.15 125.707 115.03 124.8 115.03 123.8V118.08C115.03 116.987 115.15 116.033 115.39 115.22C115.644 114.407 116.084 113.78 116.71 113.34C117.35 112.887 118.244 112.66 119.39 112.66C120.404 112.66 121.204 112.847 121.79 113.22C122.39 113.593 122.817 114.127 123.07 114.82C123.337 115.513 123.47 116.347 123.47 117.32V118.6H121.33V117.46C121.33 116.86 121.297 116.333 121.23 115.88C121.177 115.413 121.017 115.053 120.75 114.8C120.484 114.547 120.037 114.42 119.41 114.42C118.77 114.42 118.304 114.56 118.01 114.84C117.717 115.107 117.524 115.493 117.43 116C117.35 116.493 117.31 117.073 117.31 117.74V124.16C117.31 124.973 117.377 125.62 117.51 126.1C117.644 126.567 117.864 126.9 118.17 127.1C118.477 127.3 118.89 127.4 119.41 127.4C120.024 127.4 120.464 127.267 120.73 127C120.997 126.72 121.164 126.34 121.23 125.86C121.297 125.38 121.33 124.82 121.33 124.18V122.98H123.47V124.18C123.47 125.167 123.35 126.04 123.11 126.8C122.87 127.547 122.457 128.133 121.87 128.56C121.284 128.973 120.457 129.18 119.39 129.18ZM125.583 129L125.883 112.8H128.103L130.963 125.94L133.843 112.8H136.043L136.343 129H134.523L134.343 117.24L131.603 129H130.323L127.603 117.24L127.423 129H125.583ZM142.966 129.18C141.873 129.18 141 128.967 140.346 128.54C139.693 128.113 139.226 127.507 138.946 126.72C138.666 125.92 138.526 124.987 138.526 123.92V117.78C138.526 116.713 138.666 115.8 138.946 115.04C139.24 114.267 139.706 113.68 140.346 113.28C141 112.867 141.873 112.66 142.966 112.66C144.06 112.66 144.926 112.867 145.566 113.28C146.206 113.693 146.666 114.28 146.946 115.04C147.24 115.8 147.386 116.713 147.386 117.78V123.94C147.386 124.993 147.24 125.913 146.946 126.7C146.666 127.487 146.206 128.1 145.566 128.54C144.926 128.967 144.06 129.18 142.966 129.18ZM142.966 127.4C143.566 127.4 144.02 127.28 144.326 127.04C144.633 126.787 144.84 126.44 144.946 126C145.053 125.547 145.106 125.02 145.106 124.42V117.32C145.106 116.72 145.053 116.207 144.946 115.78C144.84 115.34 144.633 115.007 144.326 114.78C144.02 114.54 143.566 114.42 142.966 114.42C142.366 114.42 141.906 114.54 141.586 114.78C141.28 115.007 141.073 115.34 140.966 115.78C140.86 116.207 140.806 116.72 140.806 117.32V124.42C140.806 125.02 140.86 125.547 140.966 126C141.073 126.44 141.28 126.787 141.586 127.04C141.906 127.28 142.366 127.4 142.966 127.4ZM151.388 129V114.48H148.648V112.8H156.308V114.48H153.648V129H151.388ZM157.869 129V112.8H161.889C162.863 112.8 163.636 112.98 164.209 113.34C164.796 113.687 165.223 114.193 165.489 114.86C165.756 115.527 165.889 116.333 165.889 117.28C165.889 118.133 165.736 118.873 165.429 119.5C165.136 120.127 164.696 120.613 164.109 120.96C163.523 121.293 162.789 121.46 161.909 121.46H160.129V129H157.869ZM160.129 119.84H161.169C161.823 119.84 162.336 119.767 162.709 119.62C163.083 119.473 163.349 119.22 163.509 118.86C163.669 118.487 163.749 117.967 163.749 117.3C163.749 116.527 163.689 115.933 163.569 115.52C163.463 115.107 163.229 114.82 162.869 114.66C162.509 114.5 161.949 114.42 161.189 114.42H160.129V119.84ZM167.479 129V112.8H173.759V114.48H169.739V119.84H172.999V121.44H169.739V127.38H173.799V129H167.479ZM177.403 129V114.48H174.663V112.8H182.323V114.48H179.663V129H177.403ZM183.885 129V112.8H186.145V119.54H186.785C187.958 119.54 188.925 119.68 189.685 119.96C190.445 120.227 191.012 120.7 191.385 121.38C191.772 122.06 191.965 123.02 191.965 124.26C191.965 125.1 191.865 125.82 191.665 126.42C191.465 127.007 191.152 127.493 190.725 127.88C190.312 128.267 189.785 128.553 189.145 128.74C188.518 128.913 187.765 129 186.885 129H183.885ZM186.145 127.38H186.885C187.565 127.38 188.118 127.307 188.545 127.16C188.985 127 189.312 126.693 189.525 126.24C189.738 125.787 189.845 125.12 189.845 124.24C189.845 123.133 189.632 122.347 189.205 121.88C188.778 121.413 187.992 121.18 186.845 121.18H186.145V127.38ZM198.338 129V112.8H202.058C202.791 112.8 203.425 112.88 203.958 113.04C204.505 113.2 204.958 113.447 205.318 113.78C205.678 114.113 205.945 114.54 206.118 115.06C206.291 115.567 206.378 116.167 206.378 116.86C206.378 117.527 206.291 118.107 206.118 118.6C205.958 119.08 205.705 119.46 205.358 119.74C205.025 120.02 204.591 120.2 204.058 120.28C204.711 120.427 205.238 120.68 205.638 121.04C206.038 121.387 206.331 121.84 206.518 122.4C206.718 122.947 206.818 123.607 206.818 124.38C206.818 125.073 206.738 125.707 206.578 126.28C206.418 126.853 206.165 127.34 205.818 127.74C205.485 128.14 205.051 128.453 204.518 128.68C203.998 128.893 203.378 129 202.658 129H198.338ZM200.598 127.38H202.118C203.131 127.38 203.805 127.147 204.138 126.68C204.485 126.2 204.658 125.433 204.658 124.38C204.658 123.7 204.565 123.133 204.378 122.68C204.205 122.213 203.918 121.867 203.518 121.64C203.131 121.4 202.605 121.28 201.938 121.28H200.598V127.38ZM200.598 119.56H201.938C202.578 119.56 203.078 119.473 203.438 119.3C203.798 119.113 204.051 118.82 204.198 118.42C204.345 118.02 204.418 117.5 204.418 116.86C204.418 116.113 204.305 115.573 204.078 115.24C203.851 114.907 203.498 114.7 203.018 114.62C202.538 114.527 201.911 114.48 201.138 114.48H200.598V119.56ZM208.826 129V112.8H210.826V124.02L215.566 112.8H217.186V129H215.206V117.6L210.506 129H208.826ZM218.685 131.94V127.38H219.425C219.652 127.193 219.872 126.967 220.085 126.7C220.312 126.433 220.518 126.087 220.705 125.66C220.905 125.22 221.085 124.66 221.245 123.98C221.405 123.287 221.545 122.42 221.665 121.38C221.798 120.34 221.898 119.08 221.965 117.6L222.225 112.8H229.005V127.38H230.565V131.94H228.825L228.645 129H220.605L220.425 131.94H218.685ZM221.525 127.38H226.765V114.48H224.145L223.985 118.14C223.932 119.58 223.845 120.793 223.725 121.78C223.618 122.753 223.485 123.56 223.325 124.2C223.178 124.827 223.005 125.34 222.805 125.74C222.618 126.127 222.412 126.44 222.185 126.68C221.972 126.92 221.752 127.153 221.525 127.38ZM232.264 129V112.8H238.544V114.48H234.524V119.84H237.784V121.44H234.524V127.38H238.584V129H232.264ZM244.548 129.18C243.455 129.18 242.582 128.967 241.928 128.54C241.275 128.113 240.808 127.507 240.528 126.72C240.248 125.92 240.108 124.987 240.108 123.92V117.78C240.108 116.713 240.248 115.8 240.528 115.04C240.822 114.267 241.288 113.68 241.928 113.28C242.582 112.867 243.455 112.66 244.548 112.66C245.642 112.66 246.508 112.867 247.148 113.28C247.788 113.693 248.248 114.28 248.528 115.04C248.822 115.8 248.968 116.713 248.968 117.78V123.94C248.968 124.993 248.822 125.913 248.528 126.7C248.248 127.487 247.788 128.1 247.148 128.54C246.508 128.967 245.642 129.18 244.548 129.18ZM244.548 127.4C245.148 127.4 245.602 127.28 245.908 127.04C246.215 126.787 246.422 126.44 246.528 126C246.635 125.547 246.688 125.02 246.688 124.42V117.32C246.688 116.72 246.635 116.207 246.528 115.78C246.422 115.34 246.215 115.007 245.908 114.78C245.602 114.54 245.148 114.42 244.548 114.42C243.948 114.42 243.488 114.54 243.168 114.78C242.862 115.007 242.655 115.34 242.548 115.78C242.442 116.207 242.388 116.72 242.388 117.32V124.42C242.388 125.02 242.442 125.547 242.548 126C242.655 126.44 242.862 126.787 243.168 127.04C243.488 127.28 243.948 127.4 244.548 127.4ZM135.505 157.18C134.412 157.18 133.539 156.967 132.885 156.54C132.232 156.113 131.765 155.507 131.485 154.72C131.205 153.92 131.065 152.987 131.065 151.92V145.78C131.065 144.713 131.205 143.8 131.485 143.04C131.779 142.267 132.245 141.68 132.885 141.28C133.539 140.867 134.412 140.66 135.505 140.66C136.599 140.66 137.465 140.867 138.105 141.28C138.745 141.693 139.205 142.28 139.485 143.04C139.779 143.8 139.925 144.713 139.925 145.78V151.94C139.925 152.993 139.779 153.913 139.485 154.7C139.205 155.487 138.745 156.1 138.105 156.54C137.465 156.967 136.599 157.18 135.505 157.18ZM135.505 155.4C136.105 155.4 136.559 155.28 136.865 155.04C137.172 154.787 137.379 154.44 137.485 154C137.592 153.547 137.645 153.02 137.645 152.42V145.32C137.645 144.72 137.592 144.207 137.485 143.78C137.379 143.34 137.172 143.007 136.865 142.78C136.559 142.54 136.105 142.42 135.505 142.42C134.905 142.42 134.445 142.54 134.125 142.78C133.819 143.007 133.612 143.34 133.505 143.78C133.399 144.207 133.345 144.72 133.345 145.32V152.42C133.345 153.02 133.399 153.547 133.505 154C133.612 154.44 133.819 154.787 134.125 155.04C134.445 155.28 134.905 155.4 135.505 155.4ZM146.717 157V140.8H148.977V148H149.817L152.717 140.8H154.977L151.777 148.5L155.377 157H153.117L149.837 149.1H148.977V157H146.717ZM161.013 157.18C159.92 157.18 159.047 156.967 158.393 156.54C157.74 156.113 157.273 155.507 156.993 154.72C156.713 153.92 156.573 152.987 156.573 151.92V145.78C156.573 144.713 156.713 143.8 156.993 143.04C157.287 142.267 157.753 141.68 158.393 141.28C159.047 140.867 159.92 140.66 161.013 140.66C162.107 140.66 162.973 140.867 163.613 141.28C164.253 141.693 164.713 142.28 164.993 143.04C165.287 143.8 165.433 144.713 165.433 145.78V151.94C165.433 152.993 165.287 153.913 164.993 154.7C164.713 155.487 164.253 156.1 163.613 156.54C162.973 156.967 162.107 157.18 161.013 157.18ZM161.013 155.4C161.613 155.4 162.067 155.28 162.373 155.04C162.68 154.787 162.887 154.44 162.993 154C163.1 153.547 163.153 153.02 163.153 152.42V145.32C163.153 144.72 163.1 144.207 162.993 143.78C162.887 143.34 162.68 143.007 162.373 142.78C162.067 142.54 161.613 142.42 161.013 142.42C160.413 142.42 159.953 142.54 159.633 142.78C159.327 143.007 159.12 143.34 159.013 143.78C158.907 144.207 158.853 144.72 158.853 145.32V152.42C158.853 153.02 158.907 153.547 159.013 154C159.12 154.44 159.327 154.787 159.633 155.04C159.953 155.28 160.413 155.4 161.013 155.4ZM167.615 157L167.915 140.8H170.135L172.995 153.94L175.875 140.8H178.075L178.375 157H176.555L176.375 145.24L173.635 157H172.355L169.635 145.24L169.455 157H167.615ZM180.858 157V140.8H189.778V157H187.518V142.42H183.118V157H180.858ZM191.423 157L194.863 140.8H197.043L200.503 157H198.363L197.623 152.92H194.323L193.543 157H191.423ZM194.623 151.3H197.323L195.963 144L194.623 151.3ZM202.147 157V140.8H204.407V147.8H208.567V140.8H210.827V157H208.567V149.42H204.407V157H202.147ZM213.358 157V140.8H215.358V152.02L220.098 140.8H221.718V157H219.738V145.6L215.038 157H213.358ZM224.256 157V140.8H226.256V152.02L230.996 140.8H232.616V157H230.636V145.6L225.936 157H224.256Z" fill="white"/>
</svg>
