<svg width="679" height="169" viewBox="0 0 679 169" fill="none" xmlns="http://www.w3.org/2000/svg">
<path d="M0.836992 167V1.95295H41.7931C51.7095 1.95295 59.5883 3.7868 65.4295 7.45452C71.4065 10.9864 75.7534 16.1484 78.4702 22.9404C81.1871 29.7325 82.5455 37.9509 82.5455 47.5956C82.5455 56.2894 80.9833 63.8286 77.8589 70.2131C74.8704 76.5977 70.3877 81.5559 64.4107 85.0878C58.4337 88.4838 50.9624 90.1818 41.9969 90.1818H23.8621V167H0.836992ZM23.8621 73.6771H34.4577C41.1139 73.6771 46.3438 72.93 50.1473 71.4357C53.9509 69.9415 56.6677 67.3605 58.2978 63.6928C59.9279 59.8892 60.743 54.5914 60.743 47.7994C60.743 39.9206 60.1317 33.8756 58.9091 29.6646C57.8224 25.4535 55.4452 22.5329 51.7774 20.9028C48.1097 19.2727 42.4044 18.4577 34.6615 18.4577H23.8621V73.6771ZM98.7382 167V1.95295H121.763V73.2696H164.146V1.95295H187.171V167H164.146V89.7743H121.763V167H98.7382ZM255.135 168.834C243.996 168.834 235.098 166.66 228.442 162.313C221.786 157.967 217.031 151.786 214.179 143.771C211.326 135.621 209.9 126.112 209.9 115.245V52.6896C209.9 41.8223 211.326 32.5172 214.179 24.7743C217.167 16.8955 221.922 10.9185 228.442 6.84324C235.098 2.63216 243.996 0.52662 255.135 0.52662C266.274 0.52662 275.104 2.63216 281.624 6.84324C288.144 11.0543 292.831 17.0313 295.683 24.7743C298.672 32.5172 300.166 41.8223 300.166 52.6896V115.448C300.166 126.18 298.672 135.553 295.683 143.567C292.831 151.582 288.144 157.831 281.624 162.313C275.104 166.66 266.274 168.834 255.135 168.834ZM255.135 150.699C261.248 150.699 265.866 149.476 268.991 147.031C272.115 144.45 274.221 140.918 275.307 136.436C276.394 131.817 276.937 126.451 276.937 120.339V48.0031C276.937 41.8903 276.394 36.6604 275.307 32.3135C274.221 27.8307 272.115 24.4347 268.991 22.1254C265.866 19.6802 261.248 18.4577 255.135 18.4577C249.022 18.4577 244.336 19.6802 241.075 22.1254C237.951 24.4347 235.845 27.8307 234.759 32.3135C233.672 36.6604 233.129 41.8903 233.129 48.0031V120.339C233.129 126.451 233.672 131.817 234.759 136.436C235.845 140.918 237.951 144.45 241.075 147.031C244.336 149.476 249.022 150.699 255.135 150.699ZM340.931 167V19.0689H313.016V1.95295H391.057V19.0689H363.956V167H340.931ZM449.146 168.834C438.007 168.834 429.11 166.66 422.454 162.313C415.797 157.967 411.043 151.786 408.19 143.771C405.338 135.621 403.911 126.112 403.911 115.245V52.6896C403.911 41.8223 405.338 32.5172 408.19 24.7743C411.179 16.8955 415.933 10.9185 422.454 6.84324C429.11 2.63216 438.007 0.52662 449.146 0.52662C460.285 0.52662 469.115 2.63216 475.635 6.84324C482.156 11.0543 486.842 17.0313 489.695 24.7743C492.683 32.5172 494.178 41.8223 494.178 52.6896V115.448C494.178 126.18 492.683 135.553 489.695 143.567C486.842 151.582 482.156 157.831 475.635 162.313C469.115 166.66 460.285 168.834 449.146 168.834ZM449.146 150.699C455.259 150.699 459.878 149.476 463.002 147.031C466.126 144.45 468.232 140.918 469.319 136.436C470.405 131.817 470.949 126.451 470.949 120.339V48.0031C470.949 41.8903 470.405 36.6604 469.319 32.3135C468.232 27.8307 466.126 24.4347 463.002 22.1254C459.878 19.6802 455.259 18.4577 449.146 18.4577C443.033 18.4577 438.347 19.6802 435.087 22.1254C431.962 24.4347 429.857 27.8307 428.77 32.3135C427.683 36.6604 427.14 41.8903 427.14 48.0031V120.339C427.14 126.451 427.683 131.817 428.77 136.436C429.857 140.918 431.962 144.45 435.087 147.031C438.347 149.476 443.033 150.699 449.146 150.699ZM516.808 167V1.95295H580.789V19.0689H539.833V73.6771H573.046V89.978H539.833V150.495H581.197V167H516.808ZM638.704 168.834C629.195 168.834 621.248 166.796 614.864 162.721C608.615 158.646 603.86 153.008 600.6 145.809C597.34 138.609 595.438 130.255 594.895 120.746L615.271 115.245C615.679 121.086 616.562 126.723 617.92 132.157C619.414 137.59 621.791 142.073 625.052 145.605C628.312 149.001 632.863 150.699 638.704 150.699C644.681 150.699 649.163 149.069 652.152 145.809C655.276 142.413 656.838 137.59 656.838 131.342C656.838 123.87 655.14 117.893 651.744 113.411C648.348 108.792 644.069 104.173 638.907 99.5548L611.196 75.1034C605.762 70.349 601.755 65.187 599.174 59.6175C596.593 53.9122 595.302 46.9164 595.302 38.6301C595.302 26.5402 598.766 17.1672 605.694 10.511C612.622 3.85473 622.063 0.52662 634.017 0.52662C640.538 0.52662 646.243 1.40959 651.133 3.17552C656.159 4.80561 660.302 7.3866 663.563 10.9185C666.959 14.4503 669.608 18.9331 671.509 24.3667C673.547 29.6646 674.905 35.9133 675.585 43.1128L656.023 48.4106C655.616 42.977 654.801 38.0188 653.578 33.536C652.356 28.9174 650.182 25.2497 647.058 22.5329C644.069 19.6802 639.722 18.2539 634.017 18.2539C628.312 18.2539 623.829 19.8161 620.569 22.9404C617.445 25.9289 615.882 30.4117 615.882 36.3887C615.882 41.4148 616.697 45.558 618.327 48.8182C620.093 52.0783 622.878 55.4065 626.682 58.8025L654.597 83.2539C660.846 88.6876 666.347 95.2079 671.102 102.815C675.856 110.286 678.233 119.184 678.233 129.508C678.233 137.658 676.535 144.722 673.139 150.699C669.743 156.54 665.057 161.023 659.08 164.147C653.239 167.272 646.447 168.834 638.704 168.834Z" fill="white"/>
<path d="M0.836992 167H-0.754896V168.592H0.836992V167ZM0.836992 1.95295V0.361053H-0.754896V1.95295H0.836992ZM65.4295 7.45451L64.583 8.80267L64.6012 8.81409L64.6196 8.82501L65.4295 7.45451ZM78.4702 22.9404L79.9483 22.3492L78.4702 22.9404ZM77.8589 70.2132L76.4291 69.5134L76.423 69.5258L76.4172 69.5383L77.8589 70.2132ZM64.4107 85.0878L65.1971 86.4718L65.2089 86.4651L65.2205 86.4583L64.4107 85.0878ZM23.8621 90.1818V88.5899H22.2702V90.1818H23.8621ZM23.8621 167V168.592H25.454V167H23.8621ZM23.8621 73.6771H22.2702V75.269H23.8621V73.6771ZM50.1473 71.4357L50.7294 72.9174H50.7294L50.1473 71.4357ZM58.2978 63.6928L59.7525 64.3393L59.7568 64.3296L59.761 64.3199L58.2978 63.6928ZM58.9091 29.6646L57.3677 30.0623L57.3737 30.0855L57.3803 30.1084L58.9091 29.6646ZM51.7774 20.9028L51.1309 22.3575H51.1309L51.7774 20.9028ZM23.8621 18.4577V16.8658H22.2702V18.4577H23.8621ZM2.42888 167V1.95295H-0.754896V167H2.42888ZM0.836992 3.54484H41.7931V0.361053H0.836992V3.54484ZM41.7931 3.54484C51.5343 3.54484 59.0833 5.34942 64.583 8.80267L66.276 6.10636C60.0933 2.22419 51.8847 0.361053 41.7931 0.361053V3.54484ZM64.6196 8.82501C70.277 12.168 74.3984 17.0472 76.9922 23.5316L79.9483 22.3492C77.1084 15.2495 72.536 9.80476 66.2393 6.08401L64.6196 8.82501ZM76.9922 23.5316C79.614 30.0862 80.9536 38.0923 80.9536 47.5956H84.1374C84.1374 37.8094 82.7601 29.3787 79.9483 22.3492L76.9922 23.5316ZM80.9536 47.5956C80.9536 56.1 79.4257 63.3899 76.4291 69.5134L79.2888 70.9129C82.5409 64.2673 84.1374 56.4788 84.1374 47.5956H80.9536ZM76.4172 69.5383C73.5623 75.6374 69.2975 80.351 63.6008 83.7173L65.2205 86.4583C71.4779 82.7607 76.1786 77.558 79.3007 70.888L76.4172 69.5383ZM63.6243 83.7037C57.9491 86.9282 50.7683 88.5899 41.9969 88.5899V91.7737C51.1565 91.7737 58.9182 90.0394 65.1971 86.4718L63.6243 83.7037ZM41.9969 88.5899H23.8621V91.7737H41.9969V88.5899ZM22.2702 90.1818V167H25.454V90.1818H22.2702ZM23.8621 165.408H0.836992V168.592H23.8621V165.408ZM23.8621 75.269H34.4577V72.0852H23.8621V75.269ZM34.4577 75.269C41.2037 75.269 46.6603 74.5159 50.7294 72.9174L49.5653 69.9541C46.0272 71.344 41.0241 72.0852 34.4577 72.0852V75.269ZM50.7294 72.9174C54.9143 71.2733 57.9491 68.3969 59.7525 64.3393L56.8431 63.0462C55.3863 66.3241 52.9874 68.6096 49.5653 69.9541L50.7294 72.9174ZM59.761 64.3199C61.5133 60.231 62.3348 54.6861 62.3348 47.7994H59.1511C59.1511 54.4968 58.3425 59.5474 56.8346 63.0657L59.761 64.3199ZM62.3348 47.7994C62.3348 39.8695 61.7231 33.6475 60.4379 29.2207L57.3803 30.1084C58.5403 34.1038 59.1511 39.9716 59.1511 47.7994H62.3348ZM60.4505 29.2668C59.254 24.6304 56.5765 21.2937 52.424 19.4481L51.1309 22.3575C54.3138 23.7721 56.3907 26.2766 57.3677 30.0623L60.4505 29.2668ZM52.424 19.4481C48.4406 17.6777 42.4583 16.8658 34.6614 16.8658V20.0495C42.3505 20.0495 47.7788 20.8677 51.1309 22.3575L52.424 19.4481ZM34.6614 16.8658H23.8621V20.0495H34.6614V16.8658ZM22.2702 18.4577V73.6771H25.454V18.4577H22.2702ZM98.7382 167H97.1463V168.592H98.7382V167ZM98.7382 1.95295V0.361053H97.1463V1.95295H98.7382ZM121.763 1.95295H123.355V0.361053H121.763V1.95295ZM121.763 73.2696H120.171V74.8615H121.763V73.2696ZM164.146 73.2696V74.8615H165.738V73.2696H164.146ZM164.146 1.95295V0.361053H162.554V1.95295H164.146ZM187.171 1.95295H188.763V0.361053H187.171V1.95295ZM187.171 167V168.592H188.763V167H187.171ZM164.146 167H162.554V168.592H164.146V167ZM164.146 89.7743H165.738V88.1824H164.146V89.7743ZM121.763 89.7743V88.1824H120.171V89.7743H121.763ZM121.763 167V168.592H123.355V167H121.763ZM100.33 167V1.95295H97.1463V167H100.33ZM98.7382 3.54484H121.763V0.361053H98.7382V3.54484ZM120.171 1.95295V73.2696H123.355V1.95295H120.171ZM121.763 74.8615H164.146V71.6777H121.763V74.8615ZM165.738 73.2696V1.95295H162.554V73.2696H165.738ZM164.146 3.54484H187.171V0.361053H164.146V3.54484ZM185.579 1.95295V167H188.763V1.95295H185.579ZM187.171 165.408H164.146V168.592H187.171V165.408ZM165.738 167V89.7743H162.554V167H165.738ZM164.146 88.1824H121.763V91.3662H164.146V88.1824ZM120.171 89.7743V167H123.355V89.7743H120.171ZM121.763 165.408H98.7382V168.592H121.763V165.408ZM228.442 162.313L229.313 160.981L228.442 162.313ZM214.179 143.771L212.676 144.297L212.679 144.305L214.179 143.771ZM214.179 24.7743L212.69 24.2097L212.688 24.2168L212.685 24.224L214.179 24.7743ZM228.442 6.84324L229.286 8.19318L229.293 8.18851L228.442 6.84324ZM281.624 6.84324L280.76 8.18049L281.624 6.84324ZM295.683 24.7743L294.19 25.3246L294.194 25.3361L294.198 25.3475L295.683 24.7743ZM295.683 143.567L294.192 143.011L294.188 143.022L294.184 143.034L295.683 143.567ZM281.624 162.313L282.507 163.638L282.516 163.632L282.526 163.625L281.624 162.313ZM268.991 147.031L269.972 148.285L269.988 148.272L270.005 148.259L268.991 147.031ZM275.307 136.436L276.854 136.811L276.857 136.8L275.307 136.436ZM275.307 32.3135L273.76 32.6885L273.763 32.6995L275.307 32.3135ZM268.991 22.1254L268.01 23.379L268.027 23.3925L268.044 23.4055L268.991 22.1254ZM241.075 22.1254L242.022 23.4056L242.03 23.3989L241.075 22.1254ZM234.759 32.3135L236.303 32.6996L236.306 32.6885L234.759 32.3135ZM234.759 136.436L233.209 136.8L233.212 136.811L234.759 136.436ZM241.075 147.031L240.061 148.259L240.09 148.282L240.12 148.305L241.075 147.031ZM255.135 167.242C244.186 167.242 235.626 165.103 229.313 160.981L227.572 163.646C234.571 168.217 243.806 170.426 255.135 170.426V167.242ZM229.313 160.981C222.969 156.838 218.423 150.948 215.678 143.237L212.679 144.305C215.64 152.623 220.603 159.095 227.572 163.646L229.313 160.981ZM215.681 143.245C212.901 135.301 211.492 125.977 211.492 115.245H208.308C208.308 126.247 209.751 135.94 212.676 144.297L215.681 143.245ZM211.492 115.245V52.6896H208.308V115.245H211.492ZM211.492 52.6896C211.492 41.9539 212.902 32.8454 215.673 25.3246L212.685 24.224C209.751 32.1891 208.308 41.6907 208.308 52.6896H211.492ZM215.667 25.3388C218.545 17.7522 223.089 12.0662 229.286 8.19316L227.598 5.49332C220.755 9.77074 215.79 16.0387 212.69 24.2097L215.667 25.3388ZM229.293 8.18851C235.61 4.19216 244.178 2.11851 255.135 2.11851V-1.06527C243.814 -1.06527 234.587 1.07215 227.591 5.49797L229.293 8.18851ZM255.135 2.11851C266.094 2.11851 274.586 4.19315 280.76 8.18049L282.488 5.50599C275.621 1.07117 266.453 -1.06527 255.135 -1.06527V2.11851ZM280.76 8.18049C286.972 12.1922 291.448 17.8835 294.19 25.3246L297.177 24.224C294.213 16.1791 289.317 9.91638 282.488 5.50599L280.76 8.18049ZM294.198 25.3475C297.098 32.8607 298.574 41.9609 298.574 52.6896H301.758C301.758 41.6838 300.246 32.1738 297.169 24.2011L294.198 25.3475ZM298.574 52.6896V115.448H301.758V52.6896H298.574ZM298.574 115.448C298.574 126.036 297.1 135.213 294.192 143.011L297.175 144.124C300.244 135.892 301.758 126.323 301.758 115.448H298.574ZM294.184 143.034C291.435 150.758 286.945 156.723 280.722 161.002L282.526 163.625C289.344 158.938 294.227 152.407 297.183 144.101L294.184 143.034ZM280.741 160.989C274.571 165.102 266.086 167.242 255.135 167.242V170.426C266.461 170.426 275.636 168.218 282.507 163.638L280.741 160.989ZM255.135 152.291C261.422 152.291 266.452 151.04 269.972 148.285L268.01 145.778C265.281 147.913 261.074 149.107 255.135 149.107V152.291ZM270.005 148.259C273.43 145.429 275.698 141.579 276.854 136.811L273.76 136.061C272.743 140.257 270.8 143.472 267.977 145.804L270.005 148.259ZM276.857 136.8C277.978 132.034 278.529 126.541 278.529 120.339H275.345C275.345 126.362 274.81 131.601 273.758 136.071L276.857 136.8ZM278.529 120.339V48.0031H275.345V120.339H278.529ZM278.529 48.0031C278.529 41.8038 277.979 36.4369 276.852 31.9274L273.763 32.6995C274.809 36.8839 275.345 41.9767 275.345 48.0031H278.529ZM276.854 31.9384C275.697 27.1639 273.415 23.4163 269.937 20.8452L268.044 23.4055C270.815 25.453 272.744 28.4975 273.76 32.6885L276.854 31.9384ZM269.972 20.8717C266.452 18.1169 261.422 16.8658 255.135 16.8658V20.0495C261.074 20.0495 265.281 21.2435 268.01 23.379L269.972 20.8717ZM255.135 16.8658C248.841 16.8658 243.763 18.1197 240.12 20.8519L242.03 23.3989C244.908 21.2408 249.203 20.0495 255.135 20.0495V16.8658ZM240.129 20.8452C236.651 23.4163 234.369 27.1639 233.212 31.9384L236.306 32.6885C237.322 28.4975 239.251 25.453 242.022 23.4055L240.129 20.8452ZM233.214 31.9274C232.087 36.4369 231.537 41.8038 231.537 48.0031H234.721C234.721 41.9767 235.257 36.8839 236.303 32.6995L233.214 31.9274ZM231.537 48.0031V120.339H234.721V48.0031H231.537ZM231.537 120.339C231.537 126.541 232.088 132.034 233.209 136.8L236.308 136.071C235.256 131.601 234.721 126.362 234.721 120.339H231.537ZM233.212 136.811C234.368 141.579 236.636 145.429 240.061 148.259L242.089 145.804C239.266 143.472 237.323 140.257 236.306 136.061L233.212 136.811ZM240.12 148.305C243.763 151.037 248.841 152.291 255.135 152.291V149.107C249.203 149.107 244.908 147.916 242.03 145.758L240.12 148.305ZM340.931 167H339.339V168.592H340.931V167ZM340.931 19.0689H342.523V17.4771H340.931V19.0689ZM313.016 19.0689H311.424V20.6608H313.016V19.0689ZM313.016 1.95295V0.361053H311.424V1.95295H313.016ZM391.057 1.95295H392.649V0.361053H391.057V1.95295ZM391.057 19.0689V20.6608H392.649V19.0689H391.057ZM363.956 19.0689V17.4771H362.365V19.0689H363.956ZM363.956 167V168.592H365.548V167H363.956ZM342.523 167V19.0689H339.339V167H342.523ZM340.931 17.4771H313.016V20.6608H340.931V17.4771ZM314.608 19.0689V1.95295H311.424V19.0689H314.608ZM313.016 3.54484H391.057V0.361053H313.016V3.54484ZM389.465 1.95295V19.0689H392.649V1.95295H389.465ZM391.057 17.4771H363.956V20.6608H391.057V17.4771ZM362.365 19.0689V167H365.548V19.0689H362.365ZM363.956 165.408H340.931V168.592H363.956V165.408ZM422.454 162.313L423.324 160.981L422.454 162.313ZM408.19 143.771L406.688 144.297L406.69 144.305L408.19 143.771ZM408.19 24.7743L406.702 24.2097L406.699 24.2168L406.696 24.224L408.19 24.7743ZM422.454 6.84324L423.297 8.19318L423.305 8.18851L422.454 6.84324ZM475.635 6.84324L474.772 8.18049L475.635 6.84324ZM489.695 24.7743L488.201 25.3246L488.205 25.3361L488.21 25.3475L489.695 24.7743ZM489.695 143.567L488.203 143.011L488.199 143.022L488.195 143.034L489.695 143.567ZM475.635 162.313L476.518 163.638L476.528 163.632L476.537 163.625L475.635 162.313ZM463.002 147.031L463.983 148.285L464 148.272L464.016 148.259L463.002 147.031ZM469.319 136.436L470.866 136.811L470.868 136.8L469.319 136.436ZM469.319 32.3135L467.772 32.6885L467.774 32.6995L469.319 32.3135ZM463.002 22.1254L462.021 23.379L462.038 23.3925L462.056 23.4055L463.002 22.1254ZM435.087 22.1254L436.033 23.4056L436.042 23.3989L435.087 22.1254ZM428.77 32.3135L430.315 32.6996L430.317 32.6885L428.77 32.3135ZM428.77 136.436L427.221 136.8L427.223 136.811L428.77 136.436ZM435.087 147.031L434.073 148.259L434.102 148.282L434.132 148.305L435.087 147.031ZM449.146 167.242C438.197 167.242 429.637 165.103 423.324 160.981L421.583 163.646C428.583 168.217 437.817 170.426 449.146 170.426V167.242ZM423.324 160.981C416.98 156.838 412.435 150.948 409.69 143.237L406.69 144.305C409.651 152.623 414.614 159.095 421.583 163.646L423.324 160.981ZM409.693 143.245C406.912 135.301 405.503 125.977 405.503 115.245H402.319C402.319 126.247 403.763 135.94 406.688 144.297L409.693 143.245ZM405.503 115.245V52.6896H402.319V115.245H405.503ZM405.503 52.6896C405.503 41.9539 406.913 32.8454 409.684 25.3246L406.696 24.224C403.762 32.1891 402.319 41.6907 402.319 52.6896H405.503ZM409.679 25.3388C412.556 17.7522 417.1 12.0662 423.297 8.19316L421.61 5.49332C414.766 9.77074 409.801 16.0387 406.702 24.2097L409.679 25.3388ZM423.305 8.18851C429.621 4.19216 438.19 2.11851 449.146 2.11851V-1.06527C437.825 -1.06527 428.598 1.07215 421.602 5.49797L423.305 8.18851ZM449.146 2.11851C460.106 2.11851 468.598 4.19315 474.772 8.18049L476.499 5.50599C469.632 1.07117 460.465 -1.06527 449.146 -1.06527V2.11851ZM474.772 8.18049C480.983 12.1922 485.46 17.8835 488.201 25.3246L491.189 24.224C488.225 16.1791 483.328 9.91638 476.499 5.50599L474.772 8.18049ZM488.21 25.3475C491.11 32.8607 492.586 41.9609 492.586 52.6896H495.77C495.77 41.6838 494.257 32.1738 491.18 24.2011L488.21 25.3475ZM492.586 52.6896V115.448H495.77V52.6896H492.586ZM492.586 115.448C492.586 126.036 491.111 135.213 488.203 143.011L491.186 144.124C494.256 135.892 495.77 126.323 495.77 115.448H492.586ZM488.195 143.034C485.446 150.758 480.956 156.723 474.734 161.002L476.537 163.625C483.355 158.938 488.238 152.407 491.195 144.101L488.195 143.034ZM474.752 160.989C468.582 165.102 460.098 167.242 449.146 167.242V170.426C460.473 170.426 469.648 168.218 476.518 163.638L474.752 160.989ZM449.146 152.291C455.433 152.291 460.463 151.04 463.983 148.285L462.021 145.778C459.292 147.913 455.085 149.107 449.146 149.107V152.291ZM464.016 148.259C467.441 145.429 469.71 141.579 470.866 136.811L467.772 136.061C466.754 140.257 464.812 143.472 461.988 145.804L464.016 148.259ZM470.868 136.8C471.99 132.034 472.541 126.541 472.541 120.339H469.357C469.357 126.362 468.821 131.601 467.769 136.071L470.868 136.8ZM472.541 120.339V48.0031H469.357V120.339H472.541ZM472.541 48.0031C472.541 41.8038 471.99 36.4369 470.863 31.9274L467.774 32.6995C468.82 36.8839 469.357 41.9767 469.357 48.0031H472.541ZM470.866 31.9384C469.708 27.1639 467.427 23.4163 463.948 20.8452L462.056 23.4055C464.826 25.453 466.756 28.4975 467.772 32.6885L470.866 31.9384ZM463.983 20.8717C460.463 18.1169 455.433 16.8658 449.146 16.8658V20.0495C455.085 20.0495 459.292 21.2435 462.021 23.379L463.983 20.8717ZM449.146 16.8658C442.853 16.8658 437.775 18.1197 434.132 20.8519L436.042 23.3989C438.919 21.2408 443.214 20.0495 449.146 20.0495V16.8658ZM434.141 20.8452C430.662 23.4163 428.381 27.1639 427.223 31.9384L430.317 32.6885C431.333 28.4975 433.263 25.453 436.033 23.4055L434.141 20.8452ZM427.226 31.9274C426.098 36.4369 425.548 41.8038 425.548 48.0031H428.732C428.732 41.9767 429.268 36.8839 430.315 32.6995L427.226 31.9274ZM425.548 48.0031V120.339H428.732V48.0031H425.548ZM425.548 120.339C425.548 126.541 426.099 132.034 427.221 136.8L430.32 136.071C429.268 131.601 428.732 126.362 428.732 120.339H425.548ZM427.223 136.811C428.379 141.579 430.648 145.429 434.073 148.259L436.101 145.804C433.277 143.472 431.335 140.257 430.317 136.061L427.223 136.811ZM434.132 148.305C437.775 151.037 442.853 152.291 449.146 152.291V149.107C443.214 149.107 438.919 147.916 436.042 145.758L434.132 148.305ZM516.808 167H515.216V168.592H516.808V167ZM516.808 1.95295V0.361053H515.216V1.95295H516.808ZM580.789 1.95295H582.381V0.361053H580.789V1.95295ZM580.789 19.0689V20.6608H582.381V19.0689H580.789ZM539.833 19.0689V17.4771H538.241V19.0689H539.833ZM539.833 73.6771H538.241V75.269H539.833V73.6771ZM573.046 73.6771H574.638V72.0852H573.046V73.6771ZM573.046 89.978V91.5699H574.638V89.978H573.046ZM539.833 89.978V88.3862H538.241V89.978H539.833ZM539.833 150.495H538.241V152.087H539.833V150.495ZM581.197 150.495H582.789V148.903H581.197V150.495ZM581.197 167V168.592H582.789V167H581.197ZM518.4 167V1.95295H515.216V167H518.4ZM516.808 3.54484H580.789V0.361053H516.808V3.54484ZM579.197 1.95295V19.0689H582.381V1.95295H579.197ZM580.789 17.4771H539.833V20.6608H580.789V17.4771ZM538.241 19.0689V73.6771H541.425V19.0689H538.241ZM539.833 75.269H573.046V72.0852H539.833V75.269ZM571.454 73.6771V89.978H574.638V73.6771H571.454ZM573.046 88.3862H539.833V91.5699H573.046V88.3862ZM538.241 89.978V150.495H541.425V89.978H538.241ZM539.833 152.087H581.197V148.903H539.833V152.087ZM579.605 150.495V167H582.789V150.495H579.605ZM581.197 165.408H516.808V168.592H581.197V165.408ZM614.864 162.721L613.994 164.054L614 164.059L614.007 164.063L614.864 162.721ZM600.6 145.809L599.15 146.465L600.6 145.809ZM594.895 120.746L594.48 119.209L593.232 119.546L593.306 120.837L594.895 120.746ZM615.271 115.245L616.859 115.134L616.724 113.203L614.856 113.708L615.271 115.245ZM617.92 132.157L616.376 132.543L616.38 132.561L616.385 132.579L617.92 132.157ZM625.052 145.605L623.882 146.685L623.892 146.696L623.903 146.707L625.052 145.605ZM652.152 145.809L650.98 144.731L650.979 144.733L652.152 145.809ZM651.744 113.411L650.462 114.354L650.469 114.363L650.476 114.372L651.744 113.411ZM638.907 99.5548L639.969 98.3685L639.961 98.3612L638.907 99.5548ZM611.196 75.1034L612.249 73.9098L612.244 73.9054L611.196 75.1034ZM599.174 59.6175L597.724 60.2737L597.727 60.2803L597.73 60.2869L599.174 59.6175ZM605.694 10.5109L606.797 11.6589V11.6589L605.694 10.5109ZM651.133 3.17552L650.592 4.67278L650.617 4.68168L650.642 4.68977L651.133 3.17552ZM663.563 10.9185L662.393 11.9982L662.404 12.0101L662.415 12.0218L663.563 10.9185ZM671.509 24.3667L670.007 24.8926L670.015 24.9155L670.024 24.9382L671.509 24.3667ZM675.585 43.1128L676.001 44.6494L677.295 44.2987L677.169 42.9633L675.585 43.1128ZM656.023 48.4106L654.436 48.5297L654.58 50.4508L656.44 49.9472L656.023 48.4106ZM653.578 33.536L652.039 33.9434L652.042 33.9549L653.578 33.536ZM647.058 22.5329L645.959 23.6844L645.985 23.7099L646.013 23.7341L647.058 22.5329ZM620.569 22.9404L621.669 24.0908L621.67 24.0897L620.569 22.9404ZM618.328 48.8182L616.904 49.5301L616.915 49.5534L616.928 49.5763L618.328 48.8182ZM626.682 58.8025L625.622 59.9899L625.627 59.995L625.633 60L626.682 58.8025ZM654.597 83.2539L653.548 84.4514L653.553 84.4552L654.597 83.2539ZM671.102 102.815L669.752 103.659L669.759 103.67L671.102 102.815ZM673.139 150.699L674.516 151.499L674.52 151.492L674.523 151.485L673.139 150.699ZM659.08 164.147L658.342 162.737L658.336 162.74L658.329 162.744L659.08 164.147ZM638.704 167.242C629.421 167.242 621.791 165.254 615.72 161.379L614.007 164.063C620.706 168.338 628.969 170.426 638.704 170.426V167.242ZM615.733 161.388C609.754 157.488 605.193 152.093 602.05 145.152L599.15 146.465C602.528 153.924 607.476 159.803 613.994 164.054L615.733 161.388ZM602.05 145.152C598.886 138.163 597.019 130.008 596.484 120.655L593.306 120.837C593.858 130.502 595.794 139.055 599.15 146.465L602.05 145.152ZM595.31 122.283L615.686 116.781L614.856 113.708L594.48 119.209L595.31 122.283ZM613.683 115.355C614.097 121.285 614.994 127.015 616.376 132.543L619.464 131.771C618.13 126.431 617.26 120.886 616.859 115.134L613.683 115.355ZM616.385 132.579C617.935 138.215 620.422 142.936 623.882 146.685L626.221 144.525C623.161 141.21 620.893 136.965 619.455 131.735L616.385 132.579ZM623.903 146.707C627.533 150.488 632.54 152.291 638.704 152.291V149.107C633.185 149.107 629.091 147.514 626.2 144.503L623.903 146.707ZM638.704 152.291C644.963 152.291 649.94 150.577 653.325 146.884L650.979 144.733C648.387 147.561 644.398 149.107 638.704 149.107V152.291ZM653.323 146.887C656.802 143.106 658.43 137.846 658.43 131.342H655.247C655.247 137.335 653.751 141.72 650.98 144.731L653.323 146.887ZM658.43 131.342C658.43 123.637 656.678 117.287 653.013 112.449L650.476 114.372C653.602 118.499 655.247 124.104 655.247 131.342H658.43ZM653.027 112.468C649.554 107.744 645.196 103.046 639.969 98.3685L637.846 100.741C642.942 105.301 647.143 109.84 650.462 114.354L653.027 112.468ZM639.961 98.3612L612.249 73.9098L610.143 76.2971L637.854 100.749L639.961 98.3612ZM612.244 73.9054C606.949 69.272 603.091 64.2833 600.618 58.9482L597.73 60.2869C600.419 66.0908 604.576 71.4259 610.148 76.3015L612.244 73.9054ZM600.624 58.9614C598.162 53.5175 596.894 46.7598 596.894 38.6301H593.711C593.711 47.073 595.024 54.307 597.724 60.2737L600.624 58.9614ZM596.894 38.6301C596.894 26.8547 600.258 17.9416 606.797 11.6589L604.591 9.36303C597.275 16.3928 593.711 26.2257 593.711 38.6301H596.894ZM606.797 11.6589C613.36 5.35313 622.369 2.11851 634.017 2.11851V-1.06527C621.758 -1.06527 611.884 2.35633 604.591 9.36304L606.797 11.6589ZM634.017 2.11851C640.398 2.11851 645.913 2.98308 650.592 4.67278L651.674 1.67827C646.572 -0.163902 640.677 -1.06527 634.017 -1.06527V2.11851ZM650.642 4.68977C655.435 6.24419 659.336 8.68645 662.393 11.9982L664.732 9.83872C661.269 6.08674 656.884 3.36703 651.624 1.66129L650.642 4.68977ZM662.415 12.0218C665.627 15.3626 668.167 19.6374 670.007 24.8926L673.012 23.8409C671.048 18.2289 668.29 13.5381 664.71 9.81512L662.415 12.0218ZM670.024 24.9382C671.997 30.0694 673.331 36.1698 674 43.2623L677.169 42.9633C676.48 35.6567 675.097 29.2597 672.995 23.7953L670.024 24.9382ZM675.168 41.5763L655.607 46.8741L656.44 49.9472L676.001 44.6494L675.168 41.5763ZM657.611 48.2916C657.197 42.7735 656.367 37.7131 655.114 33.1172L652.042 33.9549C653.234 38.3245 654.035 43.1805 654.436 48.5297L657.611 48.2916ZM655.117 33.1287C653.826 28.2507 651.503 24.2885 648.102 21.3316L646.013 23.7341C648.862 26.2109 650.885 29.5841 652.039 33.9434L655.117 33.1287ZM648.157 21.3814C644.775 18.1531 639.974 16.662 634.017 16.662V19.8458C639.471 19.8458 643.364 21.2073 645.959 23.6844L648.157 21.3814ZM634.017 16.662C628.014 16.662 623.097 18.3131 619.467 21.7911L621.67 24.0897C624.561 21.319 628.609 19.8458 634.017 19.8458V16.662ZM619.469 21.7901C615.925 25.1793 614.29 30.1478 614.29 36.3887H617.474C617.474 30.6755 618.964 26.6786 621.669 24.0908L619.469 21.7901ZM614.29 36.3887C614.29 41.5735 615.129 45.9814 616.904 49.5301L619.751 48.1062C618.266 45.1346 617.474 41.2561 617.474 36.3887H614.29ZM616.928 49.5763C618.807 53.0462 621.729 56.5142 625.622 59.9899L627.742 57.615C624.028 54.2988 621.38 51.1105 619.727 48.06L616.928 49.5763ZM625.633 60L653.548 84.4514L655.646 82.0564L627.731 57.605L625.633 60ZM653.553 84.4552C659.673 89.7771 665.074 96.1742 669.752 103.659L672.452 101.971C667.621 94.2417 662.019 87.598 655.642 82.0527L653.553 84.4552ZM669.759 103.67C674.325 110.846 676.642 119.436 676.642 129.508H679.825C679.825 118.932 677.387 109.727 672.445 101.96L669.759 103.67ZM676.642 129.508C676.642 137.434 674.992 144.216 671.755 149.913L674.523 151.485C678.079 145.228 679.825 137.883 679.825 129.508H676.642ZM671.763 149.899C668.518 155.481 664.053 159.752 658.342 162.737L659.817 165.558C666.061 162.294 670.969 157.6 674.516 151.499L671.763 149.899ZM658.329 162.744C652.755 165.725 646.229 167.242 638.704 167.242V170.426C646.664 170.426 653.722 168.818 659.831 165.551L658.329 162.744Z" fill="#EAEAEA"/>
</svg>
