<svg width="64" height="64" viewBox="0 0 64 64" fill="none" xmlns="http://www.w3.org/2000/svg">
<path d="M26.6663 21.3333C26.3127 21.3333 25.9736 21.4738 25.7235 21.7239C25.4735 21.9739 25.333 22.313 25.333 22.6667V25.3333C25.333 25.687 25.4735 26.0261 25.7235 26.2761C25.9736 26.5262 26.3127 26.6667 26.6663 26.6667H29.333C29.6866 26.6667 30.0258 26.5262 30.2758 26.2761C30.5259 26.0261 30.6663 25.687 30.6663 25.3333V22.6667C30.6663 22.313 30.5259 21.9739 30.2758 21.7239C30.0258 21.4738 29.6866 21.3333 29.333 21.3333H26.6663ZM25.333 30.6667C25.333 30.313 25.4735 29.9739 25.7235 29.7239C25.9736 29.4738 26.3127 29.3333 26.6663 29.3333H29.333C29.6866 29.3333 30.0258 29.4738 30.2758 29.7239C30.5259 29.9739 30.6663 30.313 30.6663 30.6667V33.3333C30.6663 33.687 30.5259 34.0261 30.2758 34.2761C30.0258 34.5262 29.6866 34.6667 29.333 34.6667H26.6663C26.3127 34.6667 25.9736 34.5262 25.7235 34.2761C25.4735 34.0261 25.333 33.687 25.333 33.3333V30.6667ZM26.6663 37.3333C26.3127 37.3333 25.9736 37.4738 25.7235 37.7239C25.4735 37.9739 25.333 38.313 25.333 38.6667V41.3333C25.333 41.687 25.4735 42.0261 25.7235 42.2761C25.9736 42.5262 26.3127 42.6667 26.6663 42.6667H29.333C29.6866 42.6667 30.0258 42.5262 30.2758 42.2761C30.5259 42.0261 30.6663 41.687 30.6663 41.3333V38.6667C30.6663 38.313 30.5259 37.9739 30.2758 37.7239C30.0258 37.4738 29.6866 37.3333 29.333 37.3333H26.6663ZM33.333 22.6667C33.333 22.313 33.4735 21.9739 33.7235 21.7239C33.9736 21.4738 34.3127 21.3333 34.6663 21.3333H37.333C37.6866 21.3333 38.0258 21.4738 38.2758 21.7239C38.5259 21.9739 38.6663 22.313 38.6663 22.6667V25.3333C38.6663 25.687 38.5259 26.0261 38.2758 26.2761C38.0258 26.5262 37.6866 26.6667 37.333 26.6667H34.6663C34.3127 26.6667 33.9736 26.5262 33.7235 26.2761C33.4735 26.0261 33.333 25.687 33.333 25.3333V22.6667ZM34.6663 29.3333C34.3127 29.3333 33.9736 29.4738 33.7235 29.7239C33.4735 29.9739 33.333 30.313 33.333 30.6667V33.3333C33.333 33.687 33.4735 34.0261 33.7235 34.2761C33.9736 34.5262 34.3127 34.6667 34.6663 34.6667H37.333C37.6866 34.6667 38.0258 34.5262 38.2758 34.2761C38.5259 34.0261 38.6663 33.687 38.6663 33.3333V30.6667C38.6663 30.313 38.5259 29.9739 38.2758 29.7239C38.0258 29.4738 37.6866 29.3333 37.333 29.3333H34.6663ZM33.333 38.6667C33.333 38.313 33.4735 37.9739 33.7235 37.7239C33.9736 37.4738 34.3127 37.3333 34.6663 37.3333H37.333C37.6866 37.3333 38.0258 37.4738 38.2758 37.7239C38.5259 37.9739 38.6663 38.313 38.6663 38.6667V41.3333C38.6663 41.687 38.5259 42.0261 38.2758 42.2761C38.0258 42.5262 37.6866 42.6667 37.333 42.6667H34.6663C34.3127 42.6667 33.9736 42.5262 33.7235 42.2761C33.4735 42.0261 33.333 41.687 33.333 41.3333V38.6667Z" fill="#EEDFA8"/>
<path fill-rule="evenodd" clip-rule="evenodd" d="M17.333 8.45866C17.333 8.04301 17.4301 7.63312 17.6167 7.26168C17.8032 6.89024 18.074 6.56756 18.4074 6.31937C18.7408 6.07119 19.1276 5.90438 19.537 5.83226C19.9463 5.76014 20.3668 5.7847 20.765 5.90399L44.765 13.104C45.3146 13.2686 45.7964 13.6061 46.1389 14.0663C46.4814 14.5266 46.6664 15.085 46.6663 15.6587V21.8933L54.6557 26.4587C55.0638 26.6918 55.4031 27.0287 55.6391 27.4352C55.8751 27.8416 55.9995 28.3033 55.9997 28.7733V56H57.333C57.6866 56 58.0258 56.1405 58.2758 56.3905C58.5259 56.6406 58.6663 56.9797 58.6663 57.3333C58.6663 57.687 58.5259 58.0261 58.2758 58.2761C58.0258 58.5262 57.6866 58.6667 57.333 58.6667H6.66634C6.31272 58.6667 5.97358 58.5262 5.72353 58.2761C5.47348 58.0261 5.33301 57.687 5.33301 57.3333C5.33301 56.9797 5.47348 56.6406 5.72353 56.3905C5.97358 56.1405 6.31272 56 6.66634 56H7.99967V16C7.99967 15.2928 8.28063 14.6145 8.78072 14.1144C9.28082 13.6143 9.9591 13.3333 10.6663 13.3333H17.333V8.45866ZM53.333 56V28.7733L46.6663 24.9653V56H53.333ZM43.9997 22.64V56H37.333V49.3333C37.333 48.6261 37.0521 47.9478 36.552 47.4477C36.0519 46.9476 35.3736 46.6667 34.6663 46.6667H29.333C28.6258 46.6667 27.9475 46.9476 27.4474 47.4477C26.9473 47.9478 26.6663 48.6261 26.6663 49.3333V56H19.9997V8.45866L43.9997 15.6587V22.64ZM17.333 56H10.6663V16H17.333V56ZM29.333 56H34.6663V49.3333H29.333V56Z" fill="#EEDFA8"/>
</svg>
