<svg width="64" height="64" viewBox="0 0 64 64" fill="none" xmlns="http://www.w3.org/2000/svg">
<path d="M59.7333 40.7042V33.2433C59.7333 17.9511 47.2922 5.51001 31.9999 5.51001C16.7077 5.51001 4.2666 17.9511 4.2666 33.2433V40.7042C4.2666 40.728 4.26901 40.7512 4.27022 40.7747C4.2657 40.8482 4.26675 40.922 4.27308 40.9953L5.78033 57.1228C5.8578 57.9516 6.59258 58.5607 7.42142 58.4832C7.49452 58.4764 7.56701 58.4643 7.63831 58.4468L18.071 55.9022C27.224 53.6796 36.7759 53.6796 45.9288 55.9022L56.3616 58.4468C57.1702 58.6441 57.9858 58.1485 58.1831 57.3397C58.2004 57.2684 58.2126 57.1959 58.2195 57.1228L59.7268 40.9953C59.7331 40.9219 59.7342 40.8482 59.7297 40.7747C59.7309 40.7512 59.7333 40.728 59.7333 40.7042ZM55.3805 55.1046L46.6431 52.9735C37.021 50.6371 26.9795 50.6371 17.3573 52.9735L8.61998 55.1046L7.39791 42.0283L18.8302 39.4004C27.4983 37.4199 36.5015 37.4199 45.1697 39.4004L56.6026 42.0288L55.3805 55.1046ZM56.7188 38.9618L45.845 36.4622C36.7324 34.38 27.2675 34.38 18.1548 36.4622L7.28109 38.9618V33.2433C7.28109 19.6133 18.3699 8.5245 31.9999 8.5245C45.63 8.5245 56.7188 19.6133 56.7188 33.2433V38.9618Z" fill="#EEDFA8"/>
<path d="M40.2901 18.736H23.7104C22.8779 18.736 22.2031 19.4108 22.2031 20.2433V29.136C22.2031 29.9685 22.8779 30.6433 23.7104 30.6433H40.2901C41.1225 30.6433 41.7973 29.9685 41.7973 29.136V20.2433C41.7973 19.4108 41.1225 18.736 40.2901 18.736ZM38.7828 27.6288H25.2176V21.7505H38.7828V27.6288Z" fill="#EEDFA8"/>
</svg>
