<svg width="64" height="64" viewBox="0 0 64 64" fill="none" xmlns="http://www.w3.org/2000/svg">
<path d="M26.5063 37.4938C26.2663 37.2539 25.9408 37.1191 25.6014 37.1191C25.2619 37.1191 24.9364 37.2539 24.6964 37.4938L16.6401 45.5502V38.4001C16.6401 38.0606 16.5052 37.735 16.2652 37.495C16.0251 37.2549 15.6996 37.1201 15.3601 37.1201C15.0206 37.1201 14.695 37.2549 14.455 37.495C14.2149 37.735 14.0801 38.0606 14.0801 38.4001V48.6401C14.0801 48.9796 14.2149 49.3051 14.455 49.5452C14.695 49.7852 15.0206 49.9201 15.3601 49.9201H25.6001C25.9396 49.9201 26.2651 49.7852 26.5052 49.5452C26.7452 49.3051 26.8801 48.9796 26.8801 48.6401C26.8801 48.3006 26.7452 47.975 26.5052 47.735C26.2651 47.4949 25.9396 47.3601 25.6001 47.3601H18.45L26.5038 39.3063C26.6231 39.1876 26.7179 39.0465 26.7826 38.8911C26.8474 38.7356 26.8808 38.569 26.8811 38.4006C26.8813 38.2322 26.8483 38.0655 26.784 37.9099C26.7197 37.7543 26.6254 37.6129 26.5063 37.4938ZM49.129 14.1774C48.9736 14.1147 48.8077 14.0817 48.6401 14.0801H38.4001C38.0606 14.0801 37.735 14.2149 37.495 14.455C37.2549 14.695 37.1201 15.0206 37.1201 15.3601C37.1201 15.6996 37.2549 16.0251 37.495 16.2652C37.735 16.5052 38.0606 16.6401 38.4001 16.6401H45.5502L37.4964 24.6938C37.3774 24.8127 37.283 24.9538 37.2185 25.1091C37.154 25.2645 37.1208 25.431 37.1206 25.5992C37.1204 25.9388 37.2551 26.2647 37.4951 26.505C37.7351 26.7454 38.0608 26.8806 38.4005 26.8808C38.7401 26.881 39.066 26.7463 39.3063 26.5063L47.3601 18.45V25.6001C47.3601 25.9396 47.4949 26.2651 47.735 26.5052C47.975 26.7452 48.3006 26.8801 48.6401 26.8801C48.9796 26.8801 49.3051 26.7452 49.5452 26.5052C49.7852 26.2651 49.9201 25.9396 49.9201 25.6001V15.3601C49.9197 15.1069 49.8444 14.8594 49.7036 14.649C49.5628 14.4385 49.3629 14.2744 49.129 14.1774Z" fill="#EEDFA8"/>
<path d="M51.2004 6.40002H12.8004C11.1036 6.40206 9.47694 7.07699 8.27715 8.27679C7.07736 9.47658 6.40242 11.1033 6.40039 12.8V51.2C6.40039 54.7303 9.27271 57.6 12.8004 57.6H51.2004C54.7281 57.6 57.6004 54.7303 57.6004 51.2V12.8C57.6004 9.26978 54.7281 6.40002 51.2004 6.40002ZM55.0404 51.2C55.0404 53.3171 53.3175 55.04 51.2004 55.04H12.8004C10.6833 55.04 8.96039 53.3171 8.96039 51.2V12.8C8.96039 10.6829 10.6833 8.96002 12.8004 8.96002H51.2004C53.3175 8.96002 55.0404 10.6829 55.0404 12.8V51.2Z" fill="#EEDFA8"/>
</svg>
