<svg width="289" height="30" viewBox="0 0 289 30" fill="none" xmlns="http://www.w3.org/2000/svg">
<path d="M0.96 29V0.999998H5.2L17.48 21.44H15.2L27.28 0.999998H31.52L31.6 29H26.64L26.6 8.72H27.64L17.4 25.8H15.08L4.68 8.72H5.88V29H0.96ZM52.4356 29.4C50.249 29.4 48.2356 29.04 46.3956 28.32C44.5556 27.6 42.9556 26.6 41.5956 25.32C40.2356 24.0133 39.1823 22.4933 38.4356 20.76C37.689 19 37.3156 17.08 37.3156 15C37.3156 12.92 37.689 11.0133 38.4356 9.28C39.1823 7.52 40.2356 6 41.5956 4.72C42.9556 3.41333 44.5556 2.4 46.3956 1.68C48.2356 0.959999 50.2356 0.599998 52.3956 0.599998C54.5823 0.599998 56.5823 0.959999 58.3956 1.68C60.2356 2.4 61.8356 3.41333 63.1956 4.72C64.5556 6 65.609 7.52 66.3556 9.28C67.1023 11.0133 67.4756 12.92 67.4756 15C67.4756 17.08 67.1023 19 66.3556 20.76C65.609 22.52 64.5556 24.04 63.1956 25.32C61.8356 26.6 60.2356 27.6 58.3956 28.32C56.5823 29.04 54.5956 29.4 52.4356 29.4ZM52.3956 24.84C53.809 24.84 55.1156 24.6 56.3156 24.12C57.5156 23.64 58.5556 22.96 59.4356 22.08C60.3156 21.1733 60.9956 20.1333 61.4756 18.96C61.9823 17.76 62.2356 16.44 62.2356 15C62.2356 13.56 61.9823 12.2533 61.4756 11.08C60.9956 9.88 60.3156 8.84 59.4356 7.96C58.5556 7.05333 57.5156 6.36 56.3156 5.88C55.1156 5.4 53.809 5.16 52.3956 5.16C50.9823 5.16 49.6756 5.4 48.4756 5.88C47.3023 6.36 46.2623 7.05333 45.3556 7.96C44.4756 8.84 43.7823 9.88 43.2756 11.08C42.7956 12.2533 42.5556 13.56 42.5556 15C42.5556 16.4133 42.7956 17.72 43.2756 18.92C43.7823 20.12 44.4756 21.1733 45.3556 22.08C46.2356 22.96 47.2756 23.64 48.4756 24.12C49.6756 24.6 50.9823 24.84 52.3956 24.84ZM86.1047 29.4C83.9714 29.4 81.9847 29.0533 80.1447 28.36C78.3314 27.64 76.7447 26.64 75.3847 25.36C74.0514 24.0533 73.0114 22.52 72.2647 20.76C71.518 19 71.1447 17.08 71.1447 15C71.1447 12.92 71.518 11 72.2647 9.24C73.0114 7.48 74.0647 5.96 75.4247 4.68C76.7847 3.37333 78.3714 2.37333 80.1847 1.68C81.998 0.959999 83.9847 0.599998 86.1447 0.599998C88.438 0.599998 90.5314 0.999999 92.4247 1.8C94.318 2.57333 95.918 3.73333 97.2247 5.28L93.8647 8.44C92.8514 7.34667 91.718 6.53333 90.4647 6C89.2114 5.44 87.8514 5.16 86.3847 5.16C84.918 5.16 83.5714 5.4 82.3447 5.88C81.1447 6.36 80.0914 7.04 79.1847 7.92C78.3047 8.8 77.6114 9.84 77.1047 11.04C76.6247 12.24 76.3847 13.56 76.3847 15C76.3847 16.44 76.6247 17.76 77.1047 18.96C77.6114 20.16 78.3047 21.2 79.1847 22.08C80.0914 22.96 81.1447 23.64 82.3447 24.12C83.5714 24.6 84.918 24.84 86.3847 24.84C87.8514 24.84 89.2114 24.5733 90.4647 24.04C91.718 23.48 92.8514 22.64 93.8647 21.52L97.2247 24.72C95.918 26.24 94.318 27.4 92.4247 28.2C90.5314 29 88.4247 29.4 86.1047 29.4ZM114.467 29.4C112.28 29.4 110.267 29.04 108.427 28.32C106.587 27.6 104.987 26.6 103.627 25.32C102.267 24.0133 101.214 22.4933 100.467 20.76C99.7202 19 99.3469 17.08 99.3469 15C99.3469 12.92 99.7202 11.0133 100.467 9.28C101.214 7.52 102.267 6 103.627 4.72C104.987 3.41333 106.587 2.4 108.427 1.68C110.267 0.959999 112.267 0.599998 114.427 0.599998C116.614 0.599998 118.614 0.959999 120.427 1.68C122.267 2.4 123.867 3.41333 125.227 4.72C126.587 6 127.64 7.52 128.387 9.28C129.134 11.0133 129.507 12.92 129.507 15C129.507 17.08 129.134 19 128.387 20.76C127.64 22.52 126.587 24.04 125.227 25.32C123.867 26.6 122.267 27.6 120.427 28.32C118.614 29.04 116.627 29.4 114.467 29.4ZM114.427 24.84C115.84 24.84 117.147 24.6 118.347 24.12C119.547 23.64 120.587 22.96 121.467 22.08C122.347 21.1733 123.027 20.1333 123.507 18.96C124.014 17.76 124.267 16.44 124.267 15C124.267 13.56 124.014 12.2533 123.507 11.08C123.027 9.88 122.347 8.84 121.467 7.96C120.587 7.05333 119.547 6.36 118.347 5.88C117.147 5.4 115.84 5.16 114.427 5.16C113.014 5.16 111.707 5.4 110.507 5.88C109.334 6.36 108.294 7.05333 107.387 7.96C106.507 8.84 105.814 9.88 105.307 11.08C104.827 12.2533 104.587 13.56 104.587 15C104.587 16.4133 104.827 17.72 105.307 18.92C105.814 20.12 106.507 21.1733 107.387 22.08C108.267 22.96 109.307 23.64 110.507 24.12C111.707 24.6 113.014 24.84 114.427 24.84ZM135.296 29V0.999998H157.096V5.28H140.416V12.16H148.696C152.056 12.16 154.603 12.8667 156.336 14.28C158.096 15.6667 158.976 17.6933 158.976 20.36C158.976 23.1067 158.003 25.24 156.056 26.76C154.136 28.2533 151.416 29 147.896 29H135.296ZM140.416 25H147.616C149.616 25 151.136 24.6133 152.176 23.84C153.216 23.0667 153.736 21.9467 153.736 20.48C153.736 17.6 151.696 16.16 147.616 16.16H140.416V25ZM163.447 29.4C162.994 29.4 162.54 29.36 162.087 29.28C161.634 29.2 161.14 29.1067 160.607 29L160.967 24.48C161.34 24.5867 161.74 24.64 162.167 24.64C163.287 24.64 164.18 24.1867 164.847 23.28C165.514 22.3467 165.994 20.9867 166.287 19.2C166.58 17.4133 166.78 15.2133 166.887 12.6L167.287 0.999998H187.887V29H182.767V4.12L183.967 5.4H170.647L171.767 4.08L171.487 12.4C171.407 15.1733 171.22 17.6133 170.927 19.72C170.634 21.8267 170.18 23.6 169.567 25.04C168.98 26.4533 168.194 27.5333 167.207 28.28C166.22 29.0267 164.967 29.4 163.447 29.4ZM214.284 29L204.804 15.36L209.004 12.76L220.164 29H214.284ZM195.764 29V0.999998H200.884V29H195.764ZM199.324 17.2V12.72H208.764V17.2H199.324ZM209.484 15.6L204.724 14.96L214.284 0.999998H219.804L209.484 15.6ZM236.615 29.4C234.429 29.4 232.415 29.04 230.575 28.32C228.735 27.6 227.135 26.6 225.775 25.32C224.415 24.0133 223.362 22.4933 222.615 20.76C221.869 19 221.495 17.08 221.495 15C221.495 12.92 221.869 11.0133 222.615 9.28C223.362 7.52 224.415 6 225.775 4.72C227.135 3.41333 228.735 2.4 230.575 1.68C232.415 0.959999 234.415 0.599998 236.575 0.599998C238.762 0.599998 240.762 0.959999 242.575 1.68C244.415 2.4 246.015 3.41333 247.375 4.72C248.735 6 249.789 7.52 250.535 9.28C251.282 11.0133 251.655 12.92 251.655 15C251.655 17.08 251.282 19 250.535 20.76C249.789 22.52 248.735 24.04 247.375 25.32C246.015 26.6 244.415 27.6 242.575 28.32C240.762 29.04 238.775 29.4 236.615 29.4ZM236.575 24.84C237.989 24.84 239.295 24.6 240.495 24.12C241.695 23.64 242.735 22.96 243.615 22.08C244.495 21.1733 245.175 20.1333 245.655 18.96C246.162 17.76 246.415 16.44 246.415 15C246.415 13.56 246.162 12.2533 245.655 11.08C245.175 9.88 244.495 8.84 243.615 7.96C242.735 7.05333 241.695 6.36 240.495 5.88C239.295 5.4 237.989 5.16 236.575 5.16C235.162 5.16 233.855 5.4 232.655 5.88C231.482 6.36 230.442 7.05333 229.535 7.96C228.655 8.84 227.962 9.88 227.455 11.08C226.975 12.2533 226.735 13.56 226.735 15C226.735 16.4133 226.975 17.72 227.455 18.92C227.962 20.12 228.655 21.1733 229.535 22.08C230.415 22.96 231.455 23.64 232.655 24.12C233.855 24.6 235.162 24.84 236.575 24.84ZM257.444 29V0.999998H261.684L273.964 21.44H271.684L283.764 0.999998H288.004L288.084 29H283.124L283.084 8.72H284.124L273.884 25.8H271.564L261.164 8.72H262.364V29H257.444Z" fill="#EEDFA8"/>
</svg>
