<svg width="147" height="71" viewBox="0 0 147 71" fill="none" xmlns="http://www.w3.org/2000/svg">
<g clip-path="url(#clip0_742_1774)">
<path d="M39.0705 12.8283C37.567 6.23917 33.809 0.881342 33.3021 0.00634766C32.4852 1.23575 29.495 5.96663 27.9589 11.2162C26.3084 17.0666 26.0634 22.2586 26.6354 27.3721C27.2074 32.4856 29.3478 37.7349 29.3478 37.7349C30.4916 40.4942 32.2074 43.4473 33.3187 44.8982C34.9524 42.7643 38.711 36.3954 39.8877 28.0826C40.5408 23.4637 40.5574 19.4172 39.0705 12.8283ZM33.3021 43.2568C32.5669 41.8633 31.4231 39.2088 31.3087 35.1084C31.2759 31.1458 32.8611 27.7544 33.3187 27.0435C33.7271 27.7544 35.0998 30.7074 35.2632 34.7538C35.361 38.7181 34.054 41.8352 33.3023 43.257L33.3021 43.2568ZM38.6293 24.0101C38.5803 26.5233 38.2861 29.176 37.8941 30.7618C38.0411 28.0284 37.7143 24.1742 37.077 21.1653C36.4559 18.158 34.6913 13.1285 33.2695 10.8041C31.9624 13.0186 30.361 17.367 29.5114 21.1374C28.6777 24.9129 28.6454 29.4763 28.6454 30.8454C28.4165 29.6915 27.8609 25.5778 28.0242 21.4395C28.1551 18.0268 28.9394 14.5222 29.3806 12.9101C31.0472 7.52446 32.9266 4.08056 33.2695 3.53399C33.6292 4.08037 35.9985 8.3174 37.224 12.7739C38.4495 17.229 38.6946 21.4939 38.6293 24.0101Z" fill="#AFB7BB"/>
<path d="M35.8349 46.433H24.4455V54.1104C24.4619 54.1005 24.4783 54.0891 24.4783 54.0792C27.1582 51.3839 31.5211 51.3839 34.2008 54.0792C36.8806 56.7765 36.8806 61.1474 34.2008 63.8428C34.1846 63.8544 34.1846 63.8639 34.1682 63.8739V63.8772C34.1518 63.8903 34.1354 63.9002 34.1191 63.9133C31.4558 66.5826 27.9425 67.9187 24.4455 67.9187C20.9322 67.9187 17.4191 66.5729 14.7393 63.8804C10.0167 59.1349 9.46122 51.7942 13.0562 46.4328C13.5463 45.7089 14.102 45.0197 14.7393 44.3793C17.4191 41.6857 20.9322 40.3398 24.4455 40.3398V21.876C10.9483 21.876 0 32.8709 0 46.433C0 59.9935 10.9483 70.9884 24.4455 70.9884C31.4883 70.9884 37.8285 67.9976 42.2895 63.2161V46.433H35.8349ZM56.7347 66.6089C56.7347 68.3277 56.5222 70.9936 53.0906 70.9936H49.0383C45.623 70.9936 45.4107 68.3277 45.4107 66.6089V50.8243C45.4107 49.104 45.6232 46.4383 49.0383 46.4383H53.0906C56.5222 46.4383 56.7347 49.104 56.7347 50.8243V54.296H51.8324V50.2925C51.8324 49.8723 51.522 49.4864 51.0644 49.4864C50.7866 49.4864 50.2963 49.6607 50.2963 50.2925V67.0376C50.2963 67.6677 50.7866 67.8434 51.0644 67.8434C51.522 67.8434 51.8324 67.458 51.8324 67.0377V61.6631H51.0972V58.9611H56.7347V66.6089ZM64.0877 61.7683L64.9212 49.4962H65.1988L66.0484 61.7681H64.0877V61.7683ZM58.6792 70.9936H63.4668L63.9078 64.4703H66.2121L66.6697 70.9936H71.4573L68.908 46.4383H61.2283L58.679 70.9936M73.2713 67.9075L77.961 49.4962H73.7616V46.4383H82.9776V49.4896L78.3043 67.8451H83.2718V70.9936H73.2713V67.9075ZM90.4616 59.5798V49.4829H91.0827C91.6217 49.4829 91.9976 49.9377 91.9976 50.7106V58.3521C91.9976 59.1234 91.6217 59.5796 91.0827 59.5796H90.4616V59.5798ZM85.5594 70.9936H90.4616V62.645H93.2561C96.6713 62.645 96.8836 59.9791 96.8836 58.2603V50.8245C96.8836 49.1042 96.6711 46.4384 93.2561 46.4384H85.5596V70.9938M104.286 58.8467V49.4849H104.923C105.446 49.4849 105.822 49.9395 105.822 50.7112V57.6184C105.822 58.3904 105.446 58.8465 104.923 58.8465H104.286V58.8467ZM111.345 70.9936L108.943 61.4171C110.675 60.7161 110.708 59.1005 110.708 58.4358V50.8243C110.708 49.104 110.511 46.4383 107.08 46.4383H99.3999V70.9936H104.286V61.9078H104.645L106.312 70.9936H111.345ZM120.397 67.0377C120.397 67.4593 120.087 67.8453 119.629 67.8453C119.352 67.8453 118.861 67.6696 118.861 67.0377V50.2925C118.861 49.6607 119.352 49.4864 119.629 49.4864C120.087 49.4864 120.397 49.8723 120.397 50.2925V67.0376V67.0377ZM113.976 66.6089C113.976 68.3277 114.188 70.9936 117.62 70.9936H121.656C125.087 70.9936 125.3 68.3277 125.3 66.6089V50.8243C125.3 49.104 125.087 46.4383 121.656 46.4383H117.62C114.188 46.4383 113.976 49.104 113.976 50.8243V66.6089ZM140.643 46.4383H147V70.9936H142.114V55.5929H141.934L139.418 70.9936H135.513L132.996 55.5929H132.816V70.9936H127.93V46.4383H134.287L137.457 63.697L140.643 46.4383Z" fill="#AFB7BB"/>
</g>
<defs>
<clipPath id="clip0_742_1774">
<rect width="147" height="71" fill="white"/>
</clipPath>
</defs>
</svg>
