<svg width="242" height="74" viewBox="0 0 242 74" fill="none" xmlns="http://www.w3.org/2000/svg">
<g clip-path="url(#clip0_742_1787)">
<path fill-rule="evenodd" clip-rule="evenodd" d="M34.8426 0.463903C41.1241 0.168256 48.5559 1.50657 49.9385 5.94128C52.2075 13.2083 40.7068 23.8043 30.6834 29.0063C28.2272 30.2814 26.7386 30.6312 26.1183 30.5432C25.5252 30.462 25.4349 29.8707 25.6266 29.4644C25.9853 28.6994 27.6002 27.1421 29.7632 25.4518C41.0451 16.6342 44.7148 10.1661 42.5834 7.54365C41.2188 5.86455 35.4989 4.70001 29.5602 4.70001C27.9475 4.70001 23.7117 5.07239 23.2764 3.58062C22.9223 2.35515 28.6084 0.759551 34.8426 0.46616M21.5578 33.7863C26.9439 33.4704 33.4848 34.4115 37.1589 37.2258C38.1912 38.0168 38.9667 39.0954 39.3881 40.3262C39.8094 41.5569 39.8578 42.8848 39.5272 44.143C37.407 52.5092 29.4903 62.6334 11.9043 70.4128C6.31067 72.8863 1.91699 73.8319 0.99224 73.1684C-0.000173852 72.4552 2.88459 66.9327 3.75295 65.1001C6.56103 59.1646 10.0683 53.3871 13.4876 48.0948C14.7462 46.1471 16.6904 42.7708 18.4497 43.0394C20.0285 43.2831 18.1813 46.8715 16.9678 49.1555C14.9266 52.9831 9.30596 63.6219 11.16 64.2583C15.2582 65.6643 34.4884 51.0264 31.6533 42.8747C30.3384 39.0899 21.9886 38.7311 16.731 38.7311C14.3402 38.7311 9.1165 39.2953 8.82779 37.4627C8.51428 35.7701 16.7626 34.0707 21.5578 33.7863Z" fill="#AFB7BB"/>
<path fill-rule="evenodd" clip-rule="evenodd" d="M63.1468 24.822C66.3789 25.4065 69.0133 25.8602 69.62 27.2233C70.2967 28.7715 66.7781 28.864 65.0053 28.9024C56.5021 29.0671 51.3754 29.2342 51.1183 32.1252C50.7845 35.8467 54.7496 39.5908 58.6697 44.8448C62.2491 49.6406 66.3157 54.371 65.1429 58.7854C63.6836 64.2808 56.9487 65.4431 50.5364 65.4453C44.3924 65.4498 38.5733 64.4659 36.1306 63.9784C33.0857 63.3781 33.5368 61.8727 34.3488 61.3875C35.2555 60.8459 40.4318 60.8346 44.0293 60.6202C46.9908 60.4464 55.5909 60.4509 56.9307 58.246C58.5749 55.549 54.5489 50.9293 50.8521 46.0928C46.2419 40.058 41.1761 33.8291 43.8556 29.2793C47.3246 23.3912 57.4743 23.7951 63.1468 24.822ZM195.672 41.3241C202.502 41.3241 205.134 38.986 206.214 33.5831L207.832 25.1696C207.94 24.6054 207.604 24.4361 207.178 24.4361H203.873L202.967 29.277L202.448 31.8544L202.015 34.0932C201.41 37.1422 199.437 38.5166 196.092 38.5166C192.413 38.5166 191.427 37.176 192.005 34.0932C192.005 34.0932 192.147 33.3236 192.194 33.0934L192.957 29.2793L193.866 24.4361H190.561C190.133 24.4361 189.731 24.6054 189.623 25.1696L187.999 33.5854C186.892 39.5186 189.842 41.3241 195.672 41.3241ZM79.6817 50.4508C79.1855 52.7754 81.0057 53.8993 84.698 56.1922C88.733 58.6973 89.6555 58.8892 89.2833 60.2094C88.9856 61.2747 87.9278 61.3176 86.1099 61.3176H78.9171C78.1007 61.3176 77.627 61.6561 77.4849 62.385L77.1962 63.8588H86.2633C90.4134 63.8588 93.0139 63.6015 93.959 61.0648C94.4168 59.828 94.4123 58.5484 93.2936 57.2846C92.723 56.6414 91.8794 56.0749 90.7201 55.4204C85.537 52.4888 84.1837 52.1502 84.5107 50.7307C84.6957 49.9317 85.2483 49.9024 87.1948 49.9024H93.2756C94.0943 49.9024 94.5702 49.5661 94.7123 48.8372L95.01 47.2957H87.3188C82.9612 47.2957 80.3449 47.3228 79.6817 50.4508ZM119.667 50.4508C119.175 52.7754 120.991 53.8993 124.681 56.1922C128.72 58.6973 129.643 58.8892 129.269 60.2094C128.969 61.2747 127.911 61.3176 126.095 61.3176H118.905C118.088 61.3176 117.612 61.6561 117.47 62.385L117.184 63.8588H126.251C130.401 63.8588 132.999 63.6015 133.942 61.0648C134.407 59.828 134.402 58.5484 133.281 57.2846C132.708 56.6414 131.869 56.0749 130.703 55.4204C125.522 52.4888 124.171 52.1502 124.498 50.7307C124.679 49.9317 125.231 49.9024 127.182 49.9024H133.265C134.08 49.9024 134.558 49.5661 134.698 48.8372L135 47.2957H127.304C122.946 47.2957 120.332 47.3228 119.667 50.4508ZM221.001 50.4508C220.51 52.7754 222.328 53.8993 226.013 56.1922C230.055 58.6973 230.977 58.8892 230.601 60.2094C230.308 61.2747 229.247 61.3176 227.432 61.3176H220.239C219.423 61.3176 218.947 61.6561 218.805 62.385L218.52 63.8588H227.587C231.735 63.8588 234.334 63.6015 235.279 61.0648C235.741 59.828 235.734 58.5484 234.613 57.2846C234.045 56.6414 233.201 56.0749 232.037 55.4204C226.859 52.4888 225.503 52.1502 225.835 50.7307C226.015 49.9317 226.57 49.9024 228.519 49.9024H234.6C235.416 49.9024 235.89 49.5661 236.032 48.8372L236.334 47.2957H228.643C224.283 47.2957 221.667 47.3228 221.001 50.4508ZM161.166 38.16C161.626 36.921 161.621 35.6414 160.5 34.3798C159.93 33.7343 159.088 33.1724 157.925 32.5111C152.744 29.5795 151.39 29.2454 151.715 27.8259C151.9 27.0292 152.455 26.9954 154.406 26.9954H160.482C161.301 26.9954 161.777 26.6613 161.919 25.9346L162.219 24.3864H154.523C150.166 24.3864 147.549 24.4135 146.882 27.546C146.392 29.8683 148.21 30.9945 151.898 33.2875C155.935 35.7926 156.858 35.9821 156.488 37.3069C156.188 38.3721 155.13 38.4128 153.314 38.4128H146.124C145.305 38.4128 144.829 38.7513 144.687 39.4803L144.403 40.9562H153.47C157.616 40.9562 160.223 40.7012 161.166 38.16ZM141.85 38.16C142.308 36.921 142.303 35.6414 141.184 34.3798C140.611 33.7343 139.77 33.1724 138.609 32.5111C133.423 29.5795 132.074 29.2454 132.401 27.8259C132.582 27.0292 133.134 26.9954 135.09 26.9954H141.164C141.985 26.9954 142.461 26.6613 142.598 25.9346L142.903 24.3864H135.207C130.85 24.3864 128.236 24.4135 127.57 27.546C127.076 29.8683 128.896 30.9945 132.584 33.2875C136.621 35.7926 137.546 35.9821 137.174 37.3069C136.876 38.3721 135.816 38.4128 133.996 38.4128H126.812C125.991 38.4128 125.518 38.7513 125.373 39.4803L125.087 40.9562H134.154C138.304 40.9562 140.905 40.7012 141.85 38.16ZM226.178 24.4361C225.359 24.4361 224.899 24.7159 224.777 25.3343L224.452 26.9999H230.953L228.244 40.9562H231.158C231.979 40.9562 232.455 40.62 232.617 39.7827L235.103 26.9999H240.529C241.296 26.9999 241.567 26.6613 241.702 25.9888L242 24.4361H226.178ZM84.5288 29.0288C84.1183 29.0288 83.8093 29.3086 83.7552 29.5885L81.5448 40.9562H91.3246C96.8031 40.9562 100.599 38.9206 101.786 32.5901C102.667 27.8778 100.628 24.4361 95.0461 24.4361H83.2183L83.1687 24.6505C82.9026 25.7609 83.0424 26.9886 84.9122 26.9886H93.5101C97.6467 26.9886 98.2376 29.0581 97.4121 32.7029C96.6001 36.2823 95.186 38.1239 92.0802 38.406H86.1911L88.009 29.0288H84.5288ZM223.861 39.4103C224.003 38.6881 223.749 38.406 223.085 38.406H214.228L216.836 24.9958C216.887 24.7159 216.684 24.4361 216.328 24.4361H212.796L209.586 40.9562H223.559L223.861 39.4103ZM197.486 47.3431H193.746L186.506 53.7819L181.77 47.3431H178.03C177.416 47.3431 177.08 47.7313 176.952 48.4038L173.947 63.8588H177.123C177.789 63.8588 178.161 63.5248 178.28 62.9086L180.529 51.3423L184.178 56.5511C184.264 56.7066 184.39 56.8357 184.543 56.9244C184.697 57.0132 184.872 57.0581 185.049 57.0544H186.691C186.894 57.0454 187.092 56.9963 187.276 56.9099C187.459 56.8235 187.624 56.7015 187.76 56.5511L193.43 51.3423L191.182 62.9086C191.062 63.5248 191.303 63.8588 191.971 63.8588H195.145L198.151 48.4061C198.277 47.7313 198.101 47.3431 197.486 47.3431ZM157.927 48.4038L154.927 63.8588H170.181L170.503 62.2068C170.636 61.5342 170.472 61.3085 169.703 61.3085H159.569L160.428 56.8761H169.387C169.502 56.8796 169.614 56.842 169.703 56.7699C169.792 56.6979 169.853 56.5963 169.874 56.4834L170.217 54.7253C170.258 54.5041 170.138 54.3326 169.883 54.3326H160.922L161.784 49.9092H171.563C172.024 49.9092 172.481 49.9092 172.605 49.2908L172.98 47.3431H159.21C158.493 47.3431 158.069 47.6749 157.927 48.4038ZM203.226 48.4038L200.222 63.8588H215.482L215.798 62.2068C215.933 61.5342 215.769 61.3085 215.004 61.3085H204.866L205.727 56.8761H214.686C214.801 56.8805 214.913 56.8431 215.002 56.7709C215.091 56.6987 215.151 56.5965 215.171 56.4834L215.514 54.7253C215.559 54.5041 215.433 54.3326 215.182 54.3326H206.219L207.076 49.9092H216.858C217.32 49.9092 217.778 49.9092 217.896 49.2908L218.275 47.3431H204.505C203.788 47.3431 203.37 47.6749 203.226 48.4038ZM111.728 47.9006L110.262 55.4204C107.706 56.2058 101.077 57.6457 102.11 52.3263L103.08 47.3431H99.5954C99.1849 47.3431 98.8759 47.6185 98.8218 47.9006L97.9422 52.4368C96.2663 61.0625 104.429 59.8845 109.714 58.2618L108.624 63.8588H111.54C112.361 63.8588 112.835 63.5248 113.002 62.6852L115.979 47.3431H112.447C112.091 47.3431 111.78 47.6185 111.728 47.9006ZM155.31 48.8936L155.613 47.3431H139.795C138.976 47.3431 138.509 47.6207 138.392 48.2368L138.065 49.9024H144.565L141.859 63.8588H144.773C145.592 63.8588 146.065 63.5248 146.234 62.6852L148.715 49.9024H154.142C154.909 49.9024 155.18 49.5661 155.31 48.8913V48.8936ZM109.815 31.3804C110.433 28.1622 112.31 26.9954 115.657 26.9954C119.193 26.9954 120.123 28.3246 119.545 31.3804C119.545 31.3804 119.401 32.1432 119.351 32.3734C119.284 32.7165 119.126 33.6034 118.208 33.6034H109.384L109.815 31.3804ZM104.83 40.9562H107.954L108.863 36.1537H118.591L117.682 40.9562H120.806C121.217 40.9562 121.607 40.787 121.713 40.2273L123.337 31.886C124.53 25.5577 120.957 24.2127 116.142 24.2127C110.374 24.2127 107.084 25.6616 105.827 31.886L104.203 40.2273C104.097 40.787 104.418 40.9562 104.83 40.9562ZM170.485 31.3804C171.108 28.1622 172.98 26.9954 176.327 26.9954C179.866 26.9954 180.791 28.3246 180.218 31.3804C180.218 31.3804 180.073 32.1432 180.021 32.3734C179.952 32.7165 179.796 33.6034 178.88 33.6034H170.052L170.485 31.3804ZM165.503 40.9562H168.625L169.536 36.1537H179.261L178.352 40.9562H181.476C181.887 40.9562 182.277 40.787 182.385 40.2273L184.007 31.886C185.202 25.5577 181.63 24.2127 176.814 24.2127C171.045 24.2127 167.754 25.6616 166.495 31.886L164.876 40.2273C164.768 40.787 165.09 40.9562 165.503 40.9562Z" fill="#AFB7BB"/>
</g>
<defs>
<clipPath id="clip0_742_1787">
<rect width="242" height="74" fill="white"/>
</clipPath>
</defs>
</svg>
