<svg width="64" height="64" viewBox="0 0 64 64" fill="none" xmlns="http://www.w3.org/2000/svg">
<path d="M6.28037 23.9122C6.16265 23.7441 6.07949 23.5543 6.0357 23.3538C5.99191 23.1533 5.98837 22.9461 6.02528 22.7442C6.0622 22.5424 6.13883 22.3498 6.25074 22.1778C6.36264 22.0058 6.5076 21.8577 6.67718 21.7421L27.24 7.56237C28.7515 6.54401 30.5326 6 32.3551 6C34.1777 6 35.9588 6.54401 37.4703 7.56237L58.0331 21.7421C58.3718 21.9756 58.6039 22.3341 58.6783 22.7388C58.7528 23.1434 58.6634 23.561 58.4299 23.8998C58.1964 24.2385 57.8379 24.4706 57.4332 24.5451C57.0286 24.6195 56.611 24.5301 56.2722 24.2966L35.7156 10.1261C34.7236 9.45763 33.5545 9.1005 32.3582 9.1005C31.1619 9.1005 29.9929 9.45763 29.0008 10.1261L8.43803 24.309C8.27035 24.4248 8.0815 24.5064 7.88226 24.5491C7.68303 24.5918 7.47733 24.5948 7.27693 24.558C7.07652 24.5211 6.88535 24.4451 6.71436 24.3343C6.54336 24.2235 6.39588 24.08 6.28037 23.9122ZM58.7089 57.1326C58.7089 57.5437 58.5456 57.938 58.2549 58.2287C57.9642 58.5194 57.57 58.6827 57.1589 58.6827H7.55761C7.14651 58.6827 6.75225 58.5194 6.46156 58.2287C6.17087 57.938 6.00757 57.5437 6.00757 57.1326C6.00757 56.7215 6.17087 56.3273 6.46156 56.0366C6.75225 55.7459 7.14651 55.5826 7.55761 55.5826H13.7578V52.1973C12.8542 51.8779 12.0715 51.2871 11.5165 50.5057C10.9616 49.7244 10.6617 48.7907 10.6577 47.8324V42.9157C10.6561 42.3052 10.7756 41.7004 11.0092 41.1364C11.2428 40.5723 11.5859 40.0602 12.0186 39.6296L13.116 38.5322L11.1103 36.5295C10.9662 36.3854 10.8519 36.2143 10.7739 36.026C10.6959 35.8377 10.6557 35.6359 10.6557 35.4321C10.6557 35.2283 10.6959 35.0264 10.7739 34.8382C10.8519 34.6499 10.9662 34.4788 11.1103 34.3346C11.4014 34.0436 11.7961 33.8801 12.2077 33.8801C12.4115 33.8801 12.6133 33.9202 12.8016 33.9982C12.9899 34.0762 13.161 34.1905 13.3052 34.3346L14.8831 35.9157L19.2635 27.1518C19.6479 26.3777 20.2413 25.7267 20.9765 25.2725C21.7118 24.8183 22.5596 24.579 23.4238 24.5818H41.2927C42.1569 24.579 43.0046 24.8183 43.7399 25.2725C44.4752 25.7267 45.0686 26.3777 45.453 27.1518L49.8334 35.9157L51.4113 34.3346C51.7024 34.0436 52.0971 33.8801 52.5087 33.8801C52.9204 33.8801 53.3151 34.0436 53.6062 34.3346C53.8972 34.6257 54.0607 35.0205 54.0607 35.4321C54.0607 35.8437 53.8972 36.2384 53.6062 36.5295L51.6004 38.5322L52.6978 39.6296C53.1306 40.0602 53.4737 40.5723 53.7073 41.1364C53.9409 41.7004 54.0603 42.3052 54.0588 42.9157V47.8324C54.0548 48.7907 53.7548 49.7244 53.1999 50.5057C52.645 51.2871 51.8622 51.8779 50.9587 52.1973V55.5826H57.1589C57.57 55.5826 57.9642 55.7459 58.2549 56.0366C58.5456 56.3273 58.7089 56.7215 58.7089 57.1326ZM50.9587 42.9157C50.9586 42.5054 50.7958 42.1118 50.5061 41.8213L48.7669 40.0822H15.9495L14.2104 41.8213C13.9206 42.1118 13.7578 42.5054 13.7578 42.9157V47.8324C13.7578 48.2435 13.9211 48.6377 14.2118 48.9284C14.5024 49.2191 14.8967 49.3824 15.3078 49.3824H49.4087C49.8198 49.3824 50.214 49.2191 50.5047 48.9284C50.7954 48.6377 50.9587 48.2435 50.9587 47.8324V42.9157ZM17.8158 36.9821H46.9007L42.6784 28.5375C42.5495 28.2804 42.3517 28.0641 42.1069 27.913C41.8622 27.7619 41.5803 27.6819 41.2927 27.6819H23.4238C23.1362 27.6819 22.8542 27.7619 22.6095 27.913C22.3648 28.0641 22.1669 28.2804 22.0381 28.5375L17.8158 36.9821ZM23.058 55.5826V52.4825H16.8578V55.5826H23.058ZM38.5584 55.5826V52.4825H26.1581V55.5826H38.5584ZM47.8586 55.5826V52.4825H41.6585V55.5826H47.8586ZM21.508 43.1823H18.4079C17.9968 43.1823 17.6025 43.3456 17.3118 43.6363C17.0211 43.927 16.8578 44.3212 16.8578 44.7323C16.8578 45.1434 17.0211 45.5377 17.3118 45.8284C17.6025 46.119 17.9968 46.2823 18.4079 46.2823H21.508C21.9191 46.2823 22.3133 46.119 22.604 45.8284C22.8947 45.5377 23.058 45.1434 23.058 44.7323C23.058 44.3212 22.8947 43.927 22.604 43.6363C22.3133 43.3456 21.9191 43.1823 21.508 43.1823ZM46.3086 43.1823H43.2085C42.7974 43.1823 42.4031 43.3456 42.1125 43.6363C41.8218 43.927 41.6585 44.3212 41.6585 44.7323C41.6585 45.1434 41.8218 45.5377 42.1125 45.8284C42.4031 46.119 42.7974 46.2823 43.2085 46.2823H46.3086C46.7197 46.2823 47.1139 46.119 47.4046 45.8284C47.6953 45.5377 47.8586 45.1434 47.8586 44.7323C47.8586 44.3212 47.6953 43.927 47.4046 43.6363C47.1139 43.3456 46.7197 43.1823 46.3086 43.1823Z" fill="#EEDFA8"/>
</svg>
