<svg width="115" height="115" viewBox="0 0 115 115" fill="none" xmlns="http://www.w3.org/2000/svg">
<circle cx="57.5" cy="57.5" r="57.5" fill="white"/>
<path d="M75 57C75.5523 57 76 57.4477 76 58C76 58.5523 75.5523 59 75 59V57ZM40.2929 58.7071C39.9024 58.3166 39.9024 57.6834 40.2929 57.2929L46.6569 50.9289C47.0474 50.5384 47.6805 50.5384 48.0711 50.9289C48.4616 51.3195 48.4616 51.9526 48.0711 52.3431L42.4142 58L48.0711 63.6569C48.4616 64.0474 48.4616 64.6805 48.0711 65.0711C47.6805 65.4616 47.0474 65.4616 46.6569 65.0711L40.2929 58.7071ZM75 59L41 59V57L75 57V59Z" fill="#636E74"/>
</svg>
