<svg width="115" height="115" viewBox="0 0 115 115" fill="none" xmlns="http://www.w3.org/2000/svg">
<circle cx="57.5" cy="57.5" r="57.5" fill="white"/>
<path d="M41 57C40.4477 57 40 57.4477 40 58C40 58.5523 40.4477 59 41 59V57ZM75.7071 58.7071C76.0976 58.3166 76.0976 57.6834 75.7071 57.2929L69.3431 50.9289C68.9526 50.5384 68.3195 50.5384 67.9289 50.9289C67.5384 51.3195 67.5384 51.9526 67.9289 52.3431L73.5858 58L67.9289 63.6569C67.5384 64.0474 67.5384 64.6805 67.9289 65.0711C68.3195 65.4616 68.9526 65.4616 69.3431 65.0711L75.7071 58.7071ZM41 59L75 59V57L41 57V59Z" fill="#636E74"/>
</svg>
