<svg width="926" height="350" viewBox="0 0 926 350" fill="none" xmlns="http://www.w3.org/2000/svg">
<path opacity="0.1" d="M0.00700545 240L78.0926 66.4764H109.823L188.156 240H154.443L87.2646 83.5808H100.155L33.2244 240H0.00700545ZM35.9512 199.842L44.6274 174.557H138.33L147.006 199.842H35.9512ZM210.224 240V66.4764H291.533C312.355 66.4764 328.22 70.6079 339.128 78.8709C350.035 86.9687 355.488 97.8759 355.488 111.593C355.488 120.847 353.34 128.78 349.043 135.39C344.746 141.835 338.962 146.876 331.691 150.511C324.585 153.982 316.817 155.717 308.389 155.717L312.851 146.793C322.601 146.793 331.36 148.611 339.128 152.247C346.895 155.717 353.009 160.84 357.471 167.616C362.099 174.392 364.412 182.82 364.412 192.901C364.412 207.774 358.711 219.342 347.308 227.605C335.905 235.868 318.966 240 296.49 240H210.224ZM242.45 214.715H294.507C306.571 214.715 315.826 212.732 322.271 208.766C328.716 204.799 331.939 198.437 331.939 189.678C331.939 181.085 328.716 174.805 322.271 170.838C315.826 166.707 306.571 164.641 294.507 164.641H239.971V139.604H288.062C299.3 139.604 307.893 137.621 313.843 133.655C319.957 129.689 323.015 123.739 323.015 115.807C323.015 107.709 319.957 101.677 313.843 97.7106C307.893 93.7444 299.3 91.7612 288.062 91.7612H242.45V214.715ZM480.114 242.479C466.562 242.479 454.085 240.248 442.682 235.786C431.279 231.324 421.363 225.127 412.935 217.194C404.507 209.096 397.979 199.676 393.352 188.934C388.724 178.027 386.411 166.129 386.411 153.238C386.411 140.348 388.724 128.532 393.352 117.79C397.979 106.883 404.507 97.4627 412.935 89.5302C421.363 81.4325 431.279 75.1526 442.682 70.6905C454.085 66.2285 466.48 63.9975 479.866 63.9975C493.417 63.9975 505.812 66.2285 517.049 70.6905C528.452 75.1526 538.368 81.4325 546.796 89.5302C555.225 97.4627 561.752 106.883 566.38 117.79C571.007 128.532 573.321 140.348 573.321 153.238C573.321 166.129 571.007 178.027 566.38 188.934C561.752 199.842 555.225 209.262 546.796 217.194C538.368 225.127 528.452 231.324 517.049 235.786C505.812 240.248 493.5 242.479 480.114 242.479ZM479.866 214.219C488.624 214.219 496.722 212.732 504.159 209.757C511.596 206.783 518.041 202.568 523.494 197.115C528.948 191.496 533.162 185.051 536.137 177.779C539.277 170.343 540.847 162.162 540.847 153.238C540.847 144.314 539.277 136.216 536.137 128.945C533.162 121.508 528.948 115.063 523.494 109.609C518.041 103.991 511.596 99.6938 504.159 96.7191C496.722 93.7444 488.624 92.257 479.866 92.257C471.107 92.257 463.009 93.7444 455.572 96.7191C448.301 99.6938 441.856 103.991 436.237 109.609C430.783 115.063 426.486 121.508 423.347 128.945C420.372 136.216 418.885 144.314 418.885 153.238C418.885 161.997 420.372 170.095 423.347 177.531C426.486 184.968 430.783 191.496 436.237 197.115C441.69 202.568 448.136 206.783 455.572 209.757C463.009 212.732 471.107 214.219 479.866 214.219ZM682.094 242.479C658.297 242.479 639.622 235.786 626.071 222.4C612.685 209.014 605.992 189.678 605.992 164.393V66.4764H638.218V163.154C638.218 181.002 642.019 193.975 649.621 202.073C657.388 210.17 668.295 214.219 682.342 214.219C696.389 214.219 707.214 210.17 714.816 202.073C722.418 193.975 726.219 181.002 726.219 163.154V66.4764H757.949V164.393C757.949 189.678 751.173 209.014 737.622 222.4C724.236 235.786 705.727 242.479 682.094 242.479ZM835.134 240V93.7444H777.623V66.4764H924.87V93.7444H867.36V240H835.134Z" fill="#EAEAEA"/>
<circle cx="481" cy="152" r="34" fill="#636E74"/>
<path d="M490.444 152.315L476.75 160.221L476.75 144.408L490.444 152.315Z" fill="#EEDFA8"/>
<path d="M418.39 317.18C417.244 317.18 416.35 316.94 415.71 316.46C415.084 315.98 414.644 315.333 414.39 314.52C414.15 313.707 414.03 312.8 414.03 311.8V306.08C414.03 304.987 414.15 304.033 414.39 303.22C414.644 302.407 415.084 301.78 415.71 301.34C416.35 300.887 417.244 300.66 418.39 300.66C419.404 300.66 420.204 300.847 420.79 301.22C421.39 301.593 421.817 302.127 422.07 302.82C422.337 303.513 422.47 304.347 422.47 305.32V306.6H420.33V305.46C420.33 304.86 420.297 304.333 420.23 303.88C420.177 303.413 420.017 303.053 419.75 302.8C419.484 302.547 419.037 302.42 418.41 302.42C417.77 302.42 417.304 302.56 417.01 302.84C416.717 303.107 416.524 303.493 416.43 304C416.35 304.493 416.31 305.073 416.31 305.74V312.16C416.31 312.973 416.377 313.62 416.51 314.1C416.644 314.567 416.864 314.9 417.17 315.1C417.477 315.3 417.89 315.4 418.41 315.4C419.024 315.4 419.464 315.267 419.73 315C419.997 314.72 420.164 314.34 420.23 313.86C420.297 313.38 420.33 312.82 420.33 312.18V310.98H422.47V312.18C422.47 313.167 422.35 314.04 422.11 314.8C421.87 315.547 421.457 316.133 420.87 316.56C420.284 316.973 419.457 317.18 418.39 317.18ZM424.583 317L424.883 300.8H427.103L429.963 313.94L432.843 300.8H435.043L435.343 317H433.523L433.343 305.24L430.603 317H429.323L426.603 305.24L426.423 317H424.583ZM441.966 317.18C440.873 317.18 440 316.967 439.346 316.54C438.693 316.113 438.226 315.507 437.946 314.72C437.666 313.92 437.526 312.987 437.526 311.92V305.78C437.526 304.713 437.666 303.8 437.946 303.04C438.24 302.267 438.706 301.68 439.346 301.28C440 300.867 440.873 300.66 441.966 300.66C443.06 300.66 443.926 300.867 444.566 301.28C445.206 301.693 445.666 302.28 445.946 303.04C446.24 303.8 446.386 304.713 446.386 305.78V311.94C446.386 312.993 446.24 313.913 445.946 314.7C445.666 315.487 445.206 316.1 444.566 316.54C443.926 316.967 443.06 317.18 441.966 317.18ZM441.966 315.4C442.566 315.4 443.02 315.28 443.326 315.04C443.633 314.787 443.84 314.44 443.946 314C444.053 313.547 444.106 313.02 444.106 312.42V305.32C444.106 304.72 444.053 304.207 443.946 303.78C443.84 303.34 443.633 303.007 443.326 302.78C443.02 302.54 442.566 302.42 441.966 302.42C441.366 302.42 440.906 302.54 440.586 302.78C440.28 303.007 440.073 303.34 439.966 303.78C439.86 304.207 439.806 304.72 439.806 305.32V312.42C439.806 313.02 439.86 313.547 439.966 314C440.073 314.44 440.28 314.787 440.586 315.04C440.906 315.28 441.366 315.4 441.966 315.4ZM450.388 317V302.48H447.648V300.8H455.308V302.48H452.648V317H450.388ZM456.869 317V300.8H460.889C461.863 300.8 462.636 300.98 463.209 301.34C463.796 301.687 464.223 302.193 464.489 302.86C464.756 303.527 464.889 304.333 464.889 305.28C464.889 306.133 464.736 306.873 464.429 307.5C464.136 308.127 463.696 308.613 463.109 308.96C462.523 309.293 461.789 309.46 460.909 309.46H459.129V317H456.869ZM459.129 307.84H460.169C460.823 307.84 461.336 307.767 461.709 307.62C462.083 307.473 462.349 307.22 462.509 306.86C462.669 306.487 462.749 305.967 462.749 305.3C462.749 304.527 462.689 303.933 462.569 303.52C462.463 303.107 462.229 302.82 461.869 302.66C461.509 302.5 460.949 302.42 460.189 302.42H459.129V307.84ZM466.479 317V300.8H472.759V302.48H468.739V307.84H471.999V309.44H468.739V315.38H472.799V317H466.479ZM476.403 317V302.48H473.663V300.8H481.323V302.48H478.663V317H476.403ZM482.885 317V300.8H485.145V307.54H485.785C486.958 307.54 487.925 307.68 488.685 307.96C489.445 308.227 490.012 308.7 490.385 309.38C490.772 310.06 490.965 311.02 490.965 312.26C490.965 313.1 490.865 313.82 490.665 314.42C490.465 315.007 490.152 315.493 489.725 315.88C489.312 316.267 488.785 316.553 488.145 316.74C487.518 316.913 486.765 317 485.885 317H482.885ZM485.145 315.38H485.885C486.565 315.38 487.118 315.307 487.545 315.16C487.985 315 488.312 314.693 488.525 314.24C488.738 313.787 488.845 313.12 488.845 312.24C488.845 311.133 488.632 310.347 488.205 309.88C487.778 309.413 486.992 309.18 485.845 309.18H485.145V315.38ZM497.338 317V300.8H501.058C501.791 300.8 502.425 300.88 502.958 301.04C503.505 301.2 503.958 301.447 504.318 301.78C504.678 302.113 504.945 302.54 505.118 303.06C505.291 303.567 505.378 304.167 505.378 304.86C505.378 305.527 505.291 306.107 505.118 306.6C504.958 307.08 504.705 307.46 504.358 307.74C504.025 308.02 503.591 308.2 503.058 308.28C503.711 308.427 504.238 308.68 504.638 309.04C505.038 309.387 505.331 309.84 505.518 310.4C505.718 310.947 505.818 311.607 505.818 312.38C505.818 313.073 505.738 313.707 505.578 314.28C505.418 314.853 505.165 315.34 504.818 315.74C504.485 316.14 504.051 316.453 503.518 316.68C502.998 316.893 502.378 317 501.658 317H497.338ZM499.598 315.38H501.118C502.131 315.38 502.805 315.147 503.138 314.68C503.485 314.2 503.658 313.433 503.658 312.38C503.658 311.7 503.565 311.133 503.378 310.68C503.205 310.213 502.918 309.867 502.518 309.64C502.131 309.4 501.605 309.28 500.938 309.28H499.598V315.38ZM499.598 307.56H500.938C501.578 307.56 502.078 307.473 502.438 307.3C502.798 307.113 503.051 306.82 503.198 306.42C503.345 306.02 503.418 305.5 503.418 304.86C503.418 304.113 503.305 303.573 503.078 303.24C502.851 302.907 502.498 302.7 502.018 302.62C501.538 302.527 500.911 302.48 500.138 302.48H499.598V307.56ZM507.826 317V300.8H509.826V312.02L514.566 300.8H516.186V317H514.206V305.6L509.506 317H507.826ZM517.685 319.94V315.38H518.425C518.652 315.193 518.872 314.967 519.085 314.7C519.312 314.433 519.518 314.087 519.705 313.66C519.905 313.22 520.085 312.66 520.245 311.98C520.405 311.287 520.545 310.42 520.665 309.38C520.798 308.34 520.898 307.08 520.965 305.6L521.225 300.8H528.005V315.38H529.565V319.94H527.825L527.645 317H519.605L519.425 319.94H517.685ZM520.525 315.38H525.765V302.48H523.145L522.985 306.14C522.932 307.58 522.845 308.793 522.725 309.78C522.618 310.753 522.485 311.56 522.325 312.2C522.178 312.827 522.005 313.34 521.805 313.74C521.618 314.127 521.412 314.44 521.185 314.68C520.972 314.92 520.752 315.153 520.525 315.38ZM531.264 317V300.8H537.544V302.48H533.524V307.84H536.784V309.44H533.524V315.38H537.584V317H531.264ZM543.548 317.18C542.455 317.18 541.582 316.967 540.928 316.54C540.275 316.113 539.808 315.507 539.528 314.72C539.248 313.92 539.108 312.987 539.108 311.92V305.78C539.108 304.713 539.248 303.8 539.528 303.04C539.822 302.267 540.288 301.68 540.928 301.28C541.582 300.867 542.455 300.66 543.548 300.66C544.642 300.66 545.508 300.867 546.148 301.28C546.788 301.693 547.248 302.28 547.528 303.04C547.822 303.8 547.968 304.713 547.968 305.78V311.94C547.968 312.993 547.822 313.913 547.528 314.7C547.248 315.487 546.788 316.1 546.148 316.54C545.508 316.967 544.642 317.18 543.548 317.18ZM543.548 315.4C544.148 315.4 544.602 315.28 544.908 315.04C545.215 314.787 545.422 314.44 545.528 314C545.635 313.547 545.688 313.02 545.688 312.42V305.32C545.688 304.72 545.635 304.207 545.528 303.78C545.422 303.34 545.215 303.007 544.908 302.78C544.602 302.54 544.148 302.42 543.548 302.42C542.948 302.42 542.488 302.54 542.168 302.78C541.862 303.007 541.655 303.34 541.548 303.78C541.442 304.207 541.388 304.72 541.388 305.32V312.42C541.388 313.02 541.442 313.547 541.548 314C541.655 314.44 541.862 314.787 542.168 315.04C542.488 315.28 542.948 315.4 543.548 315.4ZM434.505 345.18C433.412 345.18 432.539 344.967 431.885 344.54C431.232 344.113 430.765 343.507 430.485 342.72C430.205 341.92 430.065 340.987 430.065 339.92V333.78C430.065 332.713 430.205 331.8 430.485 331.04C430.779 330.267 431.245 329.68 431.885 329.28C432.539 328.867 433.412 328.66 434.505 328.66C435.599 328.66 436.465 328.867 437.105 329.28C437.745 329.693 438.205 330.28 438.485 331.04C438.779 331.8 438.925 332.713 438.925 333.78V339.94C438.925 340.993 438.779 341.913 438.485 342.7C438.205 343.487 437.745 344.1 437.105 344.54C436.465 344.967 435.599 345.18 434.505 345.18ZM434.505 343.4C435.105 343.4 435.559 343.28 435.865 343.04C436.172 342.787 436.379 342.44 436.485 342C436.592 341.547 436.645 341.02 436.645 340.42V333.32C436.645 332.72 436.592 332.207 436.485 331.78C436.379 331.34 436.172 331.007 435.865 330.78C435.559 330.54 435.105 330.42 434.505 330.42C433.905 330.42 433.445 330.54 433.125 330.78C432.819 331.007 432.612 331.34 432.505 331.78C432.399 332.207 432.345 332.72 432.345 333.32V340.42C432.345 341.02 432.399 341.547 432.505 342C432.612 342.44 432.819 342.787 433.125 343.04C433.445 343.28 433.905 343.4 434.505 343.4ZM445.717 345V328.8H447.977V336H448.817L451.717 328.8H453.977L450.777 336.5L454.377 345H452.117L448.837 337.1H447.977V345H445.717ZM460.013 345.18C458.92 345.18 458.047 344.967 457.393 344.54C456.74 344.113 456.273 343.507 455.993 342.72C455.713 341.92 455.573 340.987 455.573 339.92V333.78C455.573 332.713 455.713 331.8 455.993 331.04C456.287 330.267 456.753 329.68 457.393 329.28C458.047 328.867 458.92 328.66 460.013 328.66C461.107 328.66 461.973 328.867 462.613 329.28C463.253 329.693 463.713 330.28 463.993 331.04C464.287 331.8 464.433 332.713 464.433 333.78V339.94C464.433 340.993 464.287 341.913 463.993 342.7C463.713 343.487 463.253 344.1 462.613 344.54C461.973 344.967 461.107 345.18 460.013 345.18ZM460.013 343.4C460.613 343.4 461.067 343.28 461.373 343.04C461.68 342.787 461.887 342.44 461.993 342C462.1 341.547 462.153 341.02 462.153 340.42V333.32C462.153 332.72 462.1 332.207 461.993 331.78C461.887 331.34 461.68 331.007 461.373 330.78C461.067 330.54 460.613 330.42 460.013 330.42C459.413 330.42 458.953 330.54 458.633 330.78C458.327 331.007 458.12 331.34 458.013 331.78C457.907 332.207 457.853 332.72 457.853 333.32V340.42C457.853 341.02 457.907 341.547 458.013 342C458.12 342.44 458.327 342.787 458.633 343.04C458.953 343.28 459.413 343.4 460.013 343.4ZM466.615 345L466.915 328.8H469.135L471.995 341.94L474.875 328.8H477.075L477.375 345H475.555L475.375 333.24L472.635 345H471.355L468.635 333.24L468.455 345H466.615ZM479.858 345V328.8H488.778V345H486.518V330.42H482.118V345H479.858ZM490.423 345L493.863 328.8H496.043L499.503 345H497.363L496.623 340.92H493.323L492.543 345H490.423ZM493.623 339.3H496.323L494.963 332L493.623 339.3ZM501.147 345V328.8H503.407V335.8H507.567V328.8H509.827V345H507.567V337.42H503.407V345H501.147ZM512.358 345V328.8H514.358V340.02L519.098 328.8H520.718V345H518.738V333.6L514.038 345H512.358ZM523.256 345V328.8H525.256V340.02L529.996 328.8H531.616V345H529.636V333.6L524.936 345H523.256Z" fill="white"/>
</svg>
