<svg width="212" height="52" viewBox="0 0 212 52" fill="none" xmlns="http://www.w3.org/2000/svg">
<g clip-path="url(#clip0_742_1779)">
<path d="M18.1373 0.112061H29.0502V51.7913H18.1373V0.112061ZM0 12.3812H0.977797C1.72584 9.82815 2.55456 7.73037 3.46397 6.08788C4.37337 4.4454 5.40139 3.15928 6.54804 2.22953C7.69611 1.30643 9.03074 0.640782 10.4608 0.278011C10.751 0.20461 11.0844 0.171101 11.3905 0.118443H0V12.3812ZM59.2914 31.1863C57.9427 29.3838 56.1952 27.9145 54.1844 26.8924C52.0259 25.7965 49.7143 25.0294 47.327 24.6169C45.4095 24.2786 43.4705 24.0755 41.5243 24.009L42.3643 23.9898C43.853 23.7848 45.3243 23.4695 46.766 23.0468C48.5164 22.5553 50.1981 21.8477 51.772 20.9405C53.3545 20.0413 54.7473 18.846 55.8739 17.4204C57.0024 15.9939 57.5666 14.2386 57.5666 12.1547C57.5666 9.83347 56.9895 7.89845 55.8354 6.34957C54.6736 4.79555 53.1673 3.52926 51.4337 2.64919C49.5739 1.70604 47.5821 1.04657 45.5253 0.692888C43.4888 0.319634 41.423 0.127395 39.3523 0.118443C38.7496 0.118443 38.1629 0.143974 37.5634 0.150357V0.332264C39.0365 0.405666 40.3349 0.608317 41.348 1.02319C42.525 1.48965 43.5345 2.29671 44.2461 3.34012C44.9471 4.37731 45.4483 5.69268 45.7497 7.28624C46.051 8.87979 46.2017 10.7898 46.2017 13.0163C46.2017 13.0546 46.2017 13.0913 46.1937 13.1296C46.1926 14.4368 46.1075 15.7426 45.9388 17.039C45.7929 18.0666 45.4674 19.0608 44.9771 19.9767C44.8761 20.1698 44.8088 20.3836 44.6917 20.5687C44.0399 21.6059 43.0621 22.4276 41.7584 23.034C40.6844 23.5334 39.2738 23.8159 37.5586 23.9052V24.1605C39.5094 24.2084 41.1765 24.4685 42.4765 25.0015C43.8439 25.5408 45.0168 26.4771 45.8427 27.6886C46.657 28.8917 47.2394 30.4183 47.5899 32.2682C47.9404 34.1181 48.1146 36.3345 48.1124 38.9174V39.0466C48.1105 40.5636 48.0115 42.0788 47.8159 43.5832C47.6485 44.7757 47.2725 45.9298 46.705 46.9931C46.588 47.2181 46.5095 47.4718 46.3748 47.6793C45.6161 48.8835 44.4812 49.8372 42.9702 50.5403C41.6189 51.1706 39.8012 51.4977 37.5715 51.5711V51.7913L41.2855 51.7052C43.3162 51.6739 45.3371 51.4181 47.311 50.9424C47.7806 50.826 48.2727 50.6967 48.7761 50.5547C50.8055 49.9842 52.7553 49.1635 54.5803 48.1117C56.4156 47.0684 58.0311 45.6818 59.3379 44.0284C60.6469 42.372 61.302 40.3365 61.3031 37.9217C61.3009 35.2282 60.6304 32.9831 59.2914 31.1863ZM87.7212 44.6283C87.4679 44.2835 87.1302 44.0088 86.7402 43.8305C86.3592 43.656 85.9447 43.5656 85.5252 43.5656C85.06 43.5607 84.5998 43.6622 84.1803 43.8624C83.7766 44.0552 83.4158 44.3265 83.1192 44.6603C82.8172 45.0008 82.5813 45.3941 82.4235 45.8203C82.2587 46.2608 82.1751 46.7273 82.1766 47.1974C82.1718 47.6849 82.2554 48.1692 82.4235 48.6271C82.5788 49.0493 82.8126 49.4385 83.1128 49.7744C83.5927 50.2874 84.2237 50.6355 84.915 50.7689C85.6062 50.9022 86.3222 50.8138 86.9598 50.5164C87.3906 50.2984 87.7677 49.9883 88.0643 49.6085L88.8449 50.2627C88.4762 50.7668 87.9825 51.1671 87.4119 51.4243C86.8147 51.6793 86.1701 51.8055 85.5204 51.7945C84.9152 51.7986 84.3154 51.6809 83.7571 51.4483C83.2242 51.227 82.7412 50.9014 82.3369 50.4909C81.9297 50.074 81.6094 49.581 81.3944 49.0404C81.1629 48.4515 81.0491 47.8233 81.0594 47.191C81.0552 46.5748 81.1666 45.9633 81.388 45.3879C81.7078 44.5571 82.276 43.8441 83.0158 43.345C83.7557 42.8459 84.6316 42.5848 85.5252 42.597C86.1131 42.5943 86.6962 42.7026 87.2436 42.9162C87.794 43.1302 88.2732 43.4934 88.6269 43.9645L87.7212 44.6283ZM91.2317 42.8268H92.2736V50.6058H96.2922V51.5632H91.2317V42.8268ZM101.216 42.8268H102.197L105.931 51.5695H104.714L103.821 49.425H99.4308L98.5251 51.5743H97.3469L101.216 42.8268ZM101.688 44.1608H101.664L99.8395 48.4564H103.425L101.688 44.1608ZM108.027 42.8268H109.068V51.5695H108.027V42.8268ZM112.182 42.8268H113.729L116.704 49.6787H116.73L119.732 42.8268H121.245V51.5695H120.203V44.2294H120.178L117.028 51.5695H116.387L113.235 44.2294H113.211V51.5695H112.169L112.182 42.8268ZM128.531 44.3698C128.368 44.0996 128.126 43.886 127.837 43.7587C127.552 43.6321 127.243 43.5668 126.931 43.5672C126.701 43.5669 126.472 43.5959 126.25 43.6534C126.036 43.7062 125.832 43.7941 125.647 43.9135C125.469 44.0283 125.322 44.185 125.219 44.3698C125.108 44.5745 125.053 44.8044 125.059 45.0368C125.056 45.2161 125.087 45.3943 125.152 45.5618C125.219 45.7214 125.324 45.8629 125.456 45.9751C125.628 46.1179 125.82 46.2341 126.027 46.3198C126.314 46.4444 126.608 46.551 126.908 46.6389C127.246 46.7453 127.575 46.8607 127.894 46.9852C128.197 47.0995 128.481 47.2576 128.737 47.4543C128.982 47.6448 129.181 47.8867 129.321 48.1628C129.569 48.6697 129.632 49.2469 129.498 49.7949C129.364 50.3429 129.043 50.8272 128.588 51.1642C128.292 51.3796 127.957 51.5386 127.603 51.6334C127.227 51.739 126.839 51.7927 126.448 51.7929C126.19 51.7931 125.933 51.7701 125.679 51.7243C125.427 51.6802 125.18 51.6102 124.942 51.5153C124.706 51.4197 124.483 51.2954 124.278 51.1451C124.069 50.9897 123.888 50.7991 123.744 50.5818L124.637 49.8542C124.824 50.1716 125.104 50.4252 125.439 50.5818C125.774 50.7467 126.143 50.8314 126.517 50.8291C126.746 50.8289 126.973 50.7956 127.192 50.7302C127.412 50.668 127.62 50.5705 127.808 50.4414C127.988 50.3143 128.14 50.1513 128.253 49.9627C128.372 49.7654 128.433 49.5386 128.428 49.3085C128.437 49.0805 128.39 48.8539 128.292 48.6479C128.19 48.4693 128.045 48.319 127.87 48.2106C127.645 48.0706 127.403 47.9586 127.151 47.8771L126.133 47.5309C125.835 47.4383 125.545 47.3248 125.264 47.191C125.011 47.0715 124.779 46.9132 124.576 46.7219C124.379 46.5332 124.223 46.3061 124.118 46.0549C124.001 45.7583 123.947 45.4412 123.957 45.123C123.946 44.7586 124.023 44.3967 124.183 44.0687C124.343 43.7407 124.581 43.4564 124.876 43.2401C125.165 43.0245 125.491 42.8624 125.838 42.7614C126.649 42.5251 127.515 42.5491 128.313 42.83C128.741 42.9968 129.119 43.2718 129.409 43.6278L128.531 44.3698ZM140.737 44.3698C140.575 44.0996 140.332 43.886 140.043 43.7587C139.758 43.6321 139.449 43.5668 139.137 43.5672C138.907 43.5669 138.679 43.5959 138.456 43.6534C138.242 43.7062 138.038 43.7941 137.853 43.9135C137.675 44.0283 137.528 44.185 137.425 44.3698C137.315 44.5745 137.259 44.8044 137.265 45.0368C137.262 45.2161 137.294 45.3943 137.358 45.5618C137.426 45.7214 137.53 45.8629 137.663 45.9751C137.834 46.1179 138.027 46.2341 138.233 46.3198C138.52 46.4441 138.815 46.5507 139.115 46.6389C139.454 46.7453 139.782 46.8607 140.101 46.9852C140.403 47.0995 140.687 47.2576 140.944 47.4543C141.188 47.6448 141.388 47.8867 141.527 48.1628C141.776 48.6697 141.838 49.2469 141.704 49.7949C141.571 50.3429 141.249 50.8272 140.795 51.1642C140.498 51.3796 140.164 51.5386 139.809 51.6334C139.433 51.739 139.045 51.7927 138.655 51.7929C138.397 51.7931 138.139 51.7701 137.885 51.7243C137.633 51.6802 137.386 51.6102 137.148 51.5153C136.912 51.4197 136.689 51.2954 136.484 51.1451C136.275 50.9897 136.094 50.7991 135.951 50.5818L136.845 49.8542C137.03 50.1708 137.306 50.4245 137.639 50.5818C137.974 50.7467 138.343 50.8314 138.717 50.8291C138.946 50.8289 139.173 50.7956 139.392 50.7302C139.612 50.668 139.82 50.5705 140.008 50.4414C140.188 50.3143 140.34 50.1513 140.453 49.9627C140.572 49.7654 140.633 49.5386 140.628 49.3085C140.637 49.0805 140.59 48.8539 140.492 48.6479C140.39 48.4693 140.245 48.319 140.07 48.2106C139.845 48.0706 139.603 47.9586 139.351 47.8771L138.333 47.5309C138.035 47.4383 137.745 47.3248 137.464 47.191C137.211 47.0715 136.979 46.9132 136.776 46.7219C136.579 46.5332 136.423 46.3061 136.318 46.0549C136.194 45.7281 136.138 45.38 136.151 45.0312C136.165 44.6823 136.249 44.3397 136.398 44.0236C136.559 43.7155 136.788 43.4477 137.068 43.2401C137.357 43.0245 137.683 42.8624 138.03 42.7614C138.841 42.5251 139.707 42.5491 140.505 42.83C140.933 42.9968 141.311 43.2718 141.601 43.6278L140.737 44.3698ZM148.478 51.7913C147.847 51.7983 147.221 51.6806 146.636 51.4451C146.096 51.2245 145.606 50.899 145.193 50.4877C144.775 50.073 144.448 49.5771 144.231 49.0308C143.776 47.8496 143.776 46.542 144.231 45.3608C144.448 44.8145 144.775 44.3185 145.193 43.9039C145.606 43.4926 146.096 43.1671 146.636 42.9465C147.821 42.4839 149.138 42.4839 150.323 42.9465C150.866 43.1658 151.36 43.4913 151.775 43.9039C152.19 44.3192 152.515 44.8151 152.729 45.3608C153.185 46.542 153.185 47.8496 152.729 49.0308C152.515 49.5765 152.19 50.0724 151.775 50.4877C151.36 50.9003 150.866 51.2258 150.323 51.4451C149.737 51.681 149.11 51.7987 148.478 51.7913ZM148.478 50.8339C148.962 50.8401 149.442 50.7433 149.885 50.5499C150.301 50.3685 150.675 50.104 150.985 49.7728C151.294 49.436 151.536 49.044 151.698 48.6175C152.036 47.705 152.036 46.7025 151.698 45.79C151.535 45.3637 151.293 44.9717 150.985 44.6347C150.675 44.304 150.301 44.0395 149.885 43.8576C149.44 43.6701 148.961 43.5735 148.478 43.5735C147.994 43.5735 147.516 43.6701 147.07 43.8576C146.655 44.0396 146.281 44.304 145.972 44.6347C145.663 44.9709 145.42 45.3631 145.259 45.79C144.919 46.7022 144.919 47.7054 145.259 48.6175C145.42 49.0446 145.662 49.4369 145.972 49.7728C146.282 50.1011 146.655 50.3629 147.07 50.5419C147.514 50.7357 147.994 50.8331 148.478 50.8276V50.8339ZM155.673 42.8268H156.714V50.6058H160.734V51.5632H155.673V42.8268ZM169.391 48.2346C169.393 48.6932 169.333 49.15 169.212 49.5925C169.101 50.0039 168.907 50.3884 168.641 50.7222C168.366 51.0585 168.015 51.3254 167.617 51.5009C166.628 51.8882 165.529 51.8882 164.541 51.5009C164.143 51.3258 163.792 51.0589 163.518 50.7222C163.252 50.3884 163.058 50.0039 162.947 49.5925C162.826 49.1502 162.765 48.6933 162.768 48.2346V42.8268H163.81V48.0926C163.809 48.4376 163.846 48.7816 163.92 49.1186C163.988 49.4314 164.115 49.7286 164.294 49.9946C164.47 50.2531 164.709 50.4633 164.988 50.6058C165.332 50.7562 165.704 50.8339 166.08 50.8339C166.455 50.8339 166.827 50.7562 167.171 50.6058C167.45 50.4628 167.689 50.2527 167.865 49.9946C168.044 49.7285 168.17 49.4313 168.237 49.1186C168.313 48.7818 168.351 48.4377 168.349 48.0926V42.8268H169.391V48.2346ZM178.36 43.789H175.457V51.5695H174.415V43.789H171.514V42.8316H178.36V43.789ZM180.517 42.8268H181.559V51.5695H180.517V42.8268ZM188.755 51.7913C188.124 51.7983 187.498 51.6806 186.913 51.4451C186.37 51.2254 185.876 50.8999 185.461 50.4877C185.044 50.0726 184.716 49.5768 184.499 49.0308C184.045 47.8492 184.045 46.5424 184.499 45.3608C184.716 44.8148 185.044 44.3189 185.461 43.9039C185.876 43.4916 186.37 43.1661 186.913 42.9465C188.098 42.4839 189.415 42.4839 190.6 42.9465C191.14 43.1671 191.63 43.4926 192.043 43.9039C192.46 44.3185 192.788 44.8145 193.004 45.3608C193.46 46.542 193.46 47.8496 193.004 49.0308C192.788 49.5771 192.46 50.073 192.043 50.4877C191.63 50.899 191.14 51.2245 190.6 51.4451C190.014 51.681 189.387 51.7987 188.755 51.7913ZM188.755 50.8339C189.239 50.84 189.719 50.7432 190.162 50.5499C190.578 50.3685 190.952 50.104 191.26 49.7728C191.57 49.4369 191.813 49.0446 191.974 48.6175C192.311 47.705 192.311 46.7025 191.974 45.79C191.812 45.3631 191.57 44.9709 191.26 44.6347C190.951 44.304 190.578 44.0396 190.162 43.8576C189.717 43.6702 189.238 43.5736 188.754 43.5736C188.27 43.5736 187.792 43.6702 187.346 43.8576C186.931 44.0396 186.558 44.3041 186.25 44.6347C185.939 44.9705 185.697 45.3628 185.536 45.79C185.196 46.7022 185.196 47.7054 185.536 48.6175C185.697 49.0449 185.939 49.4373 186.25 49.7728C186.558 50.104 186.931 50.3685 187.346 50.5499C187.79 50.741 188.271 50.8356 188.755 50.8276V50.8339ZM195.951 42.8268H197.265L202.351 50.0872H202.375V42.8268H203.417V51.5695H202.103L197.017 44.3076H196.992V51.5695H195.951V42.8268ZM210.698 44.3698C210.535 44.0996 210.293 43.886 210.004 43.7587C209.719 43.6321 209.41 43.5668 209.098 43.5672C208.868 43.5671 208.638 43.596 208.415 43.6534C208.202 43.7065 207.999 43.7944 207.814 43.9135C207.636 44.0283 207.489 44.185 207.386 44.3698C207.275 44.5745 207.22 44.8044 207.226 45.0368C207.223 45.2161 207.254 45.3943 207.319 45.5618C207.386 45.7214 207.491 45.8629 207.623 45.9751C207.795 46.1179 207.987 46.2341 208.194 46.3198C208.481 46.4444 208.775 46.551 209.075 46.6389C209.414 46.7453 209.743 46.8607 210.061 46.9852C210.364 47.0999 210.648 47.2579 210.904 47.4543C211.149 47.6448 211.348 47.8867 211.488 48.1628C211.736 48.6697 211.799 49.2469 211.665 49.7949C211.531 50.3429 211.21 50.8272 210.755 51.1642C210.459 51.3796 210.124 51.5386 209.77 51.6334C209.394 51.739 209.006 51.7927 208.615 51.7929C208.357 51.7931 208.1 51.7701 207.846 51.7243C207.594 51.6804 207.346 51.6104 207.109 51.5153C206.873 51.4197 206.65 51.2954 206.445 51.1451C206.236 50.9897 206.055 50.7991 205.911 50.5818L206.804 49.8542C206.99 50.1701 207.266 50.4236 207.598 50.5818C207.934 50.7465 208.303 50.8311 208.678 50.8291C208.907 50.8288 209.134 50.7955 209.353 50.7302C209.572 50.668 209.78 50.5705 209.968 50.4414C210.149 50.3143 210.3 50.1513 210.414 49.9627C210.533 49.7654 210.594 49.5386 210.589 49.3085C210.598 49.0803 210.551 48.8535 210.451 48.6479C210.35 48.4689 210.205 48.3185 210.029 48.2106C209.804 48.0706 209.563 47.9586 209.311 47.8771L208.293 47.5309C207.996 47.4386 207.705 47.325 207.424 47.191C207.172 47.0715 206.94 46.9132 206.737 46.7219C206.54 46.5328 206.383 46.3059 206.277 46.0549C206.161 45.7581 206.107 45.4412 206.116 45.123C206.105 44.7586 206.182 44.3967 206.342 44.0687C206.502 43.7407 206.74 43.4564 207.035 43.2401C207.324 43.0245 207.65 42.8624 207.997 42.7614C208.808 42.5251 209.673 42.5491 210.47 42.83C210.9 42.9964 211.278 43.2714 211.568 43.6278L210.698 44.3698ZM98.8954 13.1918H98.7351C96.4172 9.01595 94.9601 6.75009 91.7687 6.66073H90.5328V27.6312C90.5328 28.5694 91.4433 29.2492 93.9487 30.1236V30.2832H82.696V30.1236C85.1998 29.2492 86.1103 28.5694 86.1103 27.6312V6.66073H84.8423C81.6877 6.75807 80.2243 9.02393 77.8823 13.203H77.7525L78.0731 6.0815V6.01608H98.5379V6.0815L98.8954 13.1918ZM120.907 30.1172V30.2768H112.841V30.1172C114.338 29.3401 114.825 28.6285 114.825 27.7875V19.8618C114.825 17.3087 113.687 15.5231 111.216 15.5231C109.914 15.5231 108.744 15.879 107.899 16.5268V27.7939C107.899 28.6348 108.418 29.3465 109.882 30.1236V30.2832H101.818V30.1236C103.313 29.3465 103.8 28.6348 103.8 27.7939V9.43721C103.8 8.40162 103.281 7.68197 101.426 7.13784V6.97987L107.865 4.58635H107.899V16.0752C108.776 14.5865 110.922 12.9669 113.59 12.9669C116.874 12.9669 118.923 15.1035 118.923 18.8916V27.7955C118.923 28.6348 119.444 29.3465 120.907 30.1172ZM138.378 26.2716L138.475 26.4009C137.663 28.4753 135.257 30.7395 131.483 30.7395C126.606 30.7395 123.19 27.47 123.19 22.1596C123.19 16.6561 127.223 12.9653 131.353 12.9653C135.906 12.9653 138.605 15.9125 138.866 20.9628H127.646C127.841 25.56 129.922 27.8242 133.825 27.6966C135.85 27.6312 137.337 27.1126 138.378 26.2716ZM127.646 20.2495V20.3469L134.345 19.6671C134.151 15.4593 132.557 13.5812 130.541 13.5812C128.72 13.5812 127.646 15.7178 127.646 20.2495ZM161.176 23.5526C161.176 27.1126 158.345 30.3837 151.517 30.3837C150.443 30.3837 147.386 30.2864 146.282 30.2864H141.3V30.1268C143.063 29.2524 143.739 28.5726 143.739 27.6343V8.66012C143.739 7.72186 143.057 7.0421 141.3 6.16767V6.0081H147.577C154.373 5.36185 160.195 6.4868 160.195 11.4478C160.195 14.3296 157.791 16.6593 151.155 17.2752C158.636 17.5959 161.176 20.0549 161.176 23.5526ZM148.131 6.49159V16.9162C152.49 17.2353 155.383 15.8151 155.383 11.735C155.383 7.42985 151.879 6.23149 148.131 6.49159ZM156.367 23.0962C156.367 19.107 153.83 17.0741 148.139 17.7858V29.3752C149.124 29.6491 150.142 29.7803 151.164 29.7646C154.7 29.7678 156.367 27.5019 156.367 23.0962ZM179.56 26.2716L179.658 26.4009C178.846 28.4753 176.44 30.7395 172.666 30.7395C167.788 30.7395 164.374 27.47 164.374 22.1596C164.374 16.6561 168.406 12.9653 172.536 12.9653C177.089 12.9653 179.788 15.9125 180.049 20.9628H168.829C169.024 25.56 171.105 27.8242 175.008 27.6966C177.025 27.6312 178.52 27.1126 179.56 26.2716ZM168.821 20.2495V20.3469L175.519 19.6671C175.325 15.4593 173.732 13.5812 171.716 13.5812C169.903 13.5812 168.829 15.7178 168.829 20.2495H168.821ZM183.948 30.2209L183.526 24.6536L183.656 24.6201C186.03 28.8933 187.689 30.1236 189.77 30.1236C191.299 30.1236 192.826 29.1199 192.826 27.0806C192.826 22.4835 183.369 24.5882 183.369 18.464C183.369 15.2598 185.873 12.9605 190.422 12.9605C191.917 12.9824 193.408 13.134 194.877 13.4136L195.104 18.2007L194.974 18.2326C192.796 14.9966 191.039 13.6354 189.218 13.6354C187.691 13.6354 186.519 14.7046 186.519 16.096C186.519 20.883 195.976 18.6858 195.976 24.8052C195.976 28.4306 192.951 30.73 189.31 30.73C187.51 30.7409 185.713 30.5703 183.948 30.2209ZM211.605 27.245C210.791 27.7955 209.88 28.0859 208.646 28.0859C206.272 28.0859 205.132 26.953 205.132 24.1685V14.8498L211.69 15.2024V14.0009L205.132 14.4094V8.69203H205.097L198.661 11.0856V11.2451C199.985 11.6281 201.035 12.2536 201.032 13.444V14.3391L198.627 14.2578L198.68 15.354L201.035 15.145V24.719C201.035 28.8678 203.247 30.7411 206.336 30.7411C208.548 30.7411 210.531 29.5109 211.703 27.3742L211.605 27.245Z" fill="#AFB7BB"/>
</g>
<defs>
<clipPath id="clip0_742_1779">
<rect width="212" height="52" fill="white"/>
</clipPath>
</defs>
</svg>
