<svg width="273" height="43" viewBox="0 0 273 43" fill="none" xmlns="http://www.w3.org/2000/svg">
<path fill-rule="evenodd" clip-rule="evenodd" d="M161.272 32.0878C157.417 32.1452 156.969 33.0562 156.969 36.9017C156.969 37.5044 156.969 38.1055 157 38.7082C157.099 41.071 158.365 41.8069 160.48 41.968C161.143 42.013 161.805 42.0409 162.468 42.0409C162.77 42.0409 163.084 42.0409 163.388 42.0254L165.588 41.9835C169.906 41.8348 170.122 40.5736 170.122 36.8598V36.3873C170.122 32.8656 169.014 32.0569 165.677 32.0569L163.346 32.0414L161.272 32.0878ZM162.107 34.4676C163.069 34.4521 164.05 34.4521 165.012 34.4521C165.587 34.4521 166.395 34.4831 166.739 34.7915C167.142 35.1726 167.169 36.0836 167.169 36.6832C167.169 37.1248 167.156 37.5663 167.141 38.0064C167.068 39.5619 166.175 39.6223 164.823 39.6223C164.321 39.6223 163.83 39.6378 163.328 39.6378C162.81 39.6378 162.277 39.6378 161.76 39.6068C160.017 39.5619 159.918 38.9313 159.918 37.3153V36.9187C159.918 36.5376 159.918 36.1564 159.959 35.7753C160.133 34.4212 161.126 34.494 162.107 34.4676ZM258.786 32.0878C254.928 32.1452 254.484 33.0562 254.484 36.9017C254.484 37.5044 254.484 38.1055 254.511 38.7082C254.614 41.071 255.88 41.8069 257.994 41.968C258.658 42.013 259.318 42.0409 259.979 42.0409C260.281 42.0409 260.599 42.0409 260.903 42.0254L263.103 41.9835C267.418 41.8348 267.636 40.5736 267.636 36.8598V36.3873C267.636 32.8656 266.525 32.0569 263.188 32.0569L260.858 32.0414L258.786 32.0878ZM259.618 34.4676C260.583 34.4521 261.561 34.4521 262.526 34.4521C263.101 34.4521 263.907 34.4831 264.251 34.7915C264.654 35.1726 264.683 36.0836 264.683 36.6832C264.683 37.1248 264.667 37.5663 264.652 38.0064C264.582 39.5619 263.69 39.6223 262.337 39.6223C261.832 39.6223 261.344 39.6378 260.839 39.6378C260.322 39.6378 259.789 39.6378 259.271 39.6068C257.531 39.5619 257.43 38.9313 257.43 37.3153V36.9187C257.43 36.5376 257.43 36.1564 257.472 35.7753C257.649 34.4212 258.641 34.494 259.618 34.4676ZM85.8758 8.00631L90.0575 15.7267H81.6941L85.8758 8.00631ZM92.2219 19.7628L94.0641 23.2999H100.615L89.9691 3.79364H81.9559L71.0764 23.3015H77.6859L79.6164 19.7643L92.2219 19.7628ZM173.515 8.00631L177.696 15.7267H169.333L173.515 8.00631ZM179.861 19.7628L181.703 23.2999H188.255L177.61 3.79364H169.596L158.717 23.3015H165.326L167.257 19.7643L179.861 19.7628ZM109.678 18.5357H120.315C124.235 18.5357 124.498 17.0437 124.498 13.6212V13.4461C124.498 10.1119 124.439 8.59043 120.403 8.59043H109.678V18.5357ZM103.741 23.3015V3.79519H121.573C128.532 3.79519 130.492 5.52116 130.492 12.5691V13.68C130.492 15.1999 130.492 16.7803 130.258 18.2707C129.673 21.6623 127.158 23.2999 123.765 23.2999L103.741 23.3015ZM151.004 23.3015H143.429L133.136 3.79519H139.629L147.29 18.5047L155.274 3.79519H161.882L151.004 23.3015ZM217.763 23.3015H208.315L196.558 8.65084V23.3015H190.973V3.79519H200.419L212.176 18.4179V3.79519H217.763V23.3015ZM246.906 15.8739C246.906 16.1373 246.937 16.4301 246.937 16.7214C246.937 22.1596 245.387 23.1853 239.625 23.4192C238.104 23.4766 236.612 23.5076 235.092 23.5076L231.406 23.4502C226.434 23.3898 222.603 23.2442 222.164 17.132C222.047 15.7701 221.989 14.4039 221.989 13.0371C221.989 7.36334 222.894 4.20421 229.124 3.76575C230.966 3.62011 232.836 3.62012 234.68 3.62012C237.109 3.62012 239.563 3.62011 241.991 3.8835C246.058 4.32197 246.611 7.18826 246.7 10.6681H240.938C240.938 8.7655 239.915 8.5052 238.191 8.41689C237.634 8.38745 237.08 8.38746 236.524 8.38746H234.886L231.876 8.41689C228.015 8.44633 227.984 9.85004 227.984 13.5344C227.984 17.5116 228.19 18.5651 232.429 18.6813L234.74 18.7402C235.763 18.7402 236.759 18.7092 237.782 18.7092C239.8 18.7092 241.086 18.5357 241.086 15.8724L246.906 15.8739ZM250.534 3.79519H272.295V8.24027H256.475V11.5745H271.241V15.4339H256.475V18.8858H272.295V23.3015H250.534V3.79519ZM77.9958 41.9386H75.0753V34.6009H70.7882V32.1467H82.2689V34.6009H77.9958V41.9386ZM86.9928 39.4302H91.8702C93.0942 39.4302 93.136 39.9291 93.136 41.0012V41.9386H96.0999V40.0592C96.0999 38.7098 95.3655 38.3441 94.1431 38.1799C94.7473 37.9738 95.4368 37.8437 95.8117 37.2565C96.1712 36.6693 96.2146 35.9194 96.2146 35.2439C96.2146 32.8811 95.2648 32.1452 93.0059 32.1452H84.0708V41.937H86.9913L86.9928 39.4302ZM86.9928 34.525H91.8547C92.1274 34.525 92.4311 34.5405 92.6898 34.6133C93.2367 34.776 93.2507 35.1726 93.2646 35.6839C93.2646 36.7731 93.15 37.052 91.7819 37.052H86.9913L86.9928 34.525ZM175.343 39.4302H180.217C181.44 39.4302 181.484 39.9291 181.484 41.0012V41.9386H184.447V40.0592C184.447 38.7098 183.714 38.3441 182.492 38.1799C183.094 37.9738 183.784 37.8437 184.159 37.2565C184.518 36.6693 184.562 35.9194 184.562 35.2439C184.562 32.8811 183.612 32.1452 181.354 32.1452H172.418V41.937H175.341L175.343 39.4302ZM175.343 34.525H180.202C180.477 34.525 180.78 34.5405 181.037 34.6133C181.585 34.776 181.599 35.1726 181.612 35.6839C181.612 36.7731 181.497 37.052 180.132 37.052H175.341L175.343 34.525ZM221.506 39.4302H226.383C227.606 39.4302 227.647 39.9291 227.647 41.0012V41.9386H230.613V40.0592C230.613 38.7098 229.88 38.3441 228.654 38.1799C229.26 37.9738 229.95 37.8437 230.325 37.2565C230.684 36.6693 230.727 35.9194 230.727 35.2439C230.727 32.8811 229.778 32.1452 227.52 32.1452H218.584V41.937H221.504V39.4302H221.506ZM221.506 34.525H226.368C226.643 34.525 226.942 34.5405 227.203 34.6133C227.751 34.776 227.762 35.1726 227.777 35.6839C227.777 36.7731 227.663 37.052 226.298 37.052H221.504V34.525H221.506ZM104.911 34.2616L106.969 38.1381H102.854L104.911 34.2616ZM108.035 40.1615L108.941 41.937H112.164L106.927 32.1452H102.984L97.6322 41.937H100.883L101.833 40.1615H108.035ZM127.268 41.9386H122.62L116.835 34.5854V41.9386H114.088V32.1467H118.736L124.52 39.4875V32.1467H127.268V41.9386ZM133.177 38.812C133.193 38.8693 133.193 38.9143 133.193 38.9731C133.193 39.8687 134.026 39.8532 134.69 39.8842C135.15 39.8842 135.61 39.8997 136.072 39.8997C136.718 39.8997 137.365 39.8842 138.028 39.8423C138.676 39.8113 139.324 39.8268 139.324 38.9886C139.324 38.1954 138.603 38.1226 137.971 38.1226H137.495C135.898 38.1226 134.287 38.1226 132.689 38.0203C130.804 37.8871 130.229 37.021 130.229 35.185C130.229 33.7317 130.488 32.7339 132.012 32.3373C133.033 32.0584 135.207 32.0445 136.313 32.0445L138.357 32.0754C139.537 32.0909 140.859 32.1064 141.552 33.2653C141.866 33.8371 141.851 34.5126 141.866 35.1292H139.003C138.961 34.3964 138.527 34.2337 137.88 34.2058C137.406 34.1903 136.93 34.1903 136.47 34.1903C135.721 34.1903 134.989 34.2321 134.24 34.2631C133.723 34.2941 133.174 34.4088 133.174 34.996C133.174 35.9519 134.181 35.8497 134.843 35.8791L136.8 35.907C137.446 35.907 138.081 35.9225 138.729 35.9225C140.957 35.9225 142.266 36.364 142.266 38.9034C142.266 41.3127 141.231 41.7511 139.015 41.9262C137.769 41.9982 136.522 42.0323 135.274 42.0285C134.626 42.0285 133.963 42.0285 133.317 41.9866C131.475 41.8689 130.296 41.6318 130.296 39.4023V38.8151H133.177V38.812ZM144.824 32.1467H155.014V34.3793H147.744V36.0526H155.014V37.9893H147.744V41.9386H144.824V32.1467ZM203.225 41.9386H200.462V34.4816L196.231 41.9386H193.885L189.698 34.4816V41.9386H186.951V32.1467H191.599L195.123 38.6369L198.606 32.1467H203.225V41.9386ZM205.727 32.1467H216.43V34.3793H208.648V36.0526H215.913V37.9893H208.648V39.723H216.43V41.9386H205.727V32.1467ZM252.259 38.2109C252.259 38.3441 252.274 38.4898 252.274 38.6369C252.274 41.3669 251.512 41.8813 248.677 41.999C247.934 42.0269 247.191 42.0409 246.447 42.0409L244.634 42.013C242.19 41.982 240.304 41.9107 240.086 38.8414C240.028 38.1571 240 37.4707 240 36.7839C240 33.9362 240.445 32.3512 243.511 32.1297C244.419 32.0569 245.339 32.0569 246.247 32.0569C247.44 32.0569 248.647 32.0569 249.842 32.1901C251.842 32.4117 252.115 33.8479 252.16 35.594H249.324C249.324 34.6412 248.819 34.5079 247.972 34.4645C247.699 34.4491 247.423 34.449 247.152 34.449H246.346L244.864 34.4645C242.966 34.48 242.952 35.1819 242.952 37.0334C242.952 39.0305 243.051 39.5572 245.136 39.6177L246.274 39.6456C246.776 39.6456 247.267 39.6332 247.769 39.6332C248.762 39.6332 249.397 39.5449 249.397 38.2078H252.259V38.2109ZM273 41.9386H270.137V39.2086H273V41.9386ZM41.0547 41.8875V29.0713H22.0225V41.8875H41.0547Z" fill="#AFB7BB"/>
<path fill-rule="evenodd" clip-rule="evenodd" d="M0.705078 41.8874L23.4185 0.773926H39.7874L62.3723 41.8874H48.2887L31.5387 11.8146L14.9173 41.8874H0.705078Z" fill="#AFB7BB"/>
</svg>
