<svg width="726" height="171" viewBox="0 0 726 171" fill="none" xmlns="http://www.w3.org/2000/svg">
<path d="M0.836992 167V1.95295H41.7931C51.7095 1.95295 59.5883 3.7868 65.4295 7.45452C71.4065 10.9864 75.7534 16.1484 78.4702 22.9404C81.1871 29.7325 82.5455 37.9509 82.5455 47.5956C82.5455 56.2894 80.9833 63.8286 77.8589 70.2131C74.8704 76.5977 70.3877 81.5559 64.4107 85.0878C58.4337 88.4838 50.9624 90.1818 41.9969 90.1818H23.8621V167H0.836992ZM23.8621 73.6771H34.4577C41.1139 73.6771 46.3438 72.93 50.1473 71.4357C53.9509 69.9415 56.6677 67.3605 58.2978 63.6928C59.9279 59.8892 60.743 54.5914 60.743 47.7994C60.743 39.9206 60.1317 33.8756 58.9091 29.6646C57.8224 25.4535 55.4452 22.5329 51.7774 20.9028C48.1097 19.2727 42.4044 18.4577 34.6615 18.4577H23.8621V73.6771ZM98.7382 167V1.95295H131.951C142.954 1.95295 152.056 3.4472 159.255 6.43571C166.455 9.28838 171.753 13.9749 175.149 20.4953C178.681 26.8798 180.447 35.302 180.447 45.7617C180.447 52.1463 179.767 57.9874 178.409 63.2853C177.051 68.4472 174.877 72.8621 171.889 76.5298C168.9 80.0616 164.961 82.6426 160.07 84.2727L183.503 167H161.293L139.694 89.5705H121.763V167H98.7382ZM121.763 73.0658H130.525C137.045 73.0658 142.343 72.2508 146.418 70.6207C150.494 68.9906 153.482 66.2058 155.384 62.2664C157.286 58.327 158.237 52.8255 158.237 45.7617C158.237 36.117 156.471 29.1891 152.939 24.978C149.407 20.6311 142.411 18.4577 131.951 18.4577H121.763V73.0658ZM246.578 168.834C235.44 168.834 226.542 166.66 219.886 162.313C213.229 157.967 208.475 151.786 205.622 143.771C202.77 135.621 201.343 126.112 201.343 115.245V52.6896C201.343 41.8223 202.77 32.5172 205.622 24.7743C208.611 16.8955 213.365 10.9185 219.886 6.84324C226.542 2.63216 235.44 0.52662 246.578 0.52662C257.717 0.52662 266.547 2.63216 273.068 6.84324C279.588 11.0543 284.274 17.0313 287.127 24.7743C290.116 32.5172 291.61 41.8223 291.61 52.6896V115.448C291.61 126.18 290.116 135.553 287.127 143.567C284.274 151.582 279.588 157.831 273.068 162.313C266.547 166.66 257.717 168.834 246.578 168.834ZM246.578 150.699C252.691 150.699 257.31 149.476 260.434 147.031C263.559 144.45 265.664 140.918 266.751 136.436C267.838 131.817 268.381 126.451 268.381 120.339V48.0031C268.381 41.8903 267.838 36.6604 266.751 32.3135C265.664 27.8307 263.559 24.4347 260.434 22.1254C257.31 19.6802 252.691 18.4577 246.578 18.4577C240.466 18.4577 235.779 19.6802 232.519 22.1254C229.395 24.4347 227.289 27.8307 226.202 32.3135C225.116 36.6604 224.572 41.8903 224.572 48.0031V120.339C224.572 126.451 225.116 131.817 226.202 136.436C227.289 140.918 229.395 144.45 232.519 147.031C235.779 149.476 240.466 150.699 246.578 150.699ZM302.829 170.871V154.367C307.856 154.367 311.931 154.027 315.055 153.348C318.18 152.669 320.557 151.446 322.187 149.68C323.953 147.914 325.175 145.401 325.855 142.141C326.534 138.745 326.873 134.466 326.873 129.304V1.95295H349.695V129.712C349.695 139.22 348.676 147.031 346.638 153.144C344.601 159.121 341.001 163.604 335.839 166.592C330.677 169.445 323.341 170.871 313.833 170.871H302.829ZM375.528 167V1.95295H439.509V19.0689H398.553V73.6771H431.766V89.978H398.553V150.495H439.917V167H375.528ZM499.869 168.834C488.186 168.834 479.085 166.389 472.565 161.498C466.18 156.608 461.697 150.02 459.116 141.734C456.671 133.447 455.449 124.21 455.449 114.022V55.7461C455.449 44.6071 456.671 34.8944 459.116 26.6081C461.697 18.3218 466.18 11.9373 472.565 7.45452C479.085 2.83592 488.186 0.52662 499.869 0.52662C510.193 0.52662 518.343 2.4284 524.32 6.23195C530.433 10.0355 534.78 15.4691 537.361 22.5329C540.078 29.5966 541.436 38.0867 541.436 48.0031V61.0439H519.634V49.4294C519.634 43.3166 519.294 37.9509 518.615 33.3323C518.071 28.5778 516.441 24.9101 513.724 22.3291C511.008 19.7481 506.457 18.4577 500.072 18.4577C493.552 18.4577 488.798 19.884 485.809 22.7367C482.821 25.4535 480.851 29.3929 479.9 34.5548C479.085 39.581 478.677 45.4901 478.677 52.2821V117.69C478.677 125.976 479.357 132.564 480.715 137.455C482.074 142.209 484.315 145.605 487.439 147.643C490.564 149.68 494.775 150.699 500.072 150.699C506.321 150.699 510.804 149.341 513.521 146.624C516.238 143.771 517.936 139.9 518.615 135.009C519.294 130.119 519.634 124.414 519.634 117.893V105.668H541.436V117.893C541.436 127.946 540.214 136.843 537.768 144.586C535.323 152.193 531.112 158.17 525.135 162.517C519.158 166.728 510.736 168.834 499.869 168.834ZM581.506 167V19.0689H553.59V1.95295H631.631V19.0689H604.531V167H581.506ZM686.46 168.834C676.952 168.834 669.005 166.796 662.62 162.721C656.372 158.646 651.617 153.008 648.357 145.809C645.097 138.609 643.195 130.255 642.652 120.746L663.028 115.245C663.435 121.086 664.318 126.723 665.677 132.157C667.171 137.59 669.548 142.073 672.808 145.605C676.069 149.001 680.619 150.699 686.46 150.699C692.437 150.699 696.92 149.069 699.909 145.809C703.033 142.413 704.595 137.59 704.595 131.342C704.595 123.87 702.897 117.893 699.501 113.411C696.105 108.792 691.826 104.173 686.664 99.5548L658.953 75.1034C653.519 70.349 649.512 65.187 646.931 59.6175C644.35 53.9122 643.059 46.9164 643.059 38.6301C643.059 26.5402 646.523 17.1672 653.451 10.511C660.379 3.85473 669.82 0.52662 681.774 0.52662C688.294 0.52662 694 1.40959 698.89 3.17552C703.916 4.80561 708.059 7.3866 711.319 10.9185C714.715 14.4503 717.364 18.9331 719.266 24.3667C721.304 29.6646 722.662 35.9133 723.341 43.1128L703.78 48.4106C703.373 42.977 702.558 38.0188 701.335 33.536C700.112 28.9174 697.939 25.2497 694.815 22.5329C691.826 19.6802 687.479 18.2539 681.774 18.2539C676.069 18.2539 671.586 19.8161 668.326 22.9404C665.201 25.9289 663.639 30.4117 663.639 36.3887C663.639 41.4148 664.454 45.558 666.084 48.8182C667.85 52.0783 670.635 55.4065 674.438 58.8025L702.354 83.2539C708.603 88.6876 714.104 95.2079 718.859 102.815C723.613 110.286 725.99 119.184 725.99 129.508C725.99 137.658 724.292 144.722 720.896 150.699C717.5 156.54 712.814 161.023 706.837 164.147C700.995 167.272 694.203 168.834 686.46 168.834Z" fill="white"/>
<path d="M0.836992 167H-0.754897V168.592H0.836992V167ZM0.836992 1.95295V0.361057H-0.754897V1.95295H0.836992ZM65.4295 7.45452L64.583 8.80267L64.6012 8.81409L64.6196 8.82501L65.4295 7.45452ZM78.4702 22.9404L79.9483 22.3492L79.9483 22.3492L78.4702 22.9404ZM77.8589 70.2131L76.4291 69.5134L76.423 69.5258L76.4172 69.5383L77.8589 70.2131ZM64.4107 85.0878L65.1971 86.4718L65.2089 86.4652L65.2205 86.4583L64.4107 85.0878ZM23.8621 90.1818V88.5899H22.2702V90.1818H23.8621ZM23.8621 167V168.592H25.454V167H23.8621ZM23.8621 73.6771H22.2702V75.269H23.8621V73.6771ZM50.1473 71.4357L50.7294 72.9174L50.7294 72.9174L50.1473 71.4357ZM58.2978 63.6928L59.7525 64.3393L59.7568 64.3296L59.761 64.3198L58.2978 63.6928ZM58.9091 29.6646L57.3677 30.0623L57.3737 30.0855L57.3803 30.1084L58.9091 29.6646ZM51.7774 20.9028L51.1309 22.3575L51.1309 22.3575L51.7774 20.9028ZM23.8621 18.4577V16.8658H22.2702V18.4577H23.8621ZM2.42888 167V1.95295H-0.754897V167H2.42888ZM0.836992 3.54483H41.7931V0.361057H0.836992V3.54483ZM41.7931 3.54483C51.5343 3.54483 59.0833 5.34942 64.583 8.80267L66.276 6.10636C60.0933 2.22419 51.8847 0.361057 41.7931 0.361057V3.54483ZM64.6196 8.82501C70.277 12.168 74.3984 17.0472 76.9922 23.5316L79.9483 22.3492C77.1084 15.2495 72.536 9.80477 66.2393 6.08402L64.6196 8.82501ZM76.9922 23.5316C79.614 30.0862 80.9536 38.0923 80.9536 47.5956H84.1374C84.1374 37.8094 82.7601 29.3787 79.9483 22.3492L76.9922 23.5316ZM80.9536 47.5956C80.9536 56.1 79.4257 63.3899 76.4291 69.5134L79.2888 70.9129C82.5409 64.2673 84.1374 56.4788 84.1374 47.5956H80.9536ZM76.4172 69.5383C73.5623 75.6374 69.2975 80.351 63.6008 83.7173L65.2205 86.4583C71.4779 82.7607 76.1786 77.558 79.3007 70.888L76.4172 69.5383ZM63.6243 83.7037C57.9491 86.9282 50.7683 88.5899 41.9969 88.5899V91.7737C51.1565 91.7737 58.9182 90.0394 65.1971 86.4718L63.6243 83.7037ZM41.9969 88.5899H23.8621V91.7737H41.9969V88.5899ZM22.2702 90.1818V167H25.454V90.1818H22.2702ZM23.8621 165.408H0.836992V168.592H23.8621V165.408ZM23.8621 75.269H34.4577V72.0852H23.8621V75.269ZM34.4577 75.269C41.2037 75.269 46.6603 74.5159 50.7294 72.9174L49.5653 69.9541C46.0272 71.344 41.0241 72.0852 34.4577 72.0852V75.269ZM50.7294 72.9174C54.9143 71.2733 57.9491 68.3969 59.7525 64.3393L56.8431 63.0462C55.3863 66.3241 52.9874 68.6096 49.5653 69.9541L50.7294 72.9174ZM59.761 64.3198C61.5133 60.231 62.3348 54.6861 62.3348 47.7994H59.1511C59.1511 54.4968 58.3425 59.5474 56.8346 63.0657L59.761 64.3198ZM62.3348 47.7994C62.3348 39.8695 61.7231 33.6475 60.4379 29.2207L57.3803 30.1084C58.5403 34.1038 59.1511 39.9716 59.1511 47.7994H62.3348ZM60.4505 29.2668C59.254 24.6304 56.5765 21.2937 52.424 19.4481L51.1309 22.3575C54.3138 23.7721 56.3907 26.2765 57.3677 30.0623L60.4505 29.2668ZM52.424 19.4481C48.4406 17.6777 42.4583 16.8658 34.6615 16.8658V20.0495C42.3505 20.0495 47.7788 20.8677 51.1309 22.3575L52.424 19.4481ZM34.6615 16.8658H23.8621V20.0495H34.6615V16.8658ZM22.2702 18.4577V73.6771H25.454V18.4577H22.2702ZM98.7382 167H97.1463V168.592H98.7382V167ZM98.7382 1.95295V0.361057H97.1463V1.95295H98.7382ZM159.255 6.43571L158.645 7.90596L158.657 7.91091L158.669 7.91566L159.255 6.43571ZM175.149 20.4953L173.737 21.2306L173.746 21.2484L173.756 21.2658L175.149 20.4953ZM178.409 63.2853L179.949 63.6904L179.951 63.6806L178.409 63.2853ZM171.889 76.5298L173.104 77.558L173.113 77.5468L173.123 77.5353L171.889 76.5298ZM160.07 84.2727L159.567 82.7625L158.124 83.2434L158.539 84.7066L160.07 84.2727ZM183.503 167V168.592H185.608L185.035 166.566L183.503 167ZM161.293 167L159.76 167.428L160.084 168.592H161.293V167ZM139.694 89.5705L141.228 89.1428L140.903 87.9786H139.694V89.5705ZM121.763 89.5705V87.9786H120.171V89.5705H121.763ZM121.763 167V168.592H123.355V167H121.763ZM121.763 73.0658H120.171V74.6577H121.763V73.0658ZM155.384 62.2664L156.818 62.9585L156.818 62.9585L155.384 62.2664ZM152.939 24.978L151.703 25.9819L151.711 25.9915L151.719 26.001L152.939 24.978ZM121.763 18.4577V16.8658H120.171V18.4577H121.763ZM100.33 167V1.95295H97.1463V167H100.33ZM98.7382 3.54483H131.951V0.361057H98.7382V3.54483ZM131.951 3.54483C142.825 3.54483 151.701 5.02355 158.645 7.90596L159.866 4.96545C152.411 1.87085 143.084 0.361057 131.951 0.361057V3.54483ZM158.669 7.91566C165.534 10.6356 170.528 15.0688 173.737 21.2306L176.561 19.7599C172.978 12.881 167.376 7.94118 159.842 4.95576L158.669 7.91566ZM173.756 21.2658C177.113 27.3342 178.855 35.4618 178.855 45.7617H182.039C182.039 35.1421 180.249 26.4254 176.542 19.7247L173.756 21.2658ZM178.855 45.7617C178.855 52.0346 178.187 57.7407 176.867 62.8899L179.951 63.6806C181.348 58.2342 182.039 52.258 182.039 45.7617H178.855ZM176.87 62.8801C175.562 67.8507 173.482 72.0539 170.655 75.5242L173.123 77.5353C176.272 73.6702 178.54 69.0438 179.948 63.6904L176.87 62.8801ZM170.673 75.5015C167.894 78.7857 164.213 81.2139 159.567 82.7625L160.574 85.7829C165.709 84.0713 169.906 81.3376 173.104 77.558L170.673 75.5015ZM158.539 84.7066L181.971 167.434L185.035 166.566L161.602 83.8389L158.539 84.7066ZM183.503 165.408H161.293V168.592H183.503V165.408ZM162.826 166.572L141.228 89.1428L138.161 89.9982L159.76 167.428L162.826 166.572ZM139.694 87.9786H121.763V91.1624H139.694V87.9786ZM120.171 89.5705V167H123.355V89.5705H120.171ZM121.763 165.408H98.7382V168.592H121.763V165.408ZM121.763 74.6577H130.525V71.4739H121.763V74.6577ZM130.525 74.6577C137.159 74.6577 142.678 73.8312 147.01 72.0987L145.827 69.1426C142.008 70.6703 136.932 71.4739 130.525 71.4739V74.6577ZM147.01 72.0987C151.453 70.3215 154.742 67.2572 156.818 62.9585L153.95 61.5744C152.222 65.1545 149.535 67.6596 145.827 69.1426L147.01 72.0987ZM156.818 62.9585C158.868 58.7103 159.828 52.9345 159.828 45.7617H156.645C156.645 52.7165 155.703 57.9437 153.95 61.5744L156.818 62.9585ZM159.828 45.7617C159.828 35.9976 158.055 28.601 154.158 23.9551L151.719 26.001C154.886 29.7772 156.645 36.2365 156.645 45.7617H159.828ZM154.174 23.9742C150.161 19.0343 142.505 16.8658 131.951 16.8658V20.0495C142.317 20.0495 148.653 22.2279 151.703 25.9819L154.174 23.9742ZM131.951 16.8658H121.763V20.0495H131.951V16.8658ZM120.171 18.4577V73.0658H123.355V18.4577H120.171ZM219.886 162.313L220.756 160.981L220.756 160.981L219.886 162.313ZM205.622 143.771L204.12 144.297L204.123 144.305L205.622 143.771ZM205.622 24.7743L204.134 24.2097L204.131 24.2168L204.129 24.224L205.622 24.7743ZM219.886 6.84324L220.729 8.19318L220.737 8.18851L219.886 6.84324ZM273.068 6.84324L272.204 8.18049L272.204 8.18049L273.068 6.84324ZM287.127 24.7743L285.633 25.3246L285.638 25.3361L285.642 25.3475L287.127 24.7743ZM287.127 143.567L285.636 143.011L285.631 143.022L285.627 143.034L287.127 143.567ZM273.068 162.313L273.951 163.638L273.96 163.632L273.969 163.625L273.068 162.313ZM260.434 147.031L261.415 148.285L261.432 148.272L261.448 148.259L260.434 147.031ZM266.751 136.436L268.298 136.811L268.3 136.8L266.751 136.436ZM266.751 32.3135L265.204 32.6885L265.207 32.6995L266.751 32.3135ZM260.434 22.1254L259.453 23.379L259.47 23.3925L259.488 23.4055L260.434 22.1254ZM232.519 22.1254L233.465 23.4056L233.474 23.3989L232.519 22.1254ZM226.202 32.3135L227.747 32.6996L227.749 32.6885L226.202 32.3135ZM226.202 136.436L224.653 136.8L224.655 136.811L226.202 136.436ZM232.519 147.031L231.505 148.259L231.534 148.282L231.564 148.305L232.519 147.031ZM246.578 167.242C235.63 167.242 227.069 165.103 220.756 160.981L219.015 163.646C226.015 168.217 235.25 170.426 246.578 170.426V167.242ZM220.756 160.981C214.412 156.838 209.867 150.948 207.122 143.237L204.123 144.305C207.083 152.623 212.047 159.095 219.015 163.646L220.756 160.981ZM207.125 143.245C204.344 135.301 202.935 125.977 202.935 115.245H199.751C199.751 126.247 201.195 135.94 204.12 144.297L207.125 143.245ZM202.935 115.245V52.6896H199.751V115.245H202.935ZM202.935 52.6896C202.935 41.9539 204.345 32.8454 207.116 25.3246L204.129 24.224C201.194 32.1891 199.751 41.6907 199.751 52.6896H202.935ZM207.111 25.3388C209.988 17.7522 214.533 12.0662 220.729 8.19316L219.042 5.49332C212.198 9.77075 207.233 16.0387 204.134 24.2097L207.111 25.3388ZM220.737 8.18851C227.054 4.19216 235.622 2.11851 246.578 2.11851V-1.06527C235.257 -1.06527 226.03 1.07215 219.035 5.49797L220.737 8.18851ZM246.578 2.11851C257.538 2.11851 266.03 4.19315 272.204 8.18049L273.931 5.50599C267.064 1.07117 257.897 -1.06527 246.578 -1.06527V2.11851ZM272.204 8.18049C278.416 12.1922 282.892 17.8835 285.633 25.3246L288.621 24.224C285.657 16.1791 280.76 9.91638 273.931 5.50599L272.204 8.18049ZM285.642 25.3475C288.542 32.8607 290.018 41.9609 290.018 52.6896H293.202C293.202 41.6838 291.689 32.1738 288.612 24.2011L285.642 25.3475ZM290.018 52.6896V115.448H293.202V52.6896H290.018ZM290.018 115.448C290.018 126.036 288.543 135.213 285.636 143.011L288.619 144.124C291.688 135.892 293.202 126.323 293.202 115.448H290.018ZM285.627 143.034C282.878 150.758 278.389 156.723 272.166 161.002L273.969 163.625C280.787 158.938 285.671 152.407 288.627 144.101L285.627 143.034ZM272.184 160.989C266.014 165.102 257.53 167.242 246.578 167.242V170.426C257.905 170.426 267.08 168.218 273.951 163.638L272.184 160.989ZM246.578 152.291C252.865 152.291 257.895 151.04 261.415 148.285L259.453 145.778C256.725 147.913 252.517 149.107 246.578 149.107V152.291ZM261.448 148.259C264.874 145.429 267.142 141.579 268.298 136.811L265.204 136.061C264.186 140.257 262.244 143.472 259.42 145.804L261.448 148.259ZM268.3 136.8C269.422 132.034 269.973 126.541 269.973 120.339H266.789C266.789 126.362 266.253 131.601 265.201 136.071L268.3 136.8ZM269.973 120.339V48.0031H266.789V120.339H269.973ZM269.973 48.0031C269.973 41.8038 269.423 36.4369 268.295 31.9274L265.207 32.6995C266.253 36.8839 266.789 41.9767 266.789 48.0031H269.973ZM268.298 31.9384C267.141 27.1639 264.859 23.4163 261.38 20.8452L259.488 23.4055C262.258 25.453 264.188 28.4975 265.204 32.6885L268.298 31.9384ZM261.415 20.8717C257.895 18.1169 252.865 16.8658 246.578 16.8658V20.0495C252.517 20.0495 256.725 21.2435 259.453 23.379L261.415 20.8717ZM246.578 16.8658C240.285 16.8658 235.207 18.1197 231.564 20.8519L233.474 23.3989C236.352 21.2408 240.646 20.0495 246.578 20.0495V16.8658ZM231.573 20.8452C228.094 23.4163 225.813 27.1639 224.655 31.9384L227.749 32.6885C228.765 28.4975 230.695 25.453 233.465 23.4055L231.573 20.8452ZM224.658 31.9274C223.531 36.4369 222.98 41.8038 222.98 48.0031H226.164C226.164 41.9767 226.701 36.8839 227.747 32.6996L224.658 31.9274ZM222.98 48.0031V120.339H226.164V48.0031H222.98ZM222.98 120.339C222.98 126.541 223.531 132.034 224.653 136.8L227.752 136.071C226.7 131.601 226.164 126.362 226.164 120.339H222.98ZM224.655 136.811C225.811 141.579 228.08 145.429 231.505 148.259L233.533 145.804C230.709 143.472 228.767 140.257 227.749 136.061L224.655 136.811ZM231.564 148.305C235.207 151.037 240.285 152.291 246.578 152.291V149.107C240.646 149.107 236.352 147.916 233.474 145.758L231.564 148.305ZM302.829 170.871H301.238V172.463H302.829V170.871ZM302.829 154.367V152.775H301.238V154.367H302.829ZM315.055 153.348L315.393 154.904L315.393 154.904L315.055 153.348ZM322.187 149.68L321.061 148.555L321.039 148.577L321.017 148.601L322.187 149.68ZM325.855 142.141L327.413 142.466L327.416 142.453L325.855 142.141ZM326.873 1.95295V0.361057H325.281V1.95295H326.873ZM349.695 1.95295H351.287V0.361057H349.695V1.95295ZM346.638 153.144L348.145 153.658L348.148 153.648L346.638 153.144ZM335.839 166.592L336.609 167.986L336.623 167.978L336.636 167.97L335.839 166.592ZM304.421 170.871V154.367H301.238V170.871H304.421ZM302.829 155.959C307.913 155.959 312.114 155.617 315.393 154.904L314.717 151.792C311.748 152.438 307.799 152.775 302.829 152.775V155.959ZM315.393 154.904C318.733 154.177 321.442 152.834 323.357 150.76L321.017 148.601C319.671 150.058 317.626 151.16 314.717 151.792L315.393 154.904ZM323.312 150.806C325.36 148.759 326.691 145.93 327.413 142.466L324.296 141.816C323.66 144.872 322.546 147.07 321.061 148.555L323.312 150.806ZM327.416 142.453C328.123 138.918 328.465 134.525 328.465 129.304H325.281C325.281 134.407 324.945 138.572 324.294 141.829L327.416 142.453ZM328.465 129.304V1.95295H325.281V129.304H328.465ZM326.873 3.54483H349.695V0.361057H326.873V3.54483ZM348.103 1.95295V129.712H351.287V1.95295H348.103ZM348.103 129.712C348.103 139.123 347.092 146.748 345.128 152.641L348.148 153.648C350.259 147.315 351.287 139.318 351.287 129.712H348.103ZM345.132 152.631C343.21 158.267 339.85 162.431 335.041 165.215L336.636 167.97C342.152 164.777 345.991 159.976 348.145 153.658L345.132 152.631ZM335.069 165.199C330.245 167.865 323.22 169.28 313.833 169.28V172.463C323.463 172.463 331.109 171.025 336.609 167.986L335.069 165.199ZM313.833 169.28H302.829V172.463H313.833V169.28ZM375.528 167H373.936V168.592H375.528V167ZM375.528 1.95295V0.361057H373.936V1.95295H375.528ZM439.509 1.95295H441.101V0.361057H439.509V1.95295ZM439.509 19.0689V20.6608H441.101V19.0689H439.509ZM398.553 19.0689V17.4771H396.961V19.0689H398.553ZM398.553 73.6771H396.961V75.269H398.553V73.6771ZM431.766 73.6771H433.358V72.0852H431.766V73.6771ZM431.766 89.978V91.5699H433.358V89.978H431.766ZM398.553 89.978V88.3862H396.961V89.978H398.553ZM398.553 150.495H396.961V152.087H398.553V150.495ZM439.917 150.495H441.508V148.903H439.917V150.495ZM439.917 167V168.592H441.508V167H439.917ZM377.12 167V1.95295H373.936V167H377.12ZM375.528 3.54483H439.509V0.361057H375.528V3.54483ZM437.917 1.95295V19.0689H441.101V1.95295H437.917ZM439.509 17.4771H398.553V20.6608H439.509V17.4771ZM396.961 19.0689V73.6771H400.145V19.0689H396.961ZM398.553 75.269H431.766V72.0852H398.553V75.269ZM430.174 73.6771V89.978H433.358V73.6771H430.174ZM431.766 88.3862H398.553V91.5699H431.766V88.3862ZM396.961 89.978V150.495H400.145V89.978H396.961ZM398.553 152.087H439.917V148.903H398.553V152.087ZM438.325 150.495V167H441.508V150.495H438.325ZM439.917 165.408H375.528V168.592H439.917V165.408ZM472.565 161.498L471.597 162.762L471.603 162.767L471.609 162.772L472.565 161.498ZM459.116 141.734L457.59 142.184L457.593 142.196L457.596 142.207L459.116 141.734ZM459.116 26.6081L457.596 26.1347L457.593 26.1461L457.59 26.1576L459.116 26.6081ZM472.565 7.45452L473.479 8.75735L473.485 8.75354L472.565 7.45452ZM524.32 6.23195L523.465 7.57496L523.472 7.57929L523.479 7.58355L524.32 6.23195ZM537.361 22.5329L535.866 23.0792L535.87 23.0918L535.875 23.1043L537.361 22.5329ZM541.436 61.0439V62.6358H543.028V61.0439H541.436ZM519.634 61.0439H518.042V62.6358H519.634V61.0439ZM518.615 33.3323L517.033 33.513L517.036 33.5385L517.04 33.5639L518.615 33.3323ZM513.724 22.3291L514.821 21.175L514.821 21.175L513.724 22.3291ZM485.809 22.7367L486.88 23.9146L486.894 23.9015L486.908 23.8882L485.809 22.7367ZM479.9 34.5548L478.334 34.2664L478.331 34.2832L478.329 34.3L479.9 34.5548ZM480.715 137.455L479.181 137.881L479.184 137.892L480.715 137.455ZM513.521 146.624L514.646 147.749L514.66 147.736L514.673 147.722L513.521 146.624ZM519.634 105.668V104.076H518.042V105.668H519.634ZM541.436 105.668H543.028V104.076H541.436V105.668ZM537.768 144.586L539.284 145.073L539.286 145.066L537.768 144.586ZM525.135 162.517L526.052 163.819L526.062 163.812L526.071 163.805L525.135 162.517ZM499.869 167.242C488.386 167.242 479.668 164.836 473.52 160.225L471.609 162.772C478.502 167.941 487.986 170.426 499.869 170.426V167.242ZM473.533 160.235C467.43 155.561 463.128 149.259 460.636 141.26L457.596 142.207C460.267 150.781 464.93 157.656 471.597 162.762L473.533 160.235ZM460.643 141.283C458.248 133.166 457.041 124.084 457.041 114.022H453.857C453.857 124.336 455.094 133.728 457.59 142.184L460.643 141.283ZM457.041 114.022V55.7461H453.857V114.022H457.041ZM457.041 55.7461C457.041 44.718 458.252 35.1635 460.643 27.0587L457.59 26.1576C455.091 34.6254 453.857 44.4962 453.857 55.7461H457.041ZM460.636 27.0815C463.125 19.0911 467.415 13.0153 473.479 8.75734L471.65 6.15169C464.945 10.8593 460.27 17.5526 457.596 26.1347L460.636 27.0815ZM473.485 8.75354C479.638 4.39505 488.371 2.11851 499.869 2.11851V-1.06527C488.002 -1.06527 478.532 1.27679 471.644 6.1555L473.485 8.75354ZM499.869 2.11851C510.021 2.11851 517.835 3.9922 523.465 7.57496L525.175 4.88893C518.851 0.864594 510.365 -1.06527 499.869 -1.06527V2.11851ZM523.479 7.58355C529.276 11.1905 533.401 16.3334 535.866 23.0792L538.856 21.9866C536.159 14.6049 531.59 8.88055 525.161 4.88034L523.479 7.58355ZM535.875 23.1043C538.504 29.9389 539.844 38.2247 539.844 48.0031H543.028C543.028 37.9488 541.652 29.2544 538.847 21.9614L535.875 23.1043ZM539.844 48.0031V61.0439H543.028V48.0031H539.844ZM541.436 59.452H519.634V62.6358H541.436V59.452ZM521.225 61.0439V49.4294H518.042V61.0439H521.225ZM521.225 49.4294C521.225 43.2613 520.883 37.8152 520.19 33.1007L517.04 33.5639C517.705 38.0865 518.042 43.3719 518.042 49.4294H521.225ZM520.196 33.1515C519.623 28.1309 517.877 24.078 514.821 21.175L512.628 23.4832C515.006 25.7423 516.52 29.0248 517.033 33.513L520.196 33.1515ZM514.821 21.175C511.659 18.1714 506.598 16.8658 500.072 16.8658V20.0495C506.316 20.0495 510.356 21.3249 512.628 23.4832L514.821 21.175ZM500.072 16.8658C493.37 16.8658 488.126 18.3243 484.71 21.5852L486.908 23.8882C489.469 21.4436 493.734 20.0495 500.072 20.0495V16.8658ZM484.738 21.5588C481.424 24.5718 479.33 28.8649 478.334 34.2664L481.466 34.8432C482.372 29.9209 484.217 26.3351 486.88 23.9146L484.738 21.5588ZM478.329 34.3C477.496 39.4329 477.086 45.431 477.086 52.2821H480.269C480.269 45.5491 480.674 39.729 481.471 34.8097L478.329 34.3ZM477.086 52.2821V117.69H480.269V52.2821H477.086ZM477.086 117.69C477.086 126.041 477.768 132.792 479.181 137.881L482.249 137.028C480.946 132.336 480.269 125.911 480.269 117.69H477.086ZM479.184 137.892C480.613 142.893 483.032 146.669 486.57 148.976L488.309 146.309C485.598 144.541 483.534 141.525 482.246 137.017L479.184 137.892ZM486.57 148.976C490.04 151.239 494.59 152.291 500.072 152.291V149.107C494.959 149.107 491.087 148.121 488.309 146.309L486.57 148.976ZM500.072 152.291C506.491 152.291 511.49 150.906 514.646 147.749L512.395 145.498C510.118 147.776 506.152 149.107 500.072 149.107V152.291ZM514.673 147.722C517.673 144.573 519.478 140.364 520.192 135.228L517.038 134.79C516.393 139.435 514.802 142.97 512.368 145.526L514.673 147.722ZM520.192 135.228C520.883 130.247 521.225 124.465 521.225 117.893H518.042C518.042 124.362 517.705 129.991 517.038 134.79L520.192 135.228ZM521.225 117.893V105.668H518.042V117.893H521.225ZM519.634 107.26H541.436V104.076H519.634V107.26ZM539.844 105.668V117.893H543.028V105.668H539.844ZM539.844 117.893C539.844 127.82 538.637 136.551 536.25 144.107L539.286 145.066C541.791 137.136 543.028 128.071 543.028 117.893H539.844ZM536.253 144.099C533.902 151.412 529.88 157.098 524.199 161.23L526.071 163.805C532.344 159.243 536.744 152.974 539.284 145.073L536.253 144.099ZM524.218 161.216C518.611 165.166 510.559 167.242 499.869 167.242V170.426C510.913 170.426 519.705 168.29 526.052 163.819L524.218 161.216ZM581.506 167H579.914V168.592H581.506V167ZM581.506 19.0689H583.097V17.4771H581.506V19.0689ZM553.59 19.0689H551.998V20.6608H553.59V19.0689ZM553.59 1.95295V0.361057H551.998V1.95295H553.59ZM631.631 1.95295H633.223V0.361057H631.631V1.95295ZM631.631 19.0689V20.6608H633.223V19.0689H631.631ZM604.531 19.0689V17.4771H602.939V19.0689H604.531ZM604.531 167V168.592H606.123V167H604.531ZM583.097 167V19.0689H579.914V167H583.097ZM581.506 17.4771H553.59V20.6608H581.506V17.4771ZM555.182 19.0689V1.95295H551.998V19.0689H555.182ZM553.59 3.54483H631.631V0.361057H553.59V3.54483ZM630.039 1.95295V19.0689H633.223V1.95295H630.039ZM631.631 17.4771H604.531V20.6608H631.631V17.4771ZM602.939 19.0689V167H606.123V19.0689H602.939ZM604.531 165.408H581.506V168.592H604.531V165.408ZM662.62 162.721L661.751 164.054L661.757 164.059L661.764 164.063L662.62 162.721ZM648.357 145.809L646.907 146.465L646.907 146.465L648.357 145.809ZM642.652 120.746L642.237 119.209L640.989 119.546L641.062 120.837L642.652 120.746ZM663.028 115.245L664.616 115.134L664.481 113.203L662.613 113.708L663.028 115.245ZM665.677 132.157L664.132 132.543L664.137 132.561L664.142 132.579L665.677 132.157ZM672.808 145.605L671.639 146.685L671.649 146.696L671.66 146.707L672.808 145.605ZM699.909 145.809L698.737 144.731L698.735 144.733L699.909 145.809ZM699.501 113.411L698.219 114.354L698.225 114.363L698.232 114.372L699.501 113.411ZM686.664 99.5548L687.726 98.3685L687.717 98.3612L686.664 99.5548ZM658.953 75.1034L660.006 73.9098L660.001 73.9054L658.953 75.1034ZM646.931 59.6175L645.48 60.2737L645.483 60.2803L645.486 60.2869L646.931 59.6175ZM653.451 10.511L654.554 11.6589L654.554 11.6589L653.451 10.511ZM698.89 3.17552L698.349 4.67278L698.374 4.68168L698.399 4.68977L698.89 3.17552ZM711.319 10.9185L710.15 11.9982L710.161 12.0101L710.172 12.0218L711.319 10.9185ZM719.266 24.3667L717.764 24.8926L717.772 24.9155L717.78 24.9382L719.266 24.3667ZM723.341 43.1128L723.757 44.6494L725.052 44.2987L724.926 42.9633L723.341 43.1128ZM703.78 48.4106L702.193 48.5297L702.337 50.4508L704.196 49.9472L703.78 48.4106ZM701.335 33.536L699.796 33.9434L699.799 33.9549L701.335 33.536ZM694.815 22.5329L693.715 23.6844L693.742 23.7099L693.77 23.7341L694.815 22.5329ZM668.326 22.9404L669.426 24.0908L669.427 24.0897L668.326 22.9404ZM666.084 48.8182L664.66 49.5301L664.672 49.5534L664.684 49.5763L666.084 48.8182ZM674.438 58.8025L673.378 59.9899L673.384 59.995L673.39 60L674.438 58.8025ZM702.354 83.2539L701.305 84.4514L701.309 84.4552L702.354 83.2539ZM718.859 102.815L717.509 103.659L717.515 103.67L718.859 102.815ZM720.896 150.699L722.272 151.499L722.276 151.492L722.28 151.485L720.896 150.699ZM706.837 164.147L706.099 162.737L706.092 162.74L706.086 162.744L706.837 164.147ZM686.46 167.242C677.178 167.242 669.547 165.254 663.477 161.379L661.764 164.063C668.462 168.338 676.725 170.426 686.46 170.426V167.242ZM663.49 161.388C657.511 157.488 652.95 152.093 649.807 145.152L646.907 146.465C650.284 153.924 655.233 159.803 661.751 164.054L663.49 161.388ZM649.807 145.152C646.642 138.163 644.775 130.008 644.241 120.655L641.062 120.837C641.615 130.502 643.551 139.055 646.907 146.465L649.807 145.152ZM643.067 122.283L663.443 116.781L662.613 113.708L642.237 119.209L643.067 122.283ZM661.44 115.355C661.853 121.285 662.75 127.015 664.132 132.543L667.221 131.771C665.886 126.431 665.017 120.886 664.616 115.134L661.44 115.355ZM664.142 132.579C665.692 138.215 668.178 142.936 671.639 146.685L673.978 144.525C670.918 141.21 668.65 136.965 667.212 131.735L664.142 132.579ZM671.66 146.707C675.29 150.488 680.297 152.291 686.46 152.291V149.107C680.941 149.107 676.848 147.514 673.957 144.503L671.66 146.707ZM686.46 152.291C692.72 152.291 697.697 150.577 701.082 146.884L698.735 144.733C696.143 147.561 692.155 149.107 686.46 149.107V152.291ZM701.08 146.887C704.558 143.106 706.187 137.846 706.187 131.342H703.003C703.003 137.335 701.508 141.72 698.737 144.731L701.08 146.887ZM706.187 131.342C706.187 123.637 704.435 117.287 700.77 112.449L698.232 114.372C701.359 118.499 703.003 124.104 703.003 131.342H706.187ZM700.784 112.468C697.311 107.744 692.953 103.046 687.726 98.3685L685.603 100.741C690.699 105.301 694.899 109.84 698.219 114.354L700.784 112.468ZM687.717 98.3612L660.006 73.9098L657.899 76.2971L685.611 100.749L687.717 98.3612ZM660.001 73.9054C654.706 69.272 650.847 64.2833 648.375 58.9482L645.486 60.2869C648.176 66.0908 652.332 71.4259 657.904 76.3014L660.001 73.9054ZM648.381 58.9614C645.918 53.5175 644.651 46.7598 644.651 38.6301H641.467C641.467 47.073 642.781 54.307 645.48 60.2737L648.381 58.9614ZM644.651 38.6301C644.651 26.8547 648.015 17.9416 654.554 11.6589L652.348 9.36303C645.031 16.3928 641.467 26.2257 641.467 38.6301H644.651ZM654.554 11.6589C661.117 5.35313 670.125 2.11851 681.774 2.11851V-1.06527C669.514 -1.06527 659.641 2.35633 652.348 9.36303L654.554 11.6589ZM681.774 2.11851C688.155 2.11851 693.67 2.98308 698.349 4.67278L699.431 1.67827C694.329 -0.163903 688.434 -1.06527 681.774 -1.06527V2.11851ZM698.399 4.68977C703.192 6.24419 707.093 8.68645 710.15 11.9982L712.489 9.83872C709.026 6.08674 704.64 3.36704 699.381 1.66128L698.399 4.68977ZM710.172 12.0218C713.384 15.3626 715.924 19.6374 717.764 24.8926L720.769 23.8409C718.804 18.2289 716.047 13.5381 712.467 9.81512L710.172 12.0218ZM717.78 24.9382C719.754 30.0694 721.087 36.1698 721.756 43.2623L724.926 42.9633C724.237 35.6567 722.854 29.2597 720.752 23.7953L717.78 24.9382ZM722.925 41.5763L703.364 46.8741L704.196 49.9472L723.757 44.6494L722.925 41.5763ZM705.368 48.2916C704.954 42.7734 704.124 37.7131 702.871 33.1172L699.799 33.9549C700.991 38.3245 701.792 43.1805 702.193 48.5297L705.368 48.2916ZM702.874 33.1287C701.583 28.2507 699.26 24.2885 695.859 21.3316L693.77 23.7341C696.618 26.2109 698.642 29.5841 699.796 33.9434L702.874 33.1287ZM695.914 21.3814C692.532 18.1531 687.731 16.662 681.774 16.662V19.8458C687.228 19.8458 691.12 21.2073 693.715 23.6844L695.914 21.3814ZM681.774 16.662C675.771 16.662 670.853 18.3131 667.224 21.7911L669.427 24.0897C672.318 21.319 676.366 19.8458 681.774 19.8458V16.662ZM667.225 21.7901C663.682 25.1793 662.047 30.1478 662.047 36.3887H665.231C665.231 30.6755 666.721 26.6785 669.426 24.0908L667.225 21.7901ZM662.047 36.3887C662.047 41.5735 662.886 45.9814 664.66 49.5301L667.508 48.1062C666.022 45.1346 665.231 41.2562 665.231 36.3887H662.047ZM664.684 49.5763C666.564 53.0462 669.485 56.5142 673.378 59.9899L675.499 57.615C671.784 54.2988 669.136 51.1105 667.484 48.06L664.684 49.5763ZM673.39 60L701.305 84.4514L703.403 82.0564L675.487 57.605L673.39 60ZM701.309 84.4552C707.43 89.7771 712.831 96.1742 717.509 103.659L720.208 101.971C715.377 94.2417 709.775 87.598 703.398 82.0527L701.309 84.4552ZM717.515 103.67C722.082 110.846 724.398 119.435 724.398 129.508H727.582C727.582 118.932 725.144 109.727 720.202 101.96L717.515 103.67ZM724.398 129.508C724.398 137.434 722.749 144.216 719.512 149.913L722.28 151.485C725.836 145.228 727.582 137.883 727.582 129.508H724.398ZM719.52 149.899C716.275 155.481 711.809 159.752 706.099 162.737L707.574 165.558C713.818 162.294 718.726 157.6 722.272 151.499L719.52 149.899ZM706.086 162.744C700.512 165.725 693.986 167.242 686.46 167.242V170.426C694.421 170.426 701.479 168.818 707.587 165.551L706.086 162.744Z" fill="#EAEAEA"/>
</svg>
