<svg width="64" height="64" viewBox="0 0 64 64" fill="none" xmlns="http://www.w3.org/2000/svg">
<path d="M52.4562 29.5217V14.8936C52.4562 11.417 49.6093 8.54545 46.1324 8.54545H45.3448V7.55383C45.3448 5.0733 43.3338 3.06238 40.8533 3.06238C38.3728 3.06238 36.3619 5.0733 36.3619 7.55383V8.54545H19.8932V7.55383C19.8932 5.03887 17.8543 3 15.3394 3C12.8244 3 10.7855 5.03887 10.7855 7.55383V8.54545H10.105C6.62819 8.54545 3.79883 11.417 3.79883 14.8936V48.4827C3.79883 51.9594 6.62819 54.8324 10.105 54.8324H29.8915C31.503 56.76 33.5173 58.3111 35.7926 59.3767C38.068 60.4422 40.5491 60.9963 43.0616 61C52.5061 61 60.1996 53.305 60.1996 43.8602C60.1999 37.874 57.0724 32.5851 52.4562 29.5217ZM38.8571 7.55383C38.8379 6.46715 39.7031 5.57061 40.7898 5.55139C40.8073 5.55115 40.8247 5.55102 40.8422 5.55114C41.9391 5.53954 42.8379 6.41937 42.8495 7.51641C42.8496 7.52888 42.8496 7.54136 42.8495 7.55383V12.4131H38.8571V7.55383ZM13.2808 7.55383C13.2926 6.43584 14.2086 5.53917 15.3266 5.55102C15.3286 5.551 15.3305 5.55104 15.3324 5.55114C16.4545 5.55114 17.3979 6.43184 17.3979 7.55383V12.4131H13.2808V7.55383ZM6.29408 14.8936C6.29408 12.7927 8.00408 11.0407 10.105 11.0407H10.7855V13.7126C10.7855 14.4016 11.3609 14.9083 12.05 14.9083H18.615C19.3039 14.9083 19.8932 14.4016 19.8932 13.7126V11.0407H36.3619V13.7126C36.3573 13.871 36.3852 14.0287 36.4438 14.176C36.5024 14.3233 36.5905 14.457 36.7026 14.569C36.8148 14.681 36.9487 14.7688 37.0961 14.8272C37.2434 14.8856 37.4012 14.9132 37.5596 14.9083H44.1246C44.2842 14.9136 44.4432 14.8865 44.592 14.8286C44.7409 14.7707 44.8764 14.6833 44.9905 14.5715C45.1045 14.4597 45.1947 14.326 45.2556 14.1784C45.3165 14.0307 45.3468 13.8723 45.3448 13.7126V11.0407H46.1324C48.2475 11.062 49.953 12.7785 49.961 14.8936V18.9007H6.29408V14.8936ZM10.105 52.3371C8.00408 52.3371 6.29408 50.5836 6.29408 48.4827V21.396H49.961V28.1649C47.7892 27.2113 45.443 26.7194 43.0711 26.7204C33.6266 26.7204 25.9378 34.4266 25.9378 43.8713C25.933 46.8385 26.7 49.7559 28.1635 52.3371H10.105ZM43.0616 58.4825C34.9797 58.4825 28.4281 51.9309 28.4281 43.849C28.4281 35.7671 34.9797 29.2155 43.0616 29.2155C51.1435 29.2155 57.6951 35.7671 57.6951 43.849V43.8491C57.686 51.9271 51.1397 58.4734 43.0616 58.4825Z" fill="#EEDFA8"/>
<path d="M48.9396 43.8532H43.4738V36.3463C43.4738 35.6572 42.9152 35.0986 42.2261 35.0986C41.5371 35.0986 40.9785 35.6572 40.9785 36.3463V45.0996C40.9838 45.433 41.1201 45.751 41.3579 45.9847C41.5958 46.2184 41.9161 46.3491 42.2496 46.3485H48.9396C49.6287 46.3485 50.1872 45.7899 50.1872 45.1008C50.1872 44.4118 49.6287 43.8532 48.9396 43.8532Z" fill="#EEDFA8"/>
</svg>
