<svg width="64" height="64" viewBox="0 0 64 64" fill="none" xmlns="http://www.w3.org/2000/svg">
<path d="M59.7334 40.7042V33.2433C59.7334 17.9511 47.2923 5.51001 32.0001 5.51001C16.7078 5.51001 4.26672 17.9511 4.26672 33.2433V40.7042C4.26672 40.728 4.26914 40.7512 4.27034 40.7747C4.26582 40.8482 4.26687 40.922 4.2732 40.9953L5.78045 57.1228C5.85792 57.9516 6.59271 58.5607 7.42154 58.4832C7.49464 58.4764 7.56714 58.4643 7.63843 58.4468L18.0711 55.9022C27.2241 53.6796 36.776 53.6796 45.929 55.9022L56.3617 58.4468C57.1703 58.6441 57.9859 58.1485 58.1832 57.3397C58.2005 57.2684 58.2127 57.1959 58.2197 57.1228L59.7269 40.9953C59.7332 40.9219 59.7343 40.8482 59.7298 40.7747C59.731 40.7512 59.7334 40.728 59.7334 40.7042ZM55.3806 55.1046L46.6433 52.9735C37.0211 50.6371 26.9796 50.6371 17.3575 52.9735L8.6201 55.1046L7.39803 42.0283L18.8303 39.4004C27.4985 37.4199 36.5017 37.4199 45.1698 39.4004L56.6027 42.0288L55.3806 55.1046ZM56.7189 38.9618L45.8452 36.4622C36.7325 34.38 27.2676 34.38 18.1549 36.4622L7.28122 38.9618V33.2433C7.28122 19.6133 18.37 8.5245 32.0001 8.5245C45.6301 8.5245 56.7189 19.6133 56.7189 33.2433V38.9618Z" fill="#EEDFA8"/>
<path d="M40.2901 18.7361H23.7104C22.8779 18.7361 22.2031 19.4109 22.2031 20.2433V29.1361C22.2031 29.9685 22.8779 30.6433 23.7104 30.6433H40.2901C41.1225 30.6433 41.7973 29.9685 41.7973 29.1361V20.2433C41.7973 19.4109 41.1225 18.7361 40.2901 18.7361ZM38.7828 27.6288H25.2176V21.7506H38.7828V27.6288Z" fill="#EEDFA8"/>
</svg>
